G04 EAGLE Gerber RS-274X export*
G75*
%MOMM*%
%FSLAX34Y34*%
%LPD*%
%INSoldermask Top*%
%IPPOS*%
%AMOC8*
5,1,8,0,0,1.08239X$1,22.5*%
G01*
%ADD10R,0.803200X0.803200*%
%ADD11C,0.505344*%
%ADD12R,0.553200X1.653200*%
%ADD13C,0.657200*%
%ADD14R,1.003200X0.433200*%
%ADD15R,0.433200X1.003200*%
%ADD16R,4.503200X4.503200*%
%ADD17R,1.403200X1.303200*%
%ADD18R,1.203200X2.003200*%
%ADD19C,0.838200*%
%ADD20R,1.703200X1.203200*%
%ADD21C,1.203200*%
%ADD22C,1.270000*%
%ADD23C,1.703200*%

G36*
X52496Y478253D02*
X52496Y478253D01*
X52503Y478251D01*
X52563Y478272D01*
X52624Y478290D01*
X52628Y478295D01*
X52635Y478298D01*
X52674Y478348D01*
X52716Y478395D01*
X52717Y478402D01*
X52721Y478408D01*
X52738Y478480D01*
X52952Y481198D01*
X53584Y483831D01*
X54620Y486331D01*
X56034Y488639D01*
X57792Y490698D01*
X59850Y492456D01*
X62158Y493870D01*
X64659Y494906D01*
X67291Y495538D01*
X69989Y495750D01*
X72688Y495538D01*
X75320Y494906D01*
X77821Y493870D01*
X80129Y492456D01*
X82187Y490698D01*
X83945Y488639D01*
X85359Y486331D01*
X86395Y483831D01*
X87027Y481198D01*
X87241Y478480D01*
X87244Y478474D01*
X87242Y478467D01*
X87268Y478409D01*
X87291Y478350D01*
X87296Y478345D01*
X87299Y478339D01*
X87352Y478304D01*
X87403Y478266D01*
X87410Y478266D01*
X87416Y478262D01*
X87489Y478251D01*
X97489Y478251D01*
X97514Y478258D01*
X97540Y478256D01*
X97580Y478277D01*
X97624Y478290D01*
X97641Y478310D01*
X97664Y478322D01*
X97686Y478361D01*
X97716Y478395D01*
X97719Y478421D01*
X97732Y478444D01*
X97738Y478518D01*
X97458Y482431D01*
X97455Y482441D01*
X97453Y482467D01*
X96619Y486301D01*
X96614Y486309D01*
X96609Y486335D01*
X95238Y490011D01*
X95232Y490019D01*
X95223Y490043D01*
X93343Y493487D01*
X93336Y493494D01*
X93323Y493517D01*
X90972Y496658D01*
X90964Y496664D01*
X90949Y496685D01*
X88174Y499459D01*
X88166Y499464D01*
X88147Y499483D01*
X85006Y501834D01*
X84997Y501837D01*
X84976Y501853D01*
X81533Y503734D01*
X81523Y503736D01*
X81500Y503748D01*
X77824Y505120D01*
X77815Y505120D01*
X77790Y505130D01*
X73956Y505964D01*
X73946Y505963D01*
X73921Y505969D01*
X70007Y506249D01*
X69998Y506247D01*
X69972Y506249D01*
X66058Y505969D01*
X66049Y505965D01*
X66023Y505964D01*
X62189Y505130D01*
X62180Y505125D01*
X62155Y505120D01*
X58478Y503748D01*
X58471Y503743D01*
X58446Y503734D01*
X55002Y501853D01*
X54996Y501846D01*
X54972Y501834D01*
X51831Y499483D01*
X51826Y499475D01*
X51805Y499459D01*
X49030Y496685D01*
X49025Y496676D01*
X49007Y496658D01*
X46655Y493517D01*
X46652Y493508D01*
X46636Y493487D01*
X44756Y490043D01*
X44754Y490034D01*
X44741Y490011D01*
X43370Y486335D01*
X43369Y486325D01*
X43360Y486301D01*
X42526Y482467D01*
X42526Y482457D01*
X42521Y482431D01*
X42241Y478518D01*
X42246Y478492D01*
X42242Y478467D01*
X42261Y478425D01*
X42270Y478381D01*
X42289Y478363D01*
X42299Y478339D01*
X42337Y478314D01*
X42369Y478282D01*
X42394Y478276D01*
X42416Y478262D01*
X42489Y478251D01*
X52489Y478251D01*
X52496Y478253D01*
G37*
G36*
X952825Y478253D02*
X952825Y478253D01*
X952832Y478251D01*
X952891Y478272D01*
X952952Y478290D01*
X952957Y478295D01*
X952964Y478298D01*
X953002Y478348D01*
X953044Y478395D01*
X953045Y478402D01*
X953049Y478408D01*
X953066Y478480D01*
X953280Y481198D01*
X953912Y483831D01*
X954948Y486331D01*
X956362Y488639D01*
X958120Y490698D01*
X960179Y492456D01*
X962486Y493870D01*
X964987Y494906D01*
X967619Y495538D01*
X970318Y495750D01*
X973016Y495538D01*
X975648Y494906D01*
X978149Y493870D01*
X980457Y492456D01*
X982515Y490698D01*
X984273Y488639D01*
X985688Y486331D01*
X986724Y483831D01*
X987355Y481198D01*
X987569Y478480D01*
X987572Y478474D01*
X987571Y478467D01*
X987597Y478409D01*
X987619Y478350D01*
X987625Y478345D01*
X987628Y478339D01*
X987680Y478304D01*
X987731Y478266D01*
X987738Y478266D01*
X987744Y478262D01*
X987818Y478251D01*
X997818Y478251D01*
X997843Y478258D01*
X997869Y478256D01*
X997909Y478277D01*
X997952Y478290D01*
X997969Y478310D01*
X997992Y478322D01*
X998014Y478361D01*
X998044Y478395D01*
X998048Y478421D01*
X998061Y478444D01*
X998066Y478518D01*
X997787Y482431D01*
X997783Y482441D01*
X997781Y482467D01*
X996947Y486301D01*
X996943Y486309D01*
X996937Y486335D01*
X995566Y490011D01*
X995560Y490019D01*
X995551Y490043D01*
X993671Y493487D01*
X993664Y493494D01*
X993652Y493517D01*
X991300Y496658D01*
X991293Y496664D01*
X991277Y496685D01*
X988503Y499459D01*
X988494Y499464D01*
X988476Y499483D01*
X985335Y501834D01*
X985326Y501837D01*
X985305Y501853D01*
X981861Y503734D01*
X981852Y503736D01*
X981829Y503748D01*
X978153Y505120D01*
X978143Y505120D01*
X978118Y505130D01*
X974284Y505964D01*
X974275Y505963D01*
X974249Y505969D01*
X970336Y506249D01*
X970326Y506247D01*
X970300Y506249D01*
X966386Y505969D01*
X966377Y505965D01*
X966351Y505964D01*
X962517Y505130D01*
X962509Y505125D01*
X962483Y505120D01*
X958807Y503748D01*
X958799Y503743D01*
X958774Y503734D01*
X955331Y501853D01*
X955324Y501846D01*
X955301Y501834D01*
X952160Y499483D01*
X952154Y499475D01*
X952133Y499459D01*
X949358Y496685D01*
X949354Y496676D01*
X949335Y496658D01*
X946984Y493517D01*
X946980Y493508D01*
X946965Y493487D01*
X945084Y490043D01*
X945082Y490034D01*
X945069Y490011D01*
X943698Y486335D01*
X943698Y486325D01*
X943688Y486301D01*
X942854Y482467D01*
X942855Y482457D01*
X942849Y482431D01*
X942569Y478518D01*
X942575Y478492D01*
X942571Y478467D01*
X942589Y478425D01*
X942599Y478381D01*
X942617Y478363D01*
X942628Y478339D01*
X942665Y478314D01*
X942697Y478282D01*
X942723Y478276D01*
X942744Y478262D01*
X942818Y478251D01*
X952818Y478251D01*
X952825Y478253D01*
G37*
G36*
X1402989Y478253D02*
X1402989Y478253D01*
X1402996Y478251D01*
X1403055Y478272D01*
X1403116Y478290D01*
X1403121Y478295D01*
X1403128Y478298D01*
X1403167Y478348D01*
X1403208Y478395D01*
X1403209Y478402D01*
X1403214Y478408D01*
X1403230Y478480D01*
X1403444Y481198D01*
X1404076Y483831D01*
X1405112Y486331D01*
X1406526Y488639D01*
X1408284Y490698D01*
X1410343Y492456D01*
X1412651Y493870D01*
X1415151Y494906D01*
X1417784Y495538D01*
X1420482Y495750D01*
X1423180Y495538D01*
X1425813Y494906D01*
X1428313Y493870D01*
X1430621Y492456D01*
X1432680Y490698D01*
X1434438Y488639D01*
X1435852Y486331D01*
X1436888Y483831D01*
X1437520Y481198D01*
X1437734Y478480D01*
X1437736Y478474D01*
X1437735Y478467D01*
X1437761Y478409D01*
X1437783Y478350D01*
X1437789Y478345D01*
X1437792Y478339D01*
X1437845Y478304D01*
X1437895Y478266D01*
X1437903Y478266D01*
X1437909Y478262D01*
X1437982Y478251D01*
X1447982Y478251D01*
X1448007Y478258D01*
X1448033Y478256D01*
X1448073Y478277D01*
X1448116Y478290D01*
X1448133Y478310D01*
X1448156Y478322D01*
X1448178Y478361D01*
X1448208Y478395D01*
X1448212Y478421D01*
X1448225Y478444D01*
X1448231Y478518D01*
X1447951Y482431D01*
X1447947Y482441D01*
X1447946Y482467D01*
X1447112Y486301D01*
X1447107Y486309D01*
X1447102Y486335D01*
X1445730Y490011D01*
X1445725Y490019D01*
X1445716Y490043D01*
X1443835Y493487D01*
X1443828Y493494D01*
X1443816Y493517D01*
X1441465Y496658D01*
X1441457Y496664D01*
X1441441Y496685D01*
X1438667Y499459D01*
X1438658Y499464D01*
X1438640Y499483D01*
X1435499Y501834D01*
X1435490Y501837D01*
X1435469Y501853D01*
X1432025Y503734D01*
X1432016Y503736D01*
X1431993Y503748D01*
X1428317Y505120D01*
X1428307Y505120D01*
X1428283Y505130D01*
X1424449Y505964D01*
X1424439Y505963D01*
X1424413Y505969D01*
X1420500Y506249D01*
X1420490Y506247D01*
X1420464Y506249D01*
X1416551Y505969D01*
X1416541Y505965D01*
X1416515Y505964D01*
X1412681Y505130D01*
X1412673Y505125D01*
X1412647Y505120D01*
X1408971Y503748D01*
X1408963Y503743D01*
X1408939Y503734D01*
X1405495Y501853D01*
X1405488Y501846D01*
X1405465Y501834D01*
X1402324Y499483D01*
X1402318Y499475D01*
X1402297Y499459D01*
X1399523Y496685D01*
X1399518Y496676D01*
X1399499Y496658D01*
X1397148Y493517D01*
X1397145Y493508D01*
X1397129Y493487D01*
X1395248Y490043D01*
X1395246Y490034D01*
X1395234Y490011D01*
X1393862Y486335D01*
X1393862Y486325D01*
X1393852Y486301D01*
X1393018Y482467D01*
X1393019Y482457D01*
X1393013Y482431D01*
X1392733Y478518D01*
X1392739Y478492D01*
X1392735Y478467D01*
X1392753Y478425D01*
X1392763Y478381D01*
X1392781Y478363D01*
X1392792Y478339D01*
X1392830Y478314D01*
X1392861Y478282D01*
X1392887Y478276D01*
X1392909Y478262D01*
X1392982Y478251D01*
X1402982Y478251D01*
X1402989Y478253D01*
G37*
G36*
X502661Y478253D02*
X502661Y478253D01*
X502668Y478251D01*
X502727Y478272D01*
X502788Y478290D01*
X502793Y478295D01*
X502799Y478298D01*
X502838Y478348D01*
X502880Y478395D01*
X502881Y478402D01*
X502885Y478408D01*
X502902Y478480D01*
X503116Y481198D01*
X503748Y483831D01*
X504784Y486331D01*
X506198Y488639D01*
X507956Y490698D01*
X510014Y492456D01*
X512322Y493870D01*
X514823Y494906D01*
X517455Y495538D01*
X520154Y495750D01*
X522852Y495538D01*
X525484Y494906D01*
X527985Y493870D01*
X530293Y492456D01*
X532351Y490698D01*
X534109Y488639D01*
X535523Y486331D01*
X536559Y483831D01*
X537191Y481198D01*
X537405Y478480D01*
X537408Y478474D01*
X537407Y478467D01*
X537432Y478409D01*
X537455Y478350D01*
X537461Y478345D01*
X537463Y478339D01*
X537516Y478304D01*
X537567Y478266D01*
X537574Y478266D01*
X537580Y478262D01*
X537654Y478251D01*
X547654Y478251D01*
X547679Y478258D01*
X547705Y478256D01*
X547744Y478277D01*
X547788Y478290D01*
X547805Y478310D01*
X547828Y478322D01*
X547850Y478361D01*
X547880Y478395D01*
X547884Y478421D01*
X547896Y478444D01*
X547902Y478518D01*
X547622Y482431D01*
X547619Y482441D01*
X547617Y482467D01*
X546783Y486301D01*
X546779Y486309D01*
X546773Y486335D01*
X545402Y490011D01*
X545396Y490019D01*
X545387Y490043D01*
X543507Y493487D01*
X543500Y493494D01*
X543488Y493517D01*
X541136Y496658D01*
X541129Y496664D01*
X541113Y496685D01*
X538339Y499459D01*
X538330Y499464D01*
X538312Y499483D01*
X535171Y501834D01*
X535162Y501837D01*
X535141Y501853D01*
X531697Y503734D01*
X531688Y503736D01*
X531665Y503748D01*
X527988Y505120D01*
X527979Y505120D01*
X527954Y505130D01*
X524120Y505964D01*
X524111Y505963D01*
X524085Y505969D01*
X520171Y506249D01*
X520162Y506247D01*
X520136Y506249D01*
X516222Y505969D01*
X516213Y505965D01*
X516187Y505964D01*
X512353Y505130D01*
X512344Y505125D01*
X512319Y505120D01*
X508643Y503748D01*
X508635Y503743D01*
X508610Y503734D01*
X505167Y501853D01*
X505160Y501846D01*
X505137Y501834D01*
X501996Y499483D01*
X501990Y499475D01*
X501969Y499459D01*
X499194Y496685D01*
X499190Y496676D01*
X499171Y496658D01*
X496820Y493517D01*
X496816Y493508D01*
X496800Y493487D01*
X494920Y490043D01*
X494918Y490034D01*
X494905Y490011D01*
X493534Y486335D01*
X493533Y486325D01*
X493524Y486301D01*
X492690Y482467D01*
X492691Y482457D01*
X492685Y482431D01*
X492405Y478518D01*
X492410Y478492D01*
X492407Y478467D01*
X492425Y478425D01*
X492435Y478381D01*
X492453Y478363D01*
X492463Y478339D01*
X492501Y478314D01*
X492533Y478282D01*
X492558Y478276D01*
X492580Y478262D01*
X492654Y478251D01*
X502654Y478251D01*
X502661Y478253D01*
G37*
G36*
X277591Y478253D02*
X277591Y478253D01*
X277598Y478251D01*
X277657Y478272D01*
X277718Y478290D01*
X277723Y478295D01*
X277730Y478298D01*
X277769Y478348D01*
X277810Y478395D01*
X277811Y478402D01*
X277816Y478408D01*
X277833Y478480D01*
X278047Y481198D01*
X278679Y483831D01*
X279714Y486331D01*
X281129Y488639D01*
X282887Y490698D01*
X284945Y492456D01*
X287253Y493870D01*
X289754Y494906D01*
X292386Y495538D01*
X295084Y495750D01*
X297783Y495538D01*
X300415Y494906D01*
X302916Y493870D01*
X305224Y492456D01*
X307282Y490698D01*
X309040Y488639D01*
X310454Y486331D01*
X311490Y483831D01*
X312122Y481198D01*
X312336Y478480D01*
X312338Y478474D01*
X312337Y478467D01*
X312363Y478409D01*
X312385Y478350D01*
X312391Y478345D01*
X312394Y478339D01*
X312447Y478304D01*
X312497Y478266D01*
X312505Y478266D01*
X312511Y478262D01*
X312584Y478251D01*
X322584Y478251D01*
X322609Y478258D01*
X322635Y478256D01*
X322675Y478277D01*
X322718Y478290D01*
X322736Y478310D01*
X322758Y478322D01*
X322781Y478361D01*
X322810Y478395D01*
X322814Y478421D01*
X322827Y478444D01*
X322833Y478518D01*
X322553Y482431D01*
X322550Y482441D01*
X322548Y482467D01*
X321714Y486301D01*
X321709Y486309D01*
X321704Y486335D01*
X320333Y490011D01*
X320327Y490019D01*
X320318Y490043D01*
X318437Y493487D01*
X318431Y493494D01*
X318418Y493517D01*
X316067Y496658D01*
X316059Y496664D01*
X316044Y496685D01*
X313269Y499459D01*
X313261Y499464D01*
X313242Y499483D01*
X310101Y501834D01*
X310092Y501837D01*
X310071Y501853D01*
X306628Y503734D01*
X306618Y503736D01*
X306595Y503748D01*
X302919Y505120D01*
X302909Y505120D01*
X302885Y505130D01*
X299051Y505964D01*
X299041Y505963D01*
X299016Y505969D01*
X295102Y506249D01*
X295093Y506247D01*
X295066Y506249D01*
X291153Y505969D01*
X291144Y505965D01*
X291118Y505964D01*
X287284Y505130D01*
X287275Y505125D01*
X287249Y505120D01*
X283573Y503748D01*
X283565Y503743D01*
X283541Y503734D01*
X280097Y501853D01*
X280090Y501846D01*
X280067Y501834D01*
X276926Y499483D01*
X276920Y499475D01*
X276899Y499459D01*
X274125Y496685D01*
X274120Y496676D01*
X274102Y496658D01*
X271750Y493517D01*
X271747Y493508D01*
X271731Y493487D01*
X269851Y490043D01*
X269849Y490034D01*
X269836Y490011D01*
X268465Y486335D01*
X268464Y486325D01*
X268455Y486301D01*
X267621Y482467D01*
X267621Y482457D01*
X267615Y482431D01*
X267336Y478518D01*
X267341Y478492D01*
X267337Y478467D01*
X267356Y478425D01*
X267365Y478381D01*
X267383Y478363D01*
X267394Y478339D01*
X267432Y478314D01*
X267464Y478282D01*
X267489Y478276D01*
X267511Y478262D01*
X267584Y478251D01*
X277584Y478251D01*
X277591Y478253D01*
G37*
G36*
X1177920Y478253D02*
X1177920Y478253D01*
X1177927Y478251D01*
X1177986Y478272D01*
X1178047Y478290D01*
X1178052Y478295D01*
X1178058Y478298D01*
X1178097Y478348D01*
X1178139Y478395D01*
X1178140Y478402D01*
X1178144Y478408D01*
X1178161Y478480D01*
X1178375Y481198D01*
X1179007Y483831D01*
X1180043Y486331D01*
X1181457Y488639D01*
X1183215Y490698D01*
X1185273Y492456D01*
X1187581Y493870D01*
X1190082Y494906D01*
X1192714Y495538D01*
X1195413Y495750D01*
X1198111Y495538D01*
X1200743Y494906D01*
X1203244Y493870D01*
X1205552Y492456D01*
X1207610Y490698D01*
X1209368Y488639D01*
X1210782Y486331D01*
X1211818Y483831D01*
X1212450Y481198D01*
X1212664Y478480D01*
X1212667Y478474D01*
X1212666Y478467D01*
X1212691Y478409D01*
X1212714Y478350D01*
X1212720Y478345D01*
X1212722Y478339D01*
X1212775Y478304D01*
X1212826Y478266D01*
X1212833Y478266D01*
X1212839Y478262D01*
X1212913Y478251D01*
X1222913Y478251D01*
X1222938Y478258D01*
X1222964Y478256D01*
X1223003Y478277D01*
X1223047Y478290D01*
X1223064Y478310D01*
X1223087Y478322D01*
X1223109Y478361D01*
X1223139Y478395D01*
X1223143Y478421D01*
X1223155Y478444D01*
X1223161Y478518D01*
X1222881Y482431D01*
X1222878Y482441D01*
X1222876Y482467D01*
X1222042Y486301D01*
X1222038Y486309D01*
X1222032Y486335D01*
X1220661Y490011D01*
X1220655Y490019D01*
X1220646Y490043D01*
X1218766Y493487D01*
X1218759Y493494D01*
X1218747Y493517D01*
X1216395Y496658D01*
X1216388Y496664D01*
X1216372Y496685D01*
X1213598Y499459D01*
X1213589Y499464D01*
X1213571Y499483D01*
X1210430Y501834D01*
X1210421Y501837D01*
X1210400Y501853D01*
X1206956Y503734D01*
X1206947Y503736D01*
X1206924Y503748D01*
X1203247Y505120D01*
X1203238Y505120D01*
X1203213Y505130D01*
X1199379Y505964D01*
X1199370Y505963D01*
X1199344Y505969D01*
X1195430Y506249D01*
X1195421Y506247D01*
X1195395Y506249D01*
X1191481Y505969D01*
X1191472Y505965D01*
X1191446Y505964D01*
X1187612Y505130D01*
X1187603Y505125D01*
X1187578Y505120D01*
X1183902Y503748D01*
X1183894Y503743D01*
X1183869Y503734D01*
X1180426Y501853D01*
X1180419Y501846D01*
X1180396Y501834D01*
X1177255Y499483D01*
X1177249Y499475D01*
X1177228Y499459D01*
X1174453Y496685D01*
X1174449Y496676D01*
X1174430Y496658D01*
X1172079Y493517D01*
X1172075Y493508D01*
X1172059Y493487D01*
X1170179Y490043D01*
X1170177Y490034D01*
X1170164Y490011D01*
X1168793Y486335D01*
X1168792Y486325D01*
X1168783Y486301D01*
X1167949Y482467D01*
X1167950Y482457D01*
X1167944Y482431D01*
X1167664Y478518D01*
X1167669Y478492D01*
X1167666Y478467D01*
X1167684Y478425D01*
X1167694Y478381D01*
X1167712Y478363D01*
X1167722Y478339D01*
X1167760Y478314D01*
X1167792Y478282D01*
X1167817Y478276D01*
X1167839Y478262D01*
X1167913Y478251D01*
X1177913Y478251D01*
X1177920Y478253D01*
G37*
G36*
X727755Y478253D02*
X727755Y478253D01*
X727762Y478251D01*
X727822Y478272D01*
X727883Y478290D01*
X727887Y478295D01*
X727894Y478298D01*
X727933Y478348D01*
X727975Y478395D01*
X727976Y478402D01*
X727980Y478408D01*
X727997Y478480D01*
X728211Y481198D01*
X728843Y483831D01*
X729879Y486331D01*
X731293Y488639D01*
X733051Y490698D01*
X735109Y492456D01*
X737417Y493870D01*
X739918Y494906D01*
X742550Y495538D01*
X745248Y495750D01*
X747947Y495538D01*
X750579Y494906D01*
X753080Y493870D01*
X755388Y492456D01*
X757446Y490698D01*
X759204Y488639D01*
X760618Y486331D01*
X761654Y483831D01*
X762286Y481198D01*
X762500Y478480D01*
X762503Y478474D01*
X762501Y478467D01*
X762527Y478409D01*
X762550Y478350D01*
X762555Y478345D01*
X762558Y478339D01*
X762611Y478304D01*
X762662Y478266D01*
X762669Y478266D01*
X762675Y478262D01*
X762748Y478251D01*
X772748Y478251D01*
X772773Y478258D01*
X772799Y478256D01*
X772839Y478277D01*
X772883Y478290D01*
X772900Y478310D01*
X772923Y478322D01*
X772945Y478361D01*
X772975Y478395D01*
X772978Y478421D01*
X772991Y478444D01*
X772997Y478518D01*
X772717Y482431D01*
X772714Y482441D01*
X772712Y482467D01*
X771878Y486301D01*
X771873Y486309D01*
X771868Y486335D01*
X770497Y490011D01*
X770491Y490019D01*
X770482Y490043D01*
X768602Y493487D01*
X768595Y493494D01*
X768582Y493517D01*
X766231Y496658D01*
X766223Y496664D01*
X766208Y496685D01*
X763433Y499459D01*
X763425Y499464D01*
X763406Y499483D01*
X760265Y501834D01*
X760256Y501837D01*
X760235Y501853D01*
X756792Y503734D01*
X756782Y503736D01*
X756759Y503748D01*
X753083Y505120D01*
X753074Y505120D01*
X753049Y505130D01*
X749215Y505964D01*
X749205Y505963D01*
X749180Y505969D01*
X745266Y506249D01*
X745257Y506247D01*
X745231Y506249D01*
X741317Y505969D01*
X741308Y505965D01*
X741282Y505964D01*
X737448Y505130D01*
X737439Y505125D01*
X737414Y505120D01*
X733737Y503748D01*
X733730Y503743D01*
X733705Y503734D01*
X730261Y501853D01*
X730255Y501846D01*
X730231Y501834D01*
X727090Y499483D01*
X727085Y499475D01*
X727064Y499459D01*
X724289Y496685D01*
X724284Y496676D01*
X724266Y496658D01*
X721914Y493517D01*
X721911Y493508D01*
X721895Y493487D01*
X720015Y490043D01*
X720013Y490034D01*
X720000Y490011D01*
X718629Y486335D01*
X718628Y486325D01*
X718619Y486301D01*
X717785Y482467D01*
X717785Y482457D01*
X717780Y482431D01*
X717500Y478518D01*
X717505Y478492D01*
X717501Y478467D01*
X717520Y478425D01*
X717529Y478381D01*
X717548Y478363D01*
X717558Y478339D01*
X717596Y478314D01*
X717628Y478282D01*
X717653Y478276D01*
X717675Y478262D01*
X717748Y478251D01*
X727748Y478251D01*
X727755Y478253D01*
G37*
G36*
X1628058Y478253D02*
X1628058Y478253D01*
X1628065Y478251D01*
X1628125Y478272D01*
X1628186Y478290D01*
X1628190Y478295D01*
X1628197Y478298D01*
X1628236Y478348D01*
X1628278Y478395D01*
X1628279Y478402D01*
X1628283Y478408D01*
X1628300Y478480D01*
X1628514Y481198D01*
X1629146Y483831D01*
X1630182Y486331D01*
X1631596Y488639D01*
X1633354Y490698D01*
X1635412Y492456D01*
X1637720Y493870D01*
X1640221Y494906D01*
X1642853Y495538D01*
X1645551Y495750D01*
X1648250Y495538D01*
X1650882Y494906D01*
X1653383Y493870D01*
X1655691Y492456D01*
X1657749Y490698D01*
X1659507Y488639D01*
X1660921Y486331D01*
X1661957Y483831D01*
X1662589Y481198D01*
X1662803Y478480D01*
X1662806Y478474D01*
X1662804Y478467D01*
X1662830Y478409D01*
X1662853Y478350D01*
X1662858Y478345D01*
X1662861Y478339D01*
X1662914Y478304D01*
X1662965Y478266D01*
X1662972Y478266D01*
X1662978Y478262D01*
X1663051Y478251D01*
X1673051Y478251D01*
X1673076Y478258D01*
X1673102Y478256D01*
X1673142Y478277D01*
X1673186Y478290D01*
X1673203Y478310D01*
X1673226Y478322D01*
X1673248Y478361D01*
X1673278Y478395D01*
X1673281Y478421D01*
X1673294Y478444D01*
X1673300Y478518D01*
X1673020Y482431D01*
X1673017Y482441D01*
X1673015Y482467D01*
X1672181Y486301D01*
X1672176Y486309D01*
X1672171Y486335D01*
X1670800Y490011D01*
X1670794Y490019D01*
X1670785Y490043D01*
X1668905Y493487D01*
X1668898Y493494D01*
X1668885Y493517D01*
X1666534Y496658D01*
X1666526Y496664D01*
X1666511Y496685D01*
X1663736Y499459D01*
X1663728Y499464D01*
X1663709Y499483D01*
X1660568Y501834D01*
X1660559Y501837D01*
X1660538Y501853D01*
X1657095Y503734D01*
X1657085Y503736D01*
X1657062Y503748D01*
X1653386Y505120D01*
X1653377Y505120D01*
X1653352Y505130D01*
X1649518Y505964D01*
X1649508Y505963D01*
X1649483Y505969D01*
X1645569Y506249D01*
X1645560Y506247D01*
X1645534Y506249D01*
X1641620Y505969D01*
X1641611Y505965D01*
X1641585Y505964D01*
X1637751Y505130D01*
X1637742Y505125D01*
X1637717Y505120D01*
X1634040Y503748D01*
X1634033Y503743D01*
X1634008Y503734D01*
X1630564Y501853D01*
X1630558Y501846D01*
X1630534Y501834D01*
X1627393Y499483D01*
X1627388Y499475D01*
X1627367Y499459D01*
X1624592Y496685D01*
X1624587Y496676D01*
X1624569Y496658D01*
X1622217Y493517D01*
X1622214Y493508D01*
X1622198Y493487D01*
X1620318Y490043D01*
X1620316Y490034D01*
X1620303Y490011D01*
X1618932Y486335D01*
X1618931Y486325D01*
X1618922Y486301D01*
X1618088Y482467D01*
X1618088Y482457D01*
X1618083Y482431D01*
X1617803Y478518D01*
X1617808Y478492D01*
X1617804Y478467D01*
X1617823Y478425D01*
X1617832Y478381D01*
X1617851Y478363D01*
X1617861Y478339D01*
X1617899Y478314D01*
X1617931Y478282D01*
X1617956Y478276D01*
X1617978Y478262D01*
X1618051Y478251D01*
X1628051Y478251D01*
X1628058Y478253D01*
G37*
G36*
X1729493Y192531D02*
X1729493Y192531D01*
X1729503Y192535D01*
X1729529Y192536D01*
X1733363Y193370D01*
X1733371Y193375D01*
X1733397Y193380D01*
X1737073Y194752D01*
X1737081Y194757D01*
X1737105Y194766D01*
X1740549Y196647D01*
X1740556Y196654D01*
X1740579Y196666D01*
X1743720Y199017D01*
X1743726Y199025D01*
X1743747Y199041D01*
X1746521Y201815D01*
X1746526Y201824D01*
X1746545Y201842D01*
X1748896Y204983D01*
X1748899Y204992D01*
X1748915Y205013D01*
X1750796Y208457D01*
X1750798Y208466D01*
X1750810Y208489D01*
X1752182Y212165D01*
X1752182Y212175D01*
X1752192Y212199D01*
X1753026Y216033D01*
X1753025Y216043D01*
X1753031Y216069D01*
X1753311Y219982D01*
X1753305Y220008D01*
X1753309Y220033D01*
X1753291Y220075D01*
X1753281Y220119D01*
X1753263Y220137D01*
X1753252Y220161D01*
X1753214Y220186D01*
X1753183Y220218D01*
X1753157Y220224D01*
X1753136Y220238D01*
X1753062Y220249D01*
X1743062Y220249D01*
X1743055Y220247D01*
X1743048Y220249D01*
X1742989Y220228D01*
X1742928Y220210D01*
X1742923Y220205D01*
X1742916Y220202D01*
X1742878Y220152D01*
X1742836Y220105D01*
X1742835Y220098D01*
X1742830Y220092D01*
X1742814Y220020D01*
X1742600Y217302D01*
X1741968Y214669D01*
X1740932Y212169D01*
X1739518Y209861D01*
X1737760Y207802D01*
X1735701Y206044D01*
X1733393Y204630D01*
X1730893Y203594D01*
X1728260Y202962D01*
X1725562Y202750D01*
X1722864Y202962D01*
X1720231Y203594D01*
X1717731Y204630D01*
X1715423Y206044D01*
X1713364Y207802D01*
X1711606Y209861D01*
X1710192Y212169D01*
X1709156Y214669D01*
X1708524Y217302D01*
X1708310Y220020D01*
X1708308Y220026D01*
X1708309Y220033D01*
X1708283Y220091D01*
X1708261Y220150D01*
X1708255Y220155D01*
X1708252Y220161D01*
X1708199Y220196D01*
X1708149Y220234D01*
X1708142Y220234D01*
X1708136Y220238D01*
X1708062Y220249D01*
X1698062Y220249D01*
X1698037Y220242D01*
X1698011Y220244D01*
X1697971Y220223D01*
X1697928Y220210D01*
X1697911Y220190D01*
X1697888Y220178D01*
X1697866Y220139D01*
X1697836Y220105D01*
X1697832Y220079D01*
X1697819Y220056D01*
X1697813Y219982D01*
X1698093Y216069D01*
X1698097Y216059D01*
X1698098Y216033D01*
X1698932Y212199D01*
X1698937Y212191D01*
X1698942Y212165D01*
X1700314Y208489D01*
X1700319Y208481D01*
X1700328Y208457D01*
X1702209Y205013D01*
X1702216Y205006D01*
X1702228Y204983D01*
X1704579Y201842D01*
X1704587Y201836D01*
X1704603Y201815D01*
X1707377Y199041D01*
X1707386Y199036D01*
X1707404Y199017D01*
X1710545Y196666D01*
X1710554Y196663D01*
X1710575Y196647D01*
X1714019Y194766D01*
X1714028Y194764D01*
X1714051Y194752D01*
X1717727Y193380D01*
X1717737Y193380D01*
X1717761Y193370D01*
X1721595Y192536D01*
X1721605Y192537D01*
X1721631Y192531D01*
X1725544Y192251D01*
X1725554Y192253D01*
X1725580Y192251D01*
X1729493Y192531D01*
G37*
G36*
X1054260Y192531D02*
X1054260Y192531D01*
X1054269Y192535D01*
X1054295Y192536D01*
X1058129Y193370D01*
X1058138Y193375D01*
X1058163Y193380D01*
X1061839Y194752D01*
X1061847Y194757D01*
X1061872Y194766D01*
X1065315Y196647D01*
X1065322Y196654D01*
X1065345Y196666D01*
X1068486Y199017D01*
X1068492Y199025D01*
X1068513Y199041D01*
X1071288Y201815D01*
X1071292Y201824D01*
X1071311Y201842D01*
X1073662Y204983D01*
X1073666Y204992D01*
X1073682Y205013D01*
X1075562Y208457D01*
X1075564Y208466D01*
X1075577Y208489D01*
X1076948Y212165D01*
X1076949Y212175D01*
X1076958Y212199D01*
X1077792Y216033D01*
X1077791Y216043D01*
X1077797Y216069D01*
X1078077Y219982D01*
X1078072Y220008D01*
X1078075Y220033D01*
X1078057Y220075D01*
X1078048Y220119D01*
X1078029Y220137D01*
X1078019Y220161D01*
X1077981Y220186D01*
X1077949Y220218D01*
X1077924Y220224D01*
X1077902Y220238D01*
X1077828Y220249D01*
X1067828Y220249D01*
X1067821Y220247D01*
X1067814Y220249D01*
X1067755Y220228D01*
X1067694Y220210D01*
X1067689Y220205D01*
X1067683Y220202D01*
X1067644Y220152D01*
X1067602Y220105D01*
X1067601Y220098D01*
X1067597Y220092D01*
X1067580Y220020D01*
X1067366Y217302D01*
X1066734Y214669D01*
X1065698Y212169D01*
X1064284Y209861D01*
X1062526Y207802D01*
X1060468Y206044D01*
X1058160Y204630D01*
X1055659Y203594D01*
X1053027Y202962D01*
X1050328Y202750D01*
X1047630Y202962D01*
X1044998Y203594D01*
X1042497Y204630D01*
X1040189Y206044D01*
X1038131Y207802D01*
X1036373Y209861D01*
X1034959Y212169D01*
X1033923Y214669D01*
X1033291Y217302D01*
X1033077Y220020D01*
X1033074Y220026D01*
X1033075Y220033D01*
X1033050Y220091D01*
X1033027Y220150D01*
X1033022Y220155D01*
X1033019Y220161D01*
X1032966Y220196D01*
X1032915Y220234D01*
X1032908Y220234D01*
X1032902Y220238D01*
X1032828Y220249D01*
X1022828Y220249D01*
X1022803Y220242D01*
X1022777Y220244D01*
X1022738Y220223D01*
X1022694Y220210D01*
X1022677Y220190D01*
X1022654Y220178D01*
X1022632Y220139D01*
X1022602Y220105D01*
X1022598Y220079D01*
X1022586Y220056D01*
X1022580Y219982D01*
X1022860Y216069D01*
X1022863Y216059D01*
X1022865Y216033D01*
X1023699Y212199D01*
X1023703Y212191D01*
X1023709Y212165D01*
X1025080Y208489D01*
X1025086Y208481D01*
X1025095Y208457D01*
X1026975Y205013D01*
X1026982Y205006D01*
X1026994Y204983D01*
X1029346Y201842D01*
X1029354Y201836D01*
X1029369Y201815D01*
X1032144Y199041D01*
X1032152Y199036D01*
X1032170Y199017D01*
X1035311Y196666D01*
X1035321Y196663D01*
X1035341Y196647D01*
X1038785Y194766D01*
X1038794Y194764D01*
X1038817Y194752D01*
X1042494Y193380D01*
X1042503Y193380D01*
X1042528Y193370D01*
X1046362Y192536D01*
X1046371Y192537D01*
X1046397Y192531D01*
X1050311Y192251D01*
X1050320Y192253D01*
X1050346Y192251D01*
X1054260Y192531D01*
G37*
G36*
X829165Y192531D02*
X829165Y192531D01*
X829174Y192535D01*
X829200Y192536D01*
X833034Y193370D01*
X833043Y193375D01*
X833068Y193380D01*
X836745Y194752D01*
X836752Y194757D01*
X836777Y194766D01*
X840221Y196647D01*
X840227Y196654D01*
X840251Y196666D01*
X843392Y199017D01*
X843397Y199025D01*
X843419Y199041D01*
X846193Y201815D01*
X846198Y201824D01*
X846216Y201842D01*
X848568Y204983D01*
X848571Y204992D01*
X848587Y205013D01*
X850467Y208457D01*
X850469Y208466D01*
X850482Y208489D01*
X851853Y212165D01*
X851854Y212175D01*
X851863Y212199D01*
X852697Y216033D01*
X852697Y216043D01*
X852702Y216069D01*
X852982Y219982D01*
X852977Y220008D01*
X852981Y220033D01*
X852962Y220075D01*
X852953Y220119D01*
X852934Y220137D01*
X852924Y220161D01*
X852886Y220186D01*
X852854Y220218D01*
X852829Y220224D01*
X852807Y220238D01*
X852734Y220249D01*
X842734Y220249D01*
X842727Y220247D01*
X842720Y220249D01*
X842660Y220228D01*
X842599Y220210D01*
X842595Y220205D01*
X842588Y220202D01*
X842549Y220152D01*
X842507Y220105D01*
X842506Y220098D01*
X842502Y220092D01*
X842485Y220020D01*
X842271Y217302D01*
X841639Y214669D01*
X840603Y212169D01*
X839189Y209861D01*
X837431Y207802D01*
X835373Y206044D01*
X833065Y204630D01*
X830564Y203594D01*
X827932Y202962D01*
X825234Y202750D01*
X822535Y202962D01*
X819903Y203594D01*
X817402Y204630D01*
X815094Y206044D01*
X813036Y207802D01*
X811278Y209861D01*
X809864Y212169D01*
X808828Y214669D01*
X808196Y217302D01*
X807982Y220020D01*
X807980Y220026D01*
X807981Y220033D01*
X807955Y220091D01*
X807932Y220150D01*
X807927Y220155D01*
X807924Y220161D01*
X807871Y220196D01*
X807820Y220234D01*
X807813Y220234D01*
X807807Y220238D01*
X807734Y220249D01*
X797734Y220249D01*
X797709Y220242D01*
X797683Y220244D01*
X797643Y220223D01*
X797599Y220210D01*
X797582Y220190D01*
X797559Y220178D01*
X797537Y220139D01*
X797507Y220105D01*
X797504Y220079D01*
X797491Y220056D01*
X797485Y219982D01*
X797765Y216069D01*
X797768Y216059D01*
X797770Y216033D01*
X798604Y212199D01*
X798609Y212191D01*
X798614Y212165D01*
X799985Y208489D01*
X799991Y208481D01*
X800000Y208457D01*
X801880Y205013D01*
X801887Y205006D01*
X801900Y204983D01*
X804251Y201842D01*
X804259Y201836D01*
X804274Y201815D01*
X807049Y199041D01*
X807057Y199036D01*
X807076Y199017D01*
X810217Y196666D01*
X810226Y196663D01*
X810247Y196647D01*
X813690Y194766D01*
X813700Y194764D01*
X813723Y194752D01*
X817399Y193380D01*
X817409Y193380D01*
X817433Y193370D01*
X821267Y192536D01*
X821277Y192537D01*
X821302Y192531D01*
X825216Y192251D01*
X825225Y192253D01*
X825251Y192251D01*
X829165Y192531D01*
G37*
G36*
X1279329Y192531D02*
X1279329Y192531D01*
X1279338Y192535D01*
X1279364Y192536D01*
X1283198Y193370D01*
X1283207Y193375D01*
X1283233Y193380D01*
X1286909Y194752D01*
X1286917Y194757D01*
X1286941Y194766D01*
X1290385Y196647D01*
X1290392Y196654D01*
X1290415Y196666D01*
X1293556Y199017D01*
X1293562Y199025D01*
X1293583Y199041D01*
X1296357Y201815D01*
X1296362Y201824D01*
X1296380Y201842D01*
X1298732Y204983D01*
X1298735Y204992D01*
X1298751Y205013D01*
X1300631Y208457D01*
X1300634Y208466D01*
X1300646Y208489D01*
X1302017Y212165D01*
X1302018Y212175D01*
X1302027Y212199D01*
X1302861Y216033D01*
X1302861Y216043D01*
X1302867Y216069D01*
X1303146Y219982D01*
X1303141Y220008D01*
X1303145Y220033D01*
X1303126Y220075D01*
X1303117Y220119D01*
X1303099Y220137D01*
X1303088Y220161D01*
X1303050Y220186D01*
X1303018Y220218D01*
X1302993Y220224D01*
X1302971Y220238D01*
X1302898Y220249D01*
X1292898Y220249D01*
X1292891Y220247D01*
X1292884Y220249D01*
X1292825Y220228D01*
X1292764Y220210D01*
X1292759Y220205D01*
X1292752Y220202D01*
X1292713Y220152D01*
X1292672Y220105D01*
X1292671Y220098D01*
X1292666Y220092D01*
X1292649Y220020D01*
X1292435Y217302D01*
X1291804Y214669D01*
X1290768Y212169D01*
X1289353Y209861D01*
X1287595Y207802D01*
X1285537Y206044D01*
X1283229Y204630D01*
X1280728Y203594D01*
X1278096Y202962D01*
X1275398Y202750D01*
X1272699Y202962D01*
X1270067Y203594D01*
X1267566Y204630D01*
X1265259Y206044D01*
X1263200Y207802D01*
X1261442Y209861D01*
X1260028Y212169D01*
X1258992Y214669D01*
X1258360Y217302D01*
X1258146Y220020D01*
X1258144Y220026D01*
X1258145Y220033D01*
X1258119Y220091D01*
X1258097Y220150D01*
X1258091Y220155D01*
X1258088Y220161D01*
X1258035Y220196D01*
X1257985Y220234D01*
X1257977Y220234D01*
X1257971Y220238D01*
X1257898Y220249D01*
X1247898Y220249D01*
X1247873Y220242D01*
X1247847Y220244D01*
X1247807Y220223D01*
X1247764Y220210D01*
X1247746Y220190D01*
X1247724Y220178D01*
X1247701Y220139D01*
X1247672Y220105D01*
X1247668Y220079D01*
X1247655Y220056D01*
X1247649Y219982D01*
X1247929Y216069D01*
X1247932Y216059D01*
X1247934Y216033D01*
X1248768Y212199D01*
X1248773Y212191D01*
X1248778Y212165D01*
X1250149Y208489D01*
X1250155Y208481D01*
X1250164Y208457D01*
X1252045Y205013D01*
X1252051Y205006D01*
X1252064Y204983D01*
X1254415Y201842D01*
X1254423Y201836D01*
X1254438Y201815D01*
X1257213Y199041D01*
X1257221Y199036D01*
X1257240Y199017D01*
X1260381Y196666D01*
X1260390Y196663D01*
X1260411Y196647D01*
X1263854Y194766D01*
X1263864Y194764D01*
X1263887Y194752D01*
X1267563Y193380D01*
X1267573Y193380D01*
X1267597Y193370D01*
X1271431Y192536D01*
X1271441Y192537D01*
X1271466Y192531D01*
X1275380Y192251D01*
X1275390Y192253D01*
X1275416Y192251D01*
X1279329Y192531D01*
G37*
G36*
X1504424Y192531D02*
X1504424Y192531D01*
X1504433Y192535D01*
X1504459Y192536D01*
X1508293Y193370D01*
X1508302Y193375D01*
X1508327Y193380D01*
X1512004Y194752D01*
X1512011Y194757D01*
X1512036Y194766D01*
X1515480Y196647D01*
X1515486Y196654D01*
X1515510Y196666D01*
X1518651Y199017D01*
X1518656Y199025D01*
X1518678Y199041D01*
X1521452Y201815D01*
X1521457Y201824D01*
X1521475Y201842D01*
X1523827Y204983D01*
X1523830Y204992D01*
X1523846Y205013D01*
X1525726Y208457D01*
X1525728Y208466D01*
X1525741Y208489D01*
X1527112Y212165D01*
X1527113Y212175D01*
X1527122Y212199D01*
X1527956Y216033D01*
X1527956Y216043D01*
X1527961Y216069D01*
X1528241Y219982D01*
X1528236Y220008D01*
X1528240Y220033D01*
X1528221Y220075D01*
X1528212Y220119D01*
X1528193Y220137D01*
X1528183Y220161D01*
X1528145Y220186D01*
X1528113Y220218D01*
X1528088Y220224D01*
X1528066Y220238D01*
X1527993Y220249D01*
X1517993Y220249D01*
X1517986Y220247D01*
X1517979Y220249D01*
X1517919Y220228D01*
X1517858Y220210D01*
X1517854Y220205D01*
X1517847Y220202D01*
X1517808Y220152D01*
X1517766Y220105D01*
X1517765Y220098D01*
X1517761Y220092D01*
X1517744Y220020D01*
X1517530Y217302D01*
X1516898Y214669D01*
X1515862Y212169D01*
X1514448Y209861D01*
X1512690Y207802D01*
X1510632Y206044D01*
X1508324Y204630D01*
X1505823Y203594D01*
X1503191Y202962D01*
X1500493Y202750D01*
X1497794Y202962D01*
X1495162Y203594D01*
X1492661Y204630D01*
X1490353Y206044D01*
X1488295Y207802D01*
X1486537Y209861D01*
X1485123Y212169D01*
X1484087Y214669D01*
X1483455Y217302D01*
X1483241Y220020D01*
X1483239Y220026D01*
X1483240Y220033D01*
X1483214Y220091D01*
X1483191Y220150D01*
X1483186Y220155D01*
X1483183Y220161D01*
X1483130Y220196D01*
X1483079Y220234D01*
X1483072Y220234D01*
X1483066Y220238D01*
X1482993Y220249D01*
X1472993Y220249D01*
X1472968Y220242D01*
X1472942Y220244D01*
X1472902Y220223D01*
X1472858Y220210D01*
X1472841Y220190D01*
X1472818Y220178D01*
X1472796Y220139D01*
X1472766Y220105D01*
X1472763Y220079D01*
X1472750Y220056D01*
X1472744Y219982D01*
X1473024Y216069D01*
X1473027Y216059D01*
X1473029Y216033D01*
X1473863Y212199D01*
X1473868Y212191D01*
X1473873Y212165D01*
X1475244Y208489D01*
X1475250Y208481D01*
X1475259Y208457D01*
X1477139Y205013D01*
X1477146Y205006D01*
X1477159Y204983D01*
X1479510Y201842D01*
X1479518Y201836D01*
X1479533Y201815D01*
X1482308Y199041D01*
X1482316Y199036D01*
X1482335Y199017D01*
X1485476Y196666D01*
X1485485Y196663D01*
X1485506Y196647D01*
X1488949Y194766D01*
X1488959Y194764D01*
X1488982Y194752D01*
X1492658Y193380D01*
X1492668Y193380D01*
X1492692Y193370D01*
X1496526Y192536D01*
X1496536Y192537D01*
X1496561Y192531D01*
X1500475Y192251D01*
X1500484Y192253D01*
X1500510Y192251D01*
X1504424Y192531D01*
G37*
G36*
X604096Y192531D02*
X604096Y192531D01*
X604105Y192535D01*
X604131Y192536D01*
X607965Y193370D01*
X607973Y193375D01*
X607999Y193380D01*
X611675Y194752D01*
X611683Y194757D01*
X611708Y194766D01*
X615151Y196647D01*
X615158Y196654D01*
X615181Y196666D01*
X618322Y199017D01*
X618328Y199025D01*
X618349Y199041D01*
X621124Y201815D01*
X621128Y201824D01*
X621147Y201842D01*
X623498Y204983D01*
X623502Y204992D01*
X623517Y205013D01*
X625398Y208457D01*
X625400Y208466D01*
X625413Y208489D01*
X626784Y212165D01*
X626784Y212175D01*
X626794Y212199D01*
X627628Y216033D01*
X627627Y216043D01*
X627633Y216069D01*
X627913Y219982D01*
X627907Y220008D01*
X627911Y220033D01*
X627893Y220075D01*
X627883Y220119D01*
X627865Y220137D01*
X627854Y220161D01*
X627817Y220186D01*
X627785Y220218D01*
X627759Y220224D01*
X627738Y220238D01*
X627664Y220249D01*
X617664Y220249D01*
X617657Y220247D01*
X617650Y220249D01*
X617591Y220228D01*
X617530Y220210D01*
X617525Y220205D01*
X617518Y220202D01*
X617480Y220152D01*
X617438Y220105D01*
X617437Y220098D01*
X617433Y220092D01*
X617416Y220020D01*
X617202Y217302D01*
X616570Y214669D01*
X615534Y212169D01*
X614120Y209861D01*
X612362Y207802D01*
X610304Y206044D01*
X607996Y204630D01*
X605495Y203594D01*
X602863Y202962D01*
X600164Y202750D01*
X597466Y202962D01*
X594834Y203594D01*
X592333Y204630D01*
X590025Y206044D01*
X587967Y207802D01*
X586209Y209861D01*
X584794Y212169D01*
X583759Y214669D01*
X583127Y217302D01*
X582913Y220020D01*
X582910Y220026D01*
X582911Y220033D01*
X582885Y220091D01*
X582863Y220150D01*
X582857Y220155D01*
X582854Y220161D01*
X582802Y220196D01*
X582751Y220234D01*
X582744Y220234D01*
X582738Y220238D01*
X582664Y220249D01*
X572664Y220249D01*
X572639Y220242D01*
X572613Y220244D01*
X572573Y220223D01*
X572530Y220210D01*
X572513Y220190D01*
X572490Y220178D01*
X572468Y220139D01*
X572438Y220105D01*
X572434Y220079D01*
X572421Y220056D01*
X572416Y219982D01*
X572695Y216069D01*
X572699Y216059D01*
X572701Y216033D01*
X573535Y212199D01*
X573539Y212191D01*
X573545Y212165D01*
X574916Y208489D01*
X574922Y208481D01*
X574931Y208457D01*
X576811Y205013D01*
X576818Y205006D01*
X576830Y204983D01*
X579182Y201842D01*
X579189Y201836D01*
X579205Y201815D01*
X581979Y199041D01*
X581988Y199036D01*
X582006Y199017D01*
X585147Y196666D01*
X585156Y196663D01*
X585177Y196647D01*
X588621Y194766D01*
X588630Y194764D01*
X588653Y194752D01*
X592329Y193380D01*
X592339Y193380D01*
X592364Y193370D01*
X596198Y192536D01*
X596207Y192537D01*
X596233Y192531D01*
X600146Y192251D01*
X600156Y192253D01*
X600182Y192251D01*
X604096Y192531D01*
G37*
G36*
X379001Y192531D02*
X379001Y192531D01*
X379010Y192535D01*
X379036Y192536D01*
X382870Y193370D01*
X382879Y193375D01*
X382904Y193380D01*
X386580Y194752D01*
X386588Y194757D01*
X386613Y194766D01*
X390056Y196647D01*
X390063Y196654D01*
X390086Y196666D01*
X393227Y199017D01*
X393233Y199025D01*
X393254Y199041D01*
X396029Y201815D01*
X396033Y201824D01*
X396052Y201842D01*
X398403Y204983D01*
X398407Y204992D01*
X398423Y205013D01*
X400303Y208457D01*
X400305Y208466D01*
X400318Y208489D01*
X401689Y212165D01*
X401690Y212175D01*
X401699Y212199D01*
X402533Y216033D01*
X402532Y216043D01*
X402538Y216069D01*
X402818Y219982D01*
X402813Y220008D01*
X402816Y220033D01*
X402798Y220075D01*
X402789Y220119D01*
X402770Y220137D01*
X402760Y220161D01*
X402722Y220186D01*
X402690Y220218D01*
X402665Y220224D01*
X402643Y220238D01*
X402569Y220249D01*
X392569Y220249D01*
X392562Y220247D01*
X392555Y220249D01*
X392496Y220228D01*
X392435Y220210D01*
X392430Y220205D01*
X392424Y220202D01*
X392385Y220152D01*
X392343Y220105D01*
X392342Y220098D01*
X392338Y220092D01*
X392321Y220020D01*
X392107Y217302D01*
X391475Y214669D01*
X390439Y212169D01*
X389025Y209861D01*
X387267Y207802D01*
X385209Y206044D01*
X382901Y204630D01*
X380400Y203594D01*
X377768Y202962D01*
X375069Y202750D01*
X372371Y202962D01*
X369739Y203594D01*
X367238Y204630D01*
X364930Y206044D01*
X362872Y207802D01*
X361114Y209861D01*
X359700Y212169D01*
X358664Y214669D01*
X358032Y217302D01*
X357818Y220020D01*
X357815Y220026D01*
X357816Y220033D01*
X357791Y220091D01*
X357768Y220150D01*
X357763Y220155D01*
X357760Y220161D01*
X357707Y220196D01*
X357656Y220234D01*
X357649Y220234D01*
X357643Y220238D01*
X357569Y220249D01*
X347569Y220249D01*
X347544Y220242D01*
X347518Y220244D01*
X347479Y220223D01*
X347435Y220210D01*
X347418Y220190D01*
X347395Y220178D01*
X347373Y220139D01*
X347343Y220105D01*
X347339Y220079D01*
X347327Y220056D01*
X347321Y219982D01*
X347601Y216069D01*
X347604Y216059D01*
X347606Y216033D01*
X348440Y212199D01*
X348444Y212191D01*
X348450Y212165D01*
X349821Y208489D01*
X349827Y208481D01*
X349836Y208457D01*
X351716Y205013D01*
X351723Y205006D01*
X351735Y204983D01*
X354087Y201842D01*
X354095Y201836D01*
X354110Y201815D01*
X356885Y199041D01*
X356893Y199036D01*
X356911Y199017D01*
X360052Y196666D01*
X360062Y196663D01*
X360082Y196647D01*
X363526Y194766D01*
X363535Y194764D01*
X363558Y194752D01*
X367235Y193380D01*
X367244Y193380D01*
X367269Y193370D01*
X371103Y192536D01*
X371112Y192537D01*
X371138Y192531D01*
X375052Y192251D01*
X375061Y192253D01*
X375087Y192251D01*
X379001Y192531D01*
G37*
G36*
X153931Y192531D02*
X153931Y192531D01*
X153941Y192535D01*
X153967Y192536D01*
X157801Y193370D01*
X157809Y193375D01*
X157835Y193380D01*
X161511Y194752D01*
X161519Y194757D01*
X161543Y194766D01*
X164987Y196647D01*
X164994Y196654D01*
X165017Y196666D01*
X168158Y199017D01*
X168164Y199025D01*
X168185Y199041D01*
X170959Y201815D01*
X170964Y201824D01*
X170983Y201842D01*
X173334Y204983D01*
X173337Y204992D01*
X173353Y205013D01*
X175234Y208457D01*
X175236Y208466D01*
X175248Y208489D01*
X176620Y212165D01*
X176620Y212175D01*
X176630Y212199D01*
X177464Y216033D01*
X177463Y216043D01*
X177469Y216069D01*
X177749Y219982D01*
X177743Y220008D01*
X177747Y220033D01*
X177729Y220075D01*
X177719Y220119D01*
X177701Y220137D01*
X177690Y220161D01*
X177652Y220186D01*
X177621Y220218D01*
X177595Y220224D01*
X177574Y220238D01*
X177500Y220249D01*
X167500Y220249D01*
X167493Y220247D01*
X167486Y220249D01*
X167427Y220228D01*
X167366Y220210D01*
X167361Y220205D01*
X167354Y220202D01*
X167316Y220152D01*
X167274Y220105D01*
X167273Y220098D01*
X167268Y220092D01*
X167252Y220020D01*
X167038Y217302D01*
X166406Y214669D01*
X165370Y212169D01*
X163956Y209861D01*
X162198Y207802D01*
X160139Y206044D01*
X157831Y204630D01*
X155331Y203594D01*
X152698Y202962D01*
X150000Y202750D01*
X147302Y202962D01*
X144669Y203594D01*
X142169Y204630D01*
X139861Y206044D01*
X137802Y207802D01*
X136044Y209861D01*
X134630Y212169D01*
X133594Y214669D01*
X132962Y217302D01*
X132748Y220020D01*
X132746Y220026D01*
X132747Y220033D01*
X132721Y220091D01*
X132699Y220150D01*
X132693Y220155D01*
X132690Y220161D01*
X132637Y220196D01*
X132587Y220234D01*
X132580Y220234D01*
X132574Y220238D01*
X132500Y220249D01*
X122500Y220249D01*
X122475Y220242D01*
X122449Y220244D01*
X122409Y220223D01*
X122366Y220210D01*
X122349Y220190D01*
X122326Y220178D01*
X122304Y220139D01*
X122274Y220105D01*
X122270Y220079D01*
X122257Y220056D01*
X122251Y219982D01*
X122531Y216069D01*
X122535Y216059D01*
X122536Y216033D01*
X123370Y212199D01*
X123375Y212191D01*
X123380Y212165D01*
X124752Y208489D01*
X124757Y208481D01*
X124766Y208457D01*
X126647Y205013D01*
X126654Y205006D01*
X126666Y204983D01*
X129017Y201842D01*
X129025Y201836D01*
X129041Y201815D01*
X131815Y199041D01*
X131824Y199036D01*
X131842Y199017D01*
X134983Y196666D01*
X134992Y196663D01*
X135013Y196647D01*
X138457Y194766D01*
X138466Y194764D01*
X138489Y194752D01*
X142165Y193380D01*
X142175Y193380D01*
X142199Y193370D01*
X146033Y192536D01*
X146043Y192537D01*
X146069Y192531D01*
X149982Y192251D01*
X149992Y192253D01*
X150018Y192251D01*
X153931Y192531D01*
G37*
D10*
X41990Y114232D03*
X51990Y114232D03*
X143450Y171250D03*
X143450Y181250D03*
X78260Y171350D03*
X78260Y181350D03*
X51990Y103984D03*
X41990Y103984D03*
X49680Y161980D03*
X49680Y171980D03*
X153920Y171250D03*
X153920Y181250D03*
X152810Y78730D03*
X152810Y68730D03*
X102400Y55600D03*
X102400Y45600D03*
X53260Y58420D03*
X43260Y58420D03*
X59070Y171330D03*
X69070Y171330D03*
X87560Y181330D03*
X87560Y171330D03*
X127710Y171330D03*
X127710Y181330D03*
X69070Y181390D03*
X59070Y181390D03*
X22940Y58420D03*
X32940Y58420D03*
D11*
X202130Y197170D02*
X202130Y204150D01*
X209110Y204150D01*
X209110Y197170D01*
X202130Y197170D01*
X202130Y201970D02*
X209110Y201970D01*
X184590Y204150D02*
X184590Y197170D01*
X184590Y204150D02*
X191570Y204150D01*
X191570Y197170D01*
X184590Y197170D01*
X184590Y201970D02*
X191570Y201970D01*
D12*
X202500Y12750D03*
X197500Y12750D03*
X192500Y12750D03*
X187500Y12750D03*
X182500Y12750D03*
X177500Y12750D03*
X172500Y12750D03*
X167500Y12750D03*
X162500Y12750D03*
X157500Y12750D03*
X152500Y12750D03*
X147500Y12750D03*
X122500Y12750D03*
X117500Y12750D03*
X112500Y12750D03*
X107500Y12750D03*
X102500Y12750D03*
X97500Y12750D03*
X92500Y12750D03*
X87500Y12750D03*
X82500Y12750D03*
X77500Y12750D03*
X72500Y12750D03*
X67500Y12750D03*
X62500Y12750D03*
X57500Y12750D03*
X52500Y12750D03*
X47500Y12750D03*
X42500Y12750D03*
X37500Y12750D03*
X32500Y12750D03*
X27500Y12750D03*
X22500Y12750D03*
X17500Y12750D03*
D13*
X129000Y210000D03*
X171000Y210000D03*
X150000Y197000D03*
D10*
X51990Y93482D03*
X41990Y93482D03*
X69070Y162170D03*
X59070Y162170D03*
X190580Y175260D03*
X200580Y175260D03*
X92910Y45610D03*
X92910Y55610D03*
D14*
X80500Y132000D03*
X80500Y128000D03*
X80500Y124000D03*
X80500Y120000D03*
X80500Y116000D03*
X80500Y112000D03*
X80500Y108000D03*
X80500Y104000D03*
X80500Y100000D03*
X80500Y96000D03*
X80500Y92000D03*
X80500Y88000D03*
D15*
X88000Y80500D03*
X92000Y80500D03*
X96000Y80500D03*
X100000Y80500D03*
X104000Y80500D03*
X108000Y80500D03*
X112000Y80500D03*
X116000Y80500D03*
X120000Y80500D03*
X124000Y80500D03*
X128000Y80500D03*
X132000Y80500D03*
D14*
X139500Y88000D03*
X139500Y92000D03*
X139500Y96000D03*
X139500Y100000D03*
X139500Y104000D03*
X139500Y108000D03*
X139500Y112000D03*
X139500Y116000D03*
X139500Y120000D03*
X139500Y124000D03*
X139500Y128000D03*
X139500Y132000D03*
D15*
X132000Y139500D03*
X128000Y139500D03*
X124000Y139500D03*
X120000Y139500D03*
X116000Y139500D03*
X112000Y139500D03*
X108000Y139500D03*
X104000Y139500D03*
X100000Y139500D03*
X96000Y139500D03*
X92000Y139500D03*
X88000Y139500D03*
D16*
X110000Y110000D03*
D17*
X116120Y183530D03*
X99120Y183530D03*
X99120Y169530D03*
X116120Y169530D03*
D18*
X26010Y73330D03*
X51010Y73330D03*
D10*
X47250Y128260D03*
X57250Y128260D03*
D19*
X6140Y50000D03*
X213230Y213030D03*
D20*
X10160Y127854D03*
X10160Y202854D03*
D10*
X38100Y128096D03*
X38100Y138096D03*
X66294Y128350D03*
X66294Y138350D03*
X267059Y114232D03*
X277059Y114232D03*
X368519Y171250D03*
X368519Y181250D03*
X303329Y171350D03*
X303329Y181350D03*
X277059Y103984D03*
X267059Y103984D03*
X274749Y161980D03*
X274749Y171980D03*
X378989Y171250D03*
X378989Y181250D03*
X377879Y78730D03*
X377879Y68730D03*
X327469Y55600D03*
X327469Y45600D03*
X278329Y58420D03*
X268329Y58420D03*
X284139Y171330D03*
X294139Y171330D03*
X312629Y181330D03*
X312629Y171330D03*
X352779Y171330D03*
X352779Y181330D03*
X294139Y181390D03*
X284139Y181390D03*
X248009Y58420D03*
X258009Y58420D03*
D11*
X427199Y197170D02*
X427199Y204150D01*
X434179Y204150D01*
X434179Y197170D01*
X427199Y197170D01*
X427199Y201970D02*
X434179Y201970D01*
X409659Y204150D02*
X409659Y197170D01*
X409659Y204150D02*
X416639Y204150D01*
X416639Y197170D01*
X409659Y197170D01*
X409659Y201970D02*
X416639Y201970D01*
D12*
X427569Y12750D03*
X422569Y12750D03*
X417569Y12750D03*
X412569Y12750D03*
X407569Y12750D03*
X402569Y12750D03*
X397569Y12750D03*
X392569Y12750D03*
X387569Y12750D03*
X382569Y12750D03*
X377569Y12750D03*
X372569Y12750D03*
X347569Y12750D03*
X342569Y12750D03*
X337569Y12750D03*
X332569Y12750D03*
X327569Y12750D03*
X322569Y12750D03*
X317569Y12750D03*
X312569Y12750D03*
X307569Y12750D03*
X302569Y12750D03*
X297569Y12750D03*
X292569Y12750D03*
X287569Y12750D03*
X282569Y12750D03*
X277569Y12750D03*
X272569Y12750D03*
X267569Y12750D03*
X262569Y12750D03*
X257569Y12750D03*
X252569Y12750D03*
X247569Y12750D03*
X242569Y12750D03*
D13*
X354069Y210000D03*
X396069Y210000D03*
X375069Y197000D03*
D10*
X277059Y93482D03*
X267059Y93482D03*
X294139Y162170D03*
X284139Y162170D03*
X415649Y175260D03*
X425649Y175260D03*
X317979Y45610D03*
X317979Y55610D03*
D14*
X305569Y132000D03*
X305569Y128000D03*
X305569Y124000D03*
X305569Y120000D03*
X305569Y116000D03*
X305569Y112000D03*
X305569Y108000D03*
X305569Y104000D03*
X305569Y100000D03*
X305569Y96000D03*
X305569Y92000D03*
X305569Y88000D03*
D15*
X313069Y80500D03*
X317069Y80500D03*
X321069Y80500D03*
X325069Y80500D03*
X329069Y80500D03*
X333069Y80500D03*
X337069Y80500D03*
X341069Y80500D03*
X345069Y80500D03*
X349069Y80500D03*
X353069Y80500D03*
X357069Y80500D03*
D14*
X364569Y88000D03*
X364569Y92000D03*
X364569Y96000D03*
X364569Y100000D03*
X364569Y104000D03*
X364569Y108000D03*
X364569Y112000D03*
X364569Y116000D03*
X364569Y120000D03*
X364569Y124000D03*
X364569Y128000D03*
X364569Y132000D03*
D15*
X357069Y139500D03*
X353069Y139500D03*
X349069Y139500D03*
X345069Y139500D03*
X341069Y139500D03*
X337069Y139500D03*
X333069Y139500D03*
X329069Y139500D03*
X325069Y139500D03*
X321069Y139500D03*
X317069Y139500D03*
X313069Y139500D03*
D16*
X335069Y110000D03*
D17*
X341189Y183530D03*
X324189Y183530D03*
X324189Y169530D03*
X341189Y169530D03*
D18*
X251079Y73330D03*
X276079Y73330D03*
D10*
X272319Y128260D03*
X282319Y128260D03*
D19*
X231209Y50000D03*
X438299Y213030D03*
D20*
X235229Y127854D03*
X235229Y202854D03*
D10*
X263169Y128096D03*
X263169Y138096D03*
X291363Y128350D03*
X291363Y138350D03*
X492154Y114232D03*
X502154Y114232D03*
X593614Y171250D03*
X593614Y181250D03*
X528424Y171350D03*
X528424Y181350D03*
X502154Y103984D03*
X492154Y103984D03*
X499844Y161980D03*
X499844Y171980D03*
X604084Y171250D03*
X604084Y181250D03*
X602974Y78730D03*
X602974Y68730D03*
X552564Y55600D03*
X552564Y45600D03*
X503424Y58420D03*
X493424Y58420D03*
X509234Y171330D03*
X519234Y171330D03*
X537724Y181330D03*
X537724Y171330D03*
X577874Y171330D03*
X577874Y181330D03*
X519234Y181390D03*
X509234Y181390D03*
X473104Y58420D03*
X483104Y58420D03*
D11*
X652294Y197170D02*
X652294Y204150D01*
X659274Y204150D01*
X659274Y197170D01*
X652294Y197170D01*
X652294Y201970D02*
X659274Y201970D01*
X634754Y204150D02*
X634754Y197170D01*
X634754Y204150D02*
X641734Y204150D01*
X641734Y197170D01*
X634754Y197170D01*
X634754Y201970D02*
X641734Y201970D01*
D12*
X652664Y12750D03*
X647664Y12750D03*
X642664Y12750D03*
X637664Y12750D03*
X632664Y12750D03*
X627664Y12750D03*
X622664Y12750D03*
X617664Y12750D03*
X612664Y12750D03*
X607664Y12750D03*
X602664Y12750D03*
X597664Y12750D03*
X572664Y12750D03*
X567664Y12750D03*
X562664Y12750D03*
X557664Y12750D03*
X552664Y12750D03*
X547664Y12750D03*
X542664Y12750D03*
X537664Y12750D03*
X532664Y12750D03*
X527664Y12750D03*
X522664Y12750D03*
X517664Y12750D03*
X512664Y12750D03*
X507664Y12750D03*
X502664Y12750D03*
X497664Y12750D03*
X492664Y12750D03*
X487664Y12750D03*
X482664Y12750D03*
X477664Y12750D03*
X472664Y12750D03*
X467664Y12750D03*
D13*
X579164Y210000D03*
X621164Y210000D03*
X600164Y197000D03*
D10*
X502154Y93482D03*
X492154Y93482D03*
X519234Y162170D03*
X509234Y162170D03*
X640744Y175260D03*
X650744Y175260D03*
X543074Y45610D03*
X543074Y55610D03*
D14*
X530664Y132000D03*
X530664Y128000D03*
X530664Y124000D03*
X530664Y120000D03*
X530664Y116000D03*
X530664Y112000D03*
X530664Y108000D03*
X530664Y104000D03*
X530664Y100000D03*
X530664Y96000D03*
X530664Y92000D03*
X530664Y88000D03*
D15*
X538164Y80500D03*
X542164Y80500D03*
X546164Y80500D03*
X550164Y80500D03*
X554164Y80500D03*
X558164Y80500D03*
X562164Y80500D03*
X566164Y80500D03*
X570164Y80500D03*
X574164Y80500D03*
X578164Y80500D03*
X582164Y80500D03*
D14*
X589664Y88000D03*
X589664Y92000D03*
X589664Y96000D03*
X589664Y100000D03*
X589664Y104000D03*
X589664Y108000D03*
X589664Y112000D03*
X589664Y116000D03*
X589664Y120000D03*
X589664Y124000D03*
X589664Y128000D03*
X589664Y132000D03*
D15*
X582164Y139500D03*
X578164Y139500D03*
X574164Y139500D03*
X570164Y139500D03*
X566164Y139500D03*
X562164Y139500D03*
X558164Y139500D03*
X554164Y139500D03*
X550164Y139500D03*
X546164Y139500D03*
X542164Y139500D03*
X538164Y139500D03*
D16*
X560164Y110000D03*
D17*
X566284Y183530D03*
X549284Y183530D03*
X549284Y169530D03*
X566284Y169530D03*
D18*
X476174Y73330D03*
X501174Y73330D03*
D10*
X497414Y128260D03*
X507414Y128260D03*
D19*
X456304Y50000D03*
X663394Y213030D03*
D20*
X460324Y127854D03*
X460324Y202854D03*
D10*
X488264Y128096D03*
X488264Y138096D03*
X516458Y128350D03*
X516458Y138350D03*
X717224Y114232D03*
X727224Y114232D03*
X818684Y171250D03*
X818684Y181250D03*
X753494Y171350D03*
X753494Y181350D03*
X727224Y103984D03*
X717224Y103984D03*
X724914Y161980D03*
X724914Y171980D03*
X829154Y171250D03*
X829154Y181250D03*
X828044Y78730D03*
X828044Y68730D03*
X777634Y55600D03*
X777634Y45600D03*
X728494Y58420D03*
X718494Y58420D03*
X734304Y171330D03*
X744304Y171330D03*
X762794Y181330D03*
X762794Y171330D03*
X802944Y171330D03*
X802944Y181330D03*
X744304Y181390D03*
X734304Y181390D03*
X698174Y58420D03*
X708174Y58420D03*
D11*
X877364Y197170D02*
X877364Y204150D01*
X884344Y204150D01*
X884344Y197170D01*
X877364Y197170D01*
X877364Y201970D02*
X884344Y201970D01*
X859824Y204150D02*
X859824Y197170D01*
X859824Y204150D02*
X866804Y204150D01*
X866804Y197170D01*
X859824Y197170D01*
X859824Y201970D02*
X866804Y201970D01*
D12*
X877734Y12750D03*
X872734Y12750D03*
X867734Y12750D03*
X862734Y12750D03*
X857734Y12750D03*
X852734Y12750D03*
X847734Y12750D03*
X842734Y12750D03*
X837734Y12750D03*
X832734Y12750D03*
X827734Y12750D03*
X822734Y12750D03*
X797734Y12750D03*
X792734Y12750D03*
X787734Y12750D03*
X782734Y12750D03*
X777734Y12750D03*
X772734Y12750D03*
X767734Y12750D03*
X762734Y12750D03*
X757734Y12750D03*
X752734Y12750D03*
X747734Y12750D03*
X742734Y12750D03*
X737734Y12750D03*
X732734Y12750D03*
X727734Y12750D03*
X722734Y12750D03*
X717734Y12750D03*
X712734Y12750D03*
X707734Y12750D03*
X702734Y12750D03*
X697734Y12750D03*
X692734Y12750D03*
D13*
X804234Y210000D03*
X846234Y210000D03*
X825234Y197000D03*
D10*
X727224Y93482D03*
X717224Y93482D03*
X744304Y162170D03*
X734304Y162170D03*
X865814Y175260D03*
X875814Y175260D03*
X768144Y45610D03*
X768144Y55610D03*
D14*
X755734Y132000D03*
X755734Y128000D03*
X755734Y124000D03*
X755734Y120000D03*
X755734Y116000D03*
X755734Y112000D03*
X755734Y108000D03*
X755734Y104000D03*
X755734Y100000D03*
X755734Y96000D03*
X755734Y92000D03*
X755734Y88000D03*
D15*
X763234Y80500D03*
X767234Y80500D03*
X771234Y80500D03*
X775234Y80500D03*
X779234Y80500D03*
X783234Y80500D03*
X787234Y80500D03*
X791234Y80500D03*
X795234Y80500D03*
X799234Y80500D03*
X803234Y80500D03*
X807234Y80500D03*
D14*
X814734Y88000D03*
X814734Y92000D03*
X814734Y96000D03*
X814734Y100000D03*
X814734Y104000D03*
X814734Y108000D03*
X814734Y112000D03*
X814734Y116000D03*
X814734Y120000D03*
X814734Y124000D03*
X814734Y128000D03*
X814734Y132000D03*
D15*
X807234Y139500D03*
X803234Y139500D03*
X799234Y139500D03*
X795234Y139500D03*
X791234Y139500D03*
X787234Y139500D03*
X783234Y139500D03*
X779234Y139500D03*
X775234Y139500D03*
X771234Y139500D03*
X767234Y139500D03*
X763234Y139500D03*
D16*
X785234Y110000D03*
D17*
X791354Y183530D03*
X774354Y183530D03*
X774354Y169530D03*
X791354Y169530D03*
D18*
X701244Y73330D03*
X726244Y73330D03*
D10*
X722484Y128260D03*
X732484Y128260D03*
D19*
X681374Y50000D03*
X888464Y213030D03*
D20*
X685394Y127854D03*
X685394Y202854D03*
D10*
X713334Y128096D03*
X713334Y138096D03*
X741528Y128350D03*
X741528Y138350D03*
X942318Y114232D03*
X952318Y114232D03*
X1043778Y171250D03*
X1043778Y181250D03*
X978588Y171350D03*
X978588Y181350D03*
X952318Y103984D03*
X942318Y103984D03*
X950008Y161980D03*
X950008Y171980D03*
X1054248Y171250D03*
X1054248Y181250D03*
X1053138Y78730D03*
X1053138Y68730D03*
X1002728Y55600D03*
X1002728Y45600D03*
X953588Y58420D03*
X943588Y58420D03*
X959398Y171330D03*
X969398Y171330D03*
X987888Y181330D03*
X987888Y171330D03*
X1028038Y171330D03*
X1028038Y181330D03*
X969398Y181390D03*
X959398Y181390D03*
X923268Y58420D03*
X933268Y58420D03*
D11*
X1102458Y197170D02*
X1102458Y204150D01*
X1109438Y204150D01*
X1109438Y197170D01*
X1102458Y197170D01*
X1102458Y201970D02*
X1109438Y201970D01*
X1084918Y204150D02*
X1084918Y197170D01*
X1084918Y204150D02*
X1091898Y204150D01*
X1091898Y197170D01*
X1084918Y197170D01*
X1084918Y201970D02*
X1091898Y201970D01*
D12*
X1102828Y12750D03*
X1097828Y12750D03*
X1092828Y12750D03*
X1087828Y12750D03*
X1082828Y12750D03*
X1077828Y12750D03*
X1072828Y12750D03*
X1067828Y12750D03*
X1062828Y12750D03*
X1057828Y12750D03*
X1052828Y12750D03*
X1047828Y12750D03*
X1022828Y12750D03*
X1017828Y12750D03*
X1012828Y12750D03*
X1007828Y12750D03*
X1002828Y12750D03*
X997828Y12750D03*
X992828Y12750D03*
X987828Y12750D03*
X982828Y12750D03*
X977828Y12750D03*
X972828Y12750D03*
X967828Y12750D03*
X962828Y12750D03*
X957828Y12750D03*
X952828Y12750D03*
X947828Y12750D03*
X942828Y12750D03*
X937828Y12750D03*
X932828Y12750D03*
X927828Y12750D03*
X922828Y12750D03*
X917828Y12750D03*
D13*
X1029328Y210000D03*
X1071328Y210000D03*
X1050328Y197000D03*
D10*
X952318Y93482D03*
X942318Y93482D03*
X969398Y162170D03*
X959398Y162170D03*
X1090908Y175260D03*
X1100908Y175260D03*
X993238Y45610D03*
X993238Y55610D03*
D14*
X980828Y132000D03*
X980828Y128000D03*
X980828Y124000D03*
X980828Y120000D03*
X980828Y116000D03*
X980828Y112000D03*
X980828Y108000D03*
X980828Y104000D03*
X980828Y100000D03*
X980828Y96000D03*
X980828Y92000D03*
X980828Y88000D03*
D15*
X988328Y80500D03*
X992328Y80500D03*
X996328Y80500D03*
X1000328Y80500D03*
X1004328Y80500D03*
X1008328Y80500D03*
X1012328Y80500D03*
X1016328Y80500D03*
X1020328Y80500D03*
X1024328Y80500D03*
X1028328Y80500D03*
X1032328Y80500D03*
D14*
X1039828Y88000D03*
X1039828Y92000D03*
X1039828Y96000D03*
X1039828Y100000D03*
X1039828Y104000D03*
X1039828Y108000D03*
X1039828Y112000D03*
X1039828Y116000D03*
X1039828Y120000D03*
X1039828Y124000D03*
X1039828Y128000D03*
X1039828Y132000D03*
D15*
X1032328Y139500D03*
X1028328Y139500D03*
X1024328Y139500D03*
X1020328Y139500D03*
X1016328Y139500D03*
X1012328Y139500D03*
X1008328Y139500D03*
X1004328Y139500D03*
X1000328Y139500D03*
X996328Y139500D03*
X992328Y139500D03*
X988328Y139500D03*
D16*
X1010328Y110000D03*
D17*
X1016448Y183530D03*
X999448Y183530D03*
X999448Y169530D03*
X1016448Y169530D03*
D18*
X926338Y73330D03*
X951338Y73330D03*
D10*
X947578Y128260D03*
X957578Y128260D03*
D19*
X906468Y50000D03*
X1113558Y213030D03*
D20*
X910488Y127854D03*
X910488Y202854D03*
D10*
X938428Y128096D03*
X938428Y138096D03*
X966622Y128350D03*
X966622Y138350D03*
X1167388Y114232D03*
X1177388Y114232D03*
X1268848Y171250D03*
X1268848Y181250D03*
X1203658Y171350D03*
X1203658Y181350D03*
X1177388Y103984D03*
X1167388Y103984D03*
X1175078Y161980D03*
X1175078Y171980D03*
X1279318Y171250D03*
X1279318Y181250D03*
X1278208Y78730D03*
X1278208Y68730D03*
X1227798Y55600D03*
X1227798Y45600D03*
X1178658Y58420D03*
X1168658Y58420D03*
X1184468Y171330D03*
X1194468Y171330D03*
X1212958Y181330D03*
X1212958Y171330D03*
X1253108Y171330D03*
X1253108Y181330D03*
X1194468Y181390D03*
X1184468Y181390D03*
X1148338Y58420D03*
X1158338Y58420D03*
D11*
X1327528Y197170D02*
X1327528Y204150D01*
X1334508Y204150D01*
X1334508Y197170D01*
X1327528Y197170D01*
X1327528Y201970D02*
X1334508Y201970D01*
X1309988Y204150D02*
X1309988Y197170D01*
X1309988Y204150D02*
X1316968Y204150D01*
X1316968Y197170D01*
X1309988Y197170D01*
X1309988Y201970D02*
X1316968Y201970D01*
D12*
X1327898Y12750D03*
X1322898Y12750D03*
X1317898Y12750D03*
X1312898Y12750D03*
X1307898Y12750D03*
X1302898Y12750D03*
X1297898Y12750D03*
X1292898Y12750D03*
X1287898Y12750D03*
X1282898Y12750D03*
X1277898Y12750D03*
X1272898Y12750D03*
X1247898Y12750D03*
X1242898Y12750D03*
X1237898Y12750D03*
X1232898Y12750D03*
X1227898Y12750D03*
X1222898Y12750D03*
X1217898Y12750D03*
X1212898Y12750D03*
X1207898Y12750D03*
X1202898Y12750D03*
X1197898Y12750D03*
X1192898Y12750D03*
X1187898Y12750D03*
X1182898Y12750D03*
X1177898Y12750D03*
X1172898Y12750D03*
X1167898Y12750D03*
X1162898Y12750D03*
X1157898Y12750D03*
X1152898Y12750D03*
X1147898Y12750D03*
X1142898Y12750D03*
D13*
X1254398Y210000D03*
X1296398Y210000D03*
X1275398Y197000D03*
D10*
X1177388Y93482D03*
X1167388Y93482D03*
X1194468Y162170D03*
X1184468Y162170D03*
X1315978Y175260D03*
X1325978Y175260D03*
X1218308Y45610D03*
X1218308Y55610D03*
D14*
X1205898Y132000D03*
X1205898Y128000D03*
X1205898Y124000D03*
X1205898Y120000D03*
X1205898Y116000D03*
X1205898Y112000D03*
X1205898Y108000D03*
X1205898Y104000D03*
X1205898Y100000D03*
X1205898Y96000D03*
X1205898Y92000D03*
X1205898Y88000D03*
D15*
X1213398Y80500D03*
X1217398Y80500D03*
X1221398Y80500D03*
X1225398Y80500D03*
X1229398Y80500D03*
X1233398Y80500D03*
X1237398Y80500D03*
X1241398Y80500D03*
X1245398Y80500D03*
X1249398Y80500D03*
X1253398Y80500D03*
X1257398Y80500D03*
D14*
X1264898Y88000D03*
X1264898Y92000D03*
X1264898Y96000D03*
X1264898Y100000D03*
X1264898Y104000D03*
X1264898Y108000D03*
X1264898Y112000D03*
X1264898Y116000D03*
X1264898Y120000D03*
X1264898Y124000D03*
X1264898Y128000D03*
X1264898Y132000D03*
D15*
X1257398Y139500D03*
X1253398Y139500D03*
X1249398Y139500D03*
X1245398Y139500D03*
X1241398Y139500D03*
X1237398Y139500D03*
X1233398Y139500D03*
X1229398Y139500D03*
X1225398Y139500D03*
X1221398Y139500D03*
X1217398Y139500D03*
X1213398Y139500D03*
D16*
X1235398Y110000D03*
D17*
X1241518Y183530D03*
X1224518Y183530D03*
X1224518Y169530D03*
X1241518Y169530D03*
D18*
X1151408Y73330D03*
X1176408Y73330D03*
D10*
X1172648Y128260D03*
X1182648Y128260D03*
D19*
X1131538Y50000D03*
X1338628Y213030D03*
D20*
X1135558Y127854D03*
X1135558Y202854D03*
D10*
X1163498Y128096D03*
X1163498Y138096D03*
X1191692Y128350D03*
X1191692Y138350D03*
X1392483Y114232D03*
X1402483Y114232D03*
X1493943Y171250D03*
X1493943Y181250D03*
X1428753Y171350D03*
X1428753Y181350D03*
X1402483Y103984D03*
X1392483Y103984D03*
X1400173Y161980D03*
X1400173Y171980D03*
X1504413Y171250D03*
X1504413Y181250D03*
X1503303Y78730D03*
X1503303Y68730D03*
X1452893Y55600D03*
X1452893Y45600D03*
X1403753Y58420D03*
X1393753Y58420D03*
X1409563Y171330D03*
X1419563Y171330D03*
X1438053Y181330D03*
X1438053Y171330D03*
X1478203Y171330D03*
X1478203Y181330D03*
X1419563Y181390D03*
X1409563Y181390D03*
X1373433Y58420D03*
X1383433Y58420D03*
D11*
X1552623Y197170D02*
X1552623Y204150D01*
X1559603Y204150D01*
X1559603Y197170D01*
X1552623Y197170D01*
X1552623Y201970D02*
X1559603Y201970D01*
X1535083Y204150D02*
X1535083Y197170D01*
X1535083Y204150D02*
X1542063Y204150D01*
X1542063Y197170D01*
X1535083Y197170D01*
X1535083Y201970D02*
X1542063Y201970D01*
D12*
X1552993Y12750D03*
X1547993Y12750D03*
X1542993Y12750D03*
X1537993Y12750D03*
X1532993Y12750D03*
X1527993Y12750D03*
X1522993Y12750D03*
X1517993Y12750D03*
X1512993Y12750D03*
X1507993Y12750D03*
X1502993Y12750D03*
X1497993Y12750D03*
X1472993Y12750D03*
X1467993Y12750D03*
X1462993Y12750D03*
X1457993Y12750D03*
X1452993Y12750D03*
X1447993Y12750D03*
X1442993Y12750D03*
X1437993Y12750D03*
X1432993Y12750D03*
X1427993Y12750D03*
X1422993Y12750D03*
X1417993Y12750D03*
X1412993Y12750D03*
X1407993Y12750D03*
X1402993Y12750D03*
X1397993Y12750D03*
X1392993Y12750D03*
X1387993Y12750D03*
X1382993Y12750D03*
X1377993Y12750D03*
X1372993Y12750D03*
X1367993Y12750D03*
D13*
X1479493Y210000D03*
X1521493Y210000D03*
X1500493Y197000D03*
D10*
X1402483Y93482D03*
X1392483Y93482D03*
X1419563Y162170D03*
X1409563Y162170D03*
X1541073Y175260D03*
X1551073Y175260D03*
X1443403Y45610D03*
X1443403Y55610D03*
D14*
X1430993Y132000D03*
X1430993Y128000D03*
X1430993Y124000D03*
X1430993Y120000D03*
X1430993Y116000D03*
X1430993Y112000D03*
X1430993Y108000D03*
X1430993Y104000D03*
X1430993Y100000D03*
X1430993Y96000D03*
X1430993Y92000D03*
X1430993Y88000D03*
D15*
X1438493Y80500D03*
X1442493Y80500D03*
X1446493Y80500D03*
X1450493Y80500D03*
X1454493Y80500D03*
X1458493Y80500D03*
X1462493Y80500D03*
X1466493Y80500D03*
X1470493Y80500D03*
X1474493Y80500D03*
X1478493Y80500D03*
X1482493Y80500D03*
D14*
X1489993Y88000D03*
X1489993Y92000D03*
X1489993Y96000D03*
X1489993Y100000D03*
X1489993Y104000D03*
X1489993Y108000D03*
X1489993Y112000D03*
X1489993Y116000D03*
X1489993Y120000D03*
X1489993Y124000D03*
X1489993Y128000D03*
X1489993Y132000D03*
D15*
X1482493Y139500D03*
X1478493Y139500D03*
X1474493Y139500D03*
X1470493Y139500D03*
X1466493Y139500D03*
X1462493Y139500D03*
X1458493Y139500D03*
X1454493Y139500D03*
X1450493Y139500D03*
X1446493Y139500D03*
X1442493Y139500D03*
X1438493Y139500D03*
D16*
X1460493Y110000D03*
D17*
X1466613Y183530D03*
X1449613Y183530D03*
X1449613Y169530D03*
X1466613Y169530D03*
D18*
X1376503Y73330D03*
X1401503Y73330D03*
D10*
X1397743Y128260D03*
X1407743Y128260D03*
D19*
X1356633Y50000D03*
X1563723Y213030D03*
D20*
X1360653Y127854D03*
X1360653Y202854D03*
D10*
X1388593Y128096D03*
X1388593Y138096D03*
X1416787Y128350D03*
X1416787Y138350D03*
X1617552Y114232D03*
X1627552Y114232D03*
X1719012Y171250D03*
X1719012Y181250D03*
X1653822Y171350D03*
X1653822Y181350D03*
X1627552Y103984D03*
X1617552Y103984D03*
X1625242Y161980D03*
X1625242Y171980D03*
X1729482Y171250D03*
X1729482Y181250D03*
X1728372Y78730D03*
X1728372Y68730D03*
X1677962Y55600D03*
X1677962Y45600D03*
X1628822Y58420D03*
X1618822Y58420D03*
X1634632Y171330D03*
X1644632Y171330D03*
X1663122Y181330D03*
X1663122Y171330D03*
X1703272Y171330D03*
X1703272Y181330D03*
X1644632Y181390D03*
X1634632Y181390D03*
X1598502Y58420D03*
X1608502Y58420D03*
D11*
X1777692Y197170D02*
X1777692Y204150D01*
X1784672Y204150D01*
X1784672Y197170D01*
X1777692Y197170D01*
X1777692Y201970D02*
X1784672Y201970D01*
X1760152Y204150D02*
X1760152Y197170D01*
X1760152Y204150D02*
X1767132Y204150D01*
X1767132Y197170D01*
X1760152Y197170D01*
X1760152Y201970D02*
X1767132Y201970D01*
D12*
X1778062Y12750D03*
X1773062Y12750D03*
X1768062Y12750D03*
X1763062Y12750D03*
X1758062Y12750D03*
X1753062Y12750D03*
X1748062Y12750D03*
X1743062Y12750D03*
X1738062Y12750D03*
X1733062Y12750D03*
X1728062Y12750D03*
X1723062Y12750D03*
X1698062Y12750D03*
X1693062Y12750D03*
X1688062Y12750D03*
X1683062Y12750D03*
X1678062Y12750D03*
X1673062Y12750D03*
X1668062Y12750D03*
X1663062Y12750D03*
X1658062Y12750D03*
X1653062Y12750D03*
X1648062Y12750D03*
X1643062Y12750D03*
X1638062Y12750D03*
X1633062Y12750D03*
X1628062Y12750D03*
X1623062Y12750D03*
X1618062Y12750D03*
X1613062Y12750D03*
X1608062Y12750D03*
X1603062Y12750D03*
X1598062Y12750D03*
X1593062Y12750D03*
D13*
X1704562Y210000D03*
X1746562Y210000D03*
X1725562Y197000D03*
D10*
X1627552Y93482D03*
X1617552Y93482D03*
X1644632Y162170D03*
X1634632Y162170D03*
X1766142Y175260D03*
X1776142Y175260D03*
X1668472Y45610D03*
X1668472Y55610D03*
D14*
X1656062Y132000D03*
X1656062Y128000D03*
X1656062Y124000D03*
X1656062Y120000D03*
X1656062Y116000D03*
X1656062Y112000D03*
X1656062Y108000D03*
X1656062Y104000D03*
X1656062Y100000D03*
X1656062Y96000D03*
X1656062Y92000D03*
X1656062Y88000D03*
D15*
X1663562Y80500D03*
X1667562Y80500D03*
X1671562Y80500D03*
X1675562Y80500D03*
X1679562Y80500D03*
X1683562Y80500D03*
X1687562Y80500D03*
X1691562Y80500D03*
X1695562Y80500D03*
X1699562Y80500D03*
X1703562Y80500D03*
X1707562Y80500D03*
D14*
X1715062Y88000D03*
X1715062Y92000D03*
X1715062Y96000D03*
X1715062Y100000D03*
X1715062Y104000D03*
X1715062Y108000D03*
X1715062Y112000D03*
X1715062Y116000D03*
X1715062Y120000D03*
X1715062Y124000D03*
X1715062Y128000D03*
X1715062Y132000D03*
D15*
X1707562Y139500D03*
X1703562Y139500D03*
X1699562Y139500D03*
X1695562Y139500D03*
X1691562Y139500D03*
X1687562Y139500D03*
X1683562Y139500D03*
X1679562Y139500D03*
X1675562Y139500D03*
X1671562Y139500D03*
X1667562Y139500D03*
X1663562Y139500D03*
D16*
X1685562Y110000D03*
D17*
X1691682Y183530D03*
X1674682Y183530D03*
X1674682Y169530D03*
X1691682Y169530D03*
D18*
X1601572Y73330D03*
X1626572Y73330D03*
D10*
X1622812Y128260D03*
X1632812Y128260D03*
D19*
X1581702Y50000D03*
X1788792Y213030D03*
D20*
X1585722Y127854D03*
X1585722Y202854D03*
D10*
X1613662Y128096D03*
X1613662Y138096D03*
X1641856Y128350D03*
X1641856Y138350D03*
X177999Y584268D03*
X167999Y584268D03*
X76539Y527250D03*
X76539Y517250D03*
X141729Y527150D03*
X141729Y517150D03*
X167999Y594516D03*
X177999Y594516D03*
X170309Y536520D03*
X170309Y526520D03*
X66069Y527250D03*
X66069Y517250D03*
X67179Y619770D03*
X67179Y629770D03*
X117589Y642900D03*
X117589Y652900D03*
X166729Y640080D03*
X176729Y640080D03*
X160919Y527170D03*
X150919Y527170D03*
X132429Y517170D03*
X132429Y527170D03*
X92279Y527170D03*
X92279Y517170D03*
X150919Y517110D03*
X160919Y517110D03*
X197049Y640080D03*
X187049Y640080D03*
D11*
X17859Y501330D02*
X17859Y494350D01*
X10879Y494350D01*
X10879Y501330D01*
X17859Y501330D01*
X17859Y499150D02*
X10879Y499150D01*
X35399Y501330D02*
X35399Y494350D01*
X28419Y494350D01*
X28419Y501330D01*
X35399Y501330D01*
X35399Y499150D02*
X28419Y499150D01*
D12*
X17489Y685750D03*
X22489Y685750D03*
X27489Y685750D03*
X32489Y685750D03*
X37489Y685750D03*
X42489Y685750D03*
X47489Y685750D03*
X52489Y685750D03*
X57489Y685750D03*
X62489Y685750D03*
X67489Y685750D03*
X72489Y685750D03*
X97489Y685750D03*
X102489Y685750D03*
X107489Y685750D03*
X112489Y685750D03*
X117489Y685750D03*
X122489Y685750D03*
X127489Y685750D03*
X132489Y685750D03*
X137489Y685750D03*
X142489Y685750D03*
X147489Y685750D03*
X152489Y685750D03*
X157489Y685750D03*
X162489Y685750D03*
X167489Y685750D03*
X172489Y685750D03*
X177489Y685750D03*
X182489Y685750D03*
X187489Y685750D03*
X192489Y685750D03*
X197489Y685750D03*
X202489Y685750D03*
D13*
X90989Y488500D03*
X48989Y488500D03*
X69989Y501500D03*
D10*
X167999Y605018D03*
X177999Y605018D03*
X150919Y536330D03*
X160919Y536330D03*
X29409Y523240D03*
X19409Y523240D03*
X127079Y652890D03*
X127079Y642890D03*
D14*
X139489Y566500D03*
X139489Y570500D03*
X139489Y574500D03*
X139489Y578500D03*
X139489Y582500D03*
X139489Y586500D03*
X139489Y590500D03*
X139489Y594500D03*
X139489Y598500D03*
X139489Y602500D03*
X139489Y606500D03*
X139489Y610500D03*
D15*
X131989Y618000D03*
X127989Y618000D03*
X123989Y618000D03*
X119989Y618000D03*
X115989Y618000D03*
X111989Y618000D03*
X107989Y618000D03*
X103989Y618000D03*
X99989Y618000D03*
X95989Y618000D03*
X91989Y618000D03*
X87989Y618000D03*
D14*
X80489Y610500D03*
X80489Y606500D03*
X80489Y602500D03*
X80489Y598500D03*
X80489Y594500D03*
X80489Y590500D03*
X80489Y586500D03*
X80489Y582500D03*
X80489Y578500D03*
X80489Y574500D03*
X80489Y570500D03*
X80489Y566500D03*
D15*
X87989Y559000D03*
X91989Y559000D03*
X95989Y559000D03*
X99989Y559000D03*
X103989Y559000D03*
X107989Y559000D03*
X111989Y559000D03*
X115989Y559000D03*
X119989Y559000D03*
X123989Y559000D03*
X127989Y559000D03*
X131989Y559000D03*
D16*
X109989Y588500D03*
D17*
X103869Y514970D03*
X120869Y514970D03*
X120869Y528970D03*
X103869Y528970D03*
D18*
X193979Y625170D03*
X168979Y625170D03*
D10*
X172739Y570240D03*
X162739Y570240D03*
D19*
X213849Y648500D03*
X6759Y485470D03*
D20*
X209829Y570646D03*
X209829Y495646D03*
D10*
X181889Y570404D03*
X181889Y560404D03*
X153695Y570150D03*
X153695Y560150D03*
X403094Y584268D03*
X393094Y584268D03*
X301634Y527250D03*
X301634Y517250D03*
X366824Y527150D03*
X366824Y517150D03*
X393094Y594516D03*
X403094Y594516D03*
X395404Y536520D03*
X395404Y526520D03*
X291164Y527250D03*
X291164Y517250D03*
X292274Y619770D03*
X292274Y629770D03*
X342684Y642900D03*
X342684Y652900D03*
X391824Y640080D03*
X401824Y640080D03*
X386014Y527170D03*
X376014Y527170D03*
X357524Y517170D03*
X357524Y527170D03*
X317374Y527170D03*
X317374Y517170D03*
X376014Y517110D03*
X386014Y517110D03*
X422144Y640080D03*
X412144Y640080D03*
D11*
X242954Y501330D02*
X242954Y494350D01*
X235974Y494350D01*
X235974Y501330D01*
X242954Y501330D01*
X242954Y499150D02*
X235974Y499150D01*
X260494Y501330D02*
X260494Y494350D01*
X253514Y494350D01*
X253514Y501330D01*
X260494Y501330D01*
X260494Y499150D02*
X253514Y499150D01*
D12*
X242584Y685750D03*
X247584Y685750D03*
X252584Y685750D03*
X257584Y685750D03*
X262584Y685750D03*
X267584Y685750D03*
X272584Y685750D03*
X277584Y685750D03*
X282584Y685750D03*
X287584Y685750D03*
X292584Y685750D03*
X297584Y685750D03*
X322584Y685750D03*
X327584Y685750D03*
X332584Y685750D03*
X337584Y685750D03*
X342584Y685750D03*
X347584Y685750D03*
X352584Y685750D03*
X357584Y685750D03*
X362584Y685750D03*
X367584Y685750D03*
X372584Y685750D03*
X377584Y685750D03*
X382584Y685750D03*
X387584Y685750D03*
X392584Y685750D03*
X397584Y685750D03*
X402584Y685750D03*
X407584Y685750D03*
X412584Y685750D03*
X417584Y685750D03*
X422584Y685750D03*
X427584Y685750D03*
D13*
X316084Y488500D03*
X274084Y488500D03*
X295084Y501500D03*
D10*
X393094Y605018D03*
X403094Y605018D03*
X376014Y536330D03*
X386014Y536330D03*
X254504Y523240D03*
X244504Y523240D03*
X352174Y652890D03*
X352174Y642890D03*
D14*
X364584Y566500D03*
X364584Y570500D03*
X364584Y574500D03*
X364584Y578500D03*
X364584Y582500D03*
X364584Y586500D03*
X364584Y590500D03*
X364584Y594500D03*
X364584Y598500D03*
X364584Y602500D03*
X364584Y606500D03*
X364584Y610500D03*
D15*
X357084Y618000D03*
X353084Y618000D03*
X349084Y618000D03*
X345084Y618000D03*
X341084Y618000D03*
X337084Y618000D03*
X333084Y618000D03*
X329084Y618000D03*
X325084Y618000D03*
X321084Y618000D03*
X317084Y618000D03*
X313084Y618000D03*
D14*
X305584Y610500D03*
X305584Y606500D03*
X305584Y602500D03*
X305584Y598500D03*
X305584Y594500D03*
X305584Y590500D03*
X305584Y586500D03*
X305584Y582500D03*
X305584Y578500D03*
X305584Y574500D03*
X305584Y570500D03*
X305584Y566500D03*
D15*
X313084Y559000D03*
X317084Y559000D03*
X321084Y559000D03*
X325084Y559000D03*
X329084Y559000D03*
X333084Y559000D03*
X337084Y559000D03*
X341084Y559000D03*
X345084Y559000D03*
X349084Y559000D03*
X353084Y559000D03*
X357084Y559000D03*
D16*
X335084Y588500D03*
D17*
X328964Y514970D03*
X345964Y514970D03*
X345964Y528970D03*
X328964Y528970D03*
D18*
X419074Y625170D03*
X394074Y625170D03*
D10*
X397834Y570240D03*
X387834Y570240D03*
D19*
X438944Y648500D03*
X231854Y485470D03*
D20*
X434924Y570646D03*
X434924Y495646D03*
D10*
X406984Y570404D03*
X406984Y560404D03*
X378790Y570150D03*
X378790Y560150D03*
X628164Y584268D03*
X618164Y584268D03*
X526704Y527250D03*
X526704Y517250D03*
X591894Y527150D03*
X591894Y517150D03*
X618164Y594516D03*
X628164Y594516D03*
X620474Y536520D03*
X620474Y526520D03*
X516234Y527250D03*
X516234Y517250D03*
X517344Y619770D03*
X517344Y629770D03*
X567754Y642900D03*
X567754Y652900D03*
X616894Y640080D03*
X626894Y640080D03*
X611084Y527170D03*
X601084Y527170D03*
X582594Y517170D03*
X582594Y527170D03*
X542444Y527170D03*
X542444Y517170D03*
X601084Y517110D03*
X611084Y517110D03*
X647214Y640080D03*
X637214Y640080D03*
D11*
X468024Y501330D02*
X468024Y494350D01*
X461044Y494350D01*
X461044Y501330D01*
X468024Y501330D01*
X468024Y499150D02*
X461044Y499150D01*
X485564Y501330D02*
X485564Y494350D01*
X478584Y494350D01*
X478584Y501330D01*
X485564Y501330D01*
X485564Y499150D02*
X478584Y499150D01*
D12*
X467654Y685750D03*
X472654Y685750D03*
X477654Y685750D03*
X482654Y685750D03*
X487654Y685750D03*
X492654Y685750D03*
X497654Y685750D03*
X502654Y685750D03*
X507654Y685750D03*
X512654Y685750D03*
X517654Y685750D03*
X522654Y685750D03*
X547654Y685750D03*
X552654Y685750D03*
X557654Y685750D03*
X562654Y685750D03*
X567654Y685750D03*
X572654Y685750D03*
X577654Y685750D03*
X582654Y685750D03*
X587654Y685750D03*
X592654Y685750D03*
X597654Y685750D03*
X602654Y685750D03*
X607654Y685750D03*
X612654Y685750D03*
X617654Y685750D03*
X622654Y685750D03*
X627654Y685750D03*
X632654Y685750D03*
X637654Y685750D03*
X642654Y685750D03*
X647654Y685750D03*
X652654Y685750D03*
D13*
X541154Y488500D03*
X499154Y488500D03*
X520154Y501500D03*
D10*
X618164Y605018D03*
X628164Y605018D03*
X601084Y536330D03*
X611084Y536330D03*
X479574Y523240D03*
X469574Y523240D03*
X577244Y652890D03*
X577244Y642890D03*
D14*
X589654Y566500D03*
X589654Y570500D03*
X589654Y574500D03*
X589654Y578500D03*
X589654Y582500D03*
X589654Y586500D03*
X589654Y590500D03*
X589654Y594500D03*
X589654Y598500D03*
X589654Y602500D03*
X589654Y606500D03*
X589654Y610500D03*
D15*
X582154Y618000D03*
X578154Y618000D03*
X574154Y618000D03*
X570154Y618000D03*
X566154Y618000D03*
X562154Y618000D03*
X558154Y618000D03*
X554154Y618000D03*
X550154Y618000D03*
X546154Y618000D03*
X542154Y618000D03*
X538154Y618000D03*
D14*
X530654Y610500D03*
X530654Y606500D03*
X530654Y602500D03*
X530654Y598500D03*
X530654Y594500D03*
X530654Y590500D03*
X530654Y586500D03*
X530654Y582500D03*
X530654Y578500D03*
X530654Y574500D03*
X530654Y570500D03*
X530654Y566500D03*
D15*
X538154Y559000D03*
X542154Y559000D03*
X546154Y559000D03*
X550154Y559000D03*
X554154Y559000D03*
X558154Y559000D03*
X562154Y559000D03*
X566154Y559000D03*
X570154Y559000D03*
X574154Y559000D03*
X578154Y559000D03*
X582154Y559000D03*
D16*
X560154Y588500D03*
D17*
X554034Y514970D03*
X571034Y514970D03*
X571034Y528970D03*
X554034Y528970D03*
D18*
X644144Y625170D03*
X619144Y625170D03*
D10*
X622904Y570240D03*
X612904Y570240D03*
D19*
X664014Y648500D03*
X456924Y485470D03*
D20*
X659994Y570646D03*
X659994Y495646D03*
D10*
X632054Y570404D03*
X632054Y560404D03*
X603860Y570150D03*
X603860Y560150D03*
X853258Y584268D03*
X843258Y584268D03*
X751798Y527250D03*
X751798Y517250D03*
X816988Y527150D03*
X816988Y517150D03*
X843258Y594516D03*
X853258Y594516D03*
X845568Y536520D03*
X845568Y526520D03*
X741328Y527250D03*
X741328Y517250D03*
X742438Y619770D03*
X742438Y629770D03*
X792848Y642900D03*
X792848Y652900D03*
X841988Y640080D03*
X851988Y640080D03*
X836178Y527170D03*
X826178Y527170D03*
X807688Y517170D03*
X807688Y527170D03*
X767538Y527170D03*
X767538Y517170D03*
X826178Y517110D03*
X836178Y517110D03*
X872308Y640080D03*
X862308Y640080D03*
D11*
X693118Y501330D02*
X693118Y494350D01*
X686138Y494350D01*
X686138Y501330D01*
X693118Y501330D01*
X693118Y499150D02*
X686138Y499150D01*
X710658Y501330D02*
X710658Y494350D01*
X703678Y494350D01*
X703678Y501330D01*
X710658Y501330D01*
X710658Y499150D02*
X703678Y499150D01*
D12*
X692748Y685750D03*
X697748Y685750D03*
X702748Y685750D03*
X707748Y685750D03*
X712748Y685750D03*
X717748Y685750D03*
X722748Y685750D03*
X727748Y685750D03*
X732748Y685750D03*
X737748Y685750D03*
X742748Y685750D03*
X747748Y685750D03*
X772748Y685750D03*
X777748Y685750D03*
X782748Y685750D03*
X787748Y685750D03*
X792748Y685750D03*
X797748Y685750D03*
X802748Y685750D03*
X807748Y685750D03*
X812748Y685750D03*
X817748Y685750D03*
X822748Y685750D03*
X827748Y685750D03*
X832748Y685750D03*
X837748Y685750D03*
X842748Y685750D03*
X847748Y685750D03*
X852748Y685750D03*
X857748Y685750D03*
X862748Y685750D03*
X867748Y685750D03*
X872748Y685750D03*
X877748Y685750D03*
D13*
X766248Y488500D03*
X724248Y488500D03*
X745248Y501500D03*
D10*
X843258Y605018D03*
X853258Y605018D03*
X826178Y536330D03*
X836178Y536330D03*
X704668Y523240D03*
X694668Y523240D03*
X802338Y652890D03*
X802338Y642890D03*
D14*
X814748Y566500D03*
X814748Y570500D03*
X814748Y574500D03*
X814748Y578500D03*
X814748Y582500D03*
X814748Y586500D03*
X814748Y590500D03*
X814748Y594500D03*
X814748Y598500D03*
X814748Y602500D03*
X814748Y606500D03*
X814748Y610500D03*
D15*
X807248Y618000D03*
X803248Y618000D03*
X799248Y618000D03*
X795248Y618000D03*
X791248Y618000D03*
X787248Y618000D03*
X783248Y618000D03*
X779248Y618000D03*
X775248Y618000D03*
X771248Y618000D03*
X767248Y618000D03*
X763248Y618000D03*
D14*
X755748Y610500D03*
X755748Y606500D03*
X755748Y602500D03*
X755748Y598500D03*
X755748Y594500D03*
X755748Y590500D03*
X755748Y586500D03*
X755748Y582500D03*
X755748Y578500D03*
X755748Y574500D03*
X755748Y570500D03*
X755748Y566500D03*
D15*
X763248Y559000D03*
X767248Y559000D03*
X771248Y559000D03*
X775248Y559000D03*
X779248Y559000D03*
X783248Y559000D03*
X787248Y559000D03*
X791248Y559000D03*
X795248Y559000D03*
X799248Y559000D03*
X803248Y559000D03*
X807248Y559000D03*
D16*
X785248Y588500D03*
D17*
X779128Y514970D03*
X796128Y514970D03*
X796128Y528970D03*
X779128Y528970D03*
D18*
X869238Y625170D03*
X844238Y625170D03*
D10*
X847998Y570240D03*
X837998Y570240D03*
D19*
X889108Y648500D03*
X682018Y485470D03*
D20*
X885088Y570646D03*
X885088Y495646D03*
D10*
X857148Y570404D03*
X857148Y560404D03*
X828954Y570150D03*
X828954Y560150D03*
X1078328Y584268D03*
X1068328Y584268D03*
X976868Y527250D03*
X976868Y517250D03*
X1042058Y527150D03*
X1042058Y517150D03*
X1068328Y594516D03*
X1078328Y594516D03*
X1070638Y536520D03*
X1070638Y526520D03*
X966398Y527250D03*
X966398Y517250D03*
X967508Y619770D03*
X967508Y629770D03*
X1017918Y642900D03*
X1017918Y652900D03*
X1067058Y640080D03*
X1077058Y640080D03*
X1061248Y527170D03*
X1051248Y527170D03*
X1032758Y517170D03*
X1032758Y527170D03*
X992608Y527170D03*
X992608Y517170D03*
X1051248Y517110D03*
X1061248Y517110D03*
X1097378Y640080D03*
X1087378Y640080D03*
D11*
X918188Y501330D02*
X918188Y494350D01*
X911208Y494350D01*
X911208Y501330D01*
X918188Y501330D01*
X918188Y499150D02*
X911208Y499150D01*
X935728Y501330D02*
X935728Y494350D01*
X928748Y494350D01*
X928748Y501330D01*
X935728Y501330D01*
X935728Y499150D02*
X928748Y499150D01*
D12*
X917818Y685750D03*
X922818Y685750D03*
X927818Y685750D03*
X932818Y685750D03*
X937818Y685750D03*
X942818Y685750D03*
X947818Y685750D03*
X952818Y685750D03*
X957818Y685750D03*
X962818Y685750D03*
X967818Y685750D03*
X972818Y685750D03*
X997818Y685750D03*
X1002818Y685750D03*
X1007818Y685750D03*
X1012818Y685750D03*
X1017818Y685750D03*
X1022818Y685750D03*
X1027818Y685750D03*
X1032818Y685750D03*
X1037818Y685750D03*
X1042818Y685750D03*
X1047818Y685750D03*
X1052818Y685750D03*
X1057818Y685750D03*
X1062818Y685750D03*
X1067818Y685750D03*
X1072818Y685750D03*
X1077818Y685750D03*
X1082818Y685750D03*
X1087818Y685750D03*
X1092818Y685750D03*
X1097818Y685750D03*
X1102818Y685750D03*
D13*
X991318Y488500D03*
X949318Y488500D03*
X970318Y501500D03*
D10*
X1068328Y605018D03*
X1078328Y605018D03*
X1051248Y536330D03*
X1061248Y536330D03*
X929738Y523240D03*
X919738Y523240D03*
X1027408Y652890D03*
X1027408Y642890D03*
D14*
X1039818Y566500D03*
X1039818Y570500D03*
X1039818Y574500D03*
X1039818Y578500D03*
X1039818Y582500D03*
X1039818Y586500D03*
X1039818Y590500D03*
X1039818Y594500D03*
X1039818Y598500D03*
X1039818Y602500D03*
X1039818Y606500D03*
X1039818Y610500D03*
D15*
X1032318Y618000D03*
X1028318Y618000D03*
X1024318Y618000D03*
X1020318Y618000D03*
X1016318Y618000D03*
X1012318Y618000D03*
X1008318Y618000D03*
X1004318Y618000D03*
X1000318Y618000D03*
X996318Y618000D03*
X992318Y618000D03*
X988318Y618000D03*
D14*
X980818Y610500D03*
X980818Y606500D03*
X980818Y602500D03*
X980818Y598500D03*
X980818Y594500D03*
X980818Y590500D03*
X980818Y586500D03*
X980818Y582500D03*
X980818Y578500D03*
X980818Y574500D03*
X980818Y570500D03*
X980818Y566500D03*
D15*
X988318Y559000D03*
X992318Y559000D03*
X996318Y559000D03*
X1000318Y559000D03*
X1004318Y559000D03*
X1008318Y559000D03*
X1012318Y559000D03*
X1016318Y559000D03*
X1020318Y559000D03*
X1024318Y559000D03*
X1028318Y559000D03*
X1032318Y559000D03*
D16*
X1010318Y588500D03*
D17*
X1004198Y514970D03*
X1021198Y514970D03*
X1021198Y528970D03*
X1004198Y528970D03*
D18*
X1094308Y625170D03*
X1069308Y625170D03*
D10*
X1073068Y570240D03*
X1063068Y570240D03*
D19*
X1114178Y648500D03*
X907088Y485470D03*
D20*
X1110158Y570646D03*
X1110158Y495646D03*
D10*
X1082218Y570404D03*
X1082218Y560404D03*
X1054024Y570150D03*
X1054024Y560150D03*
X1303423Y584268D03*
X1293423Y584268D03*
X1201963Y527250D03*
X1201963Y517250D03*
X1267153Y527150D03*
X1267153Y517150D03*
X1293423Y594516D03*
X1303423Y594516D03*
X1295733Y536520D03*
X1295733Y526520D03*
X1191493Y527250D03*
X1191493Y517250D03*
X1192603Y619770D03*
X1192603Y629770D03*
X1243013Y642900D03*
X1243013Y652900D03*
X1292153Y640080D03*
X1302153Y640080D03*
X1286343Y527170D03*
X1276343Y527170D03*
X1257853Y517170D03*
X1257853Y527170D03*
X1217703Y527170D03*
X1217703Y517170D03*
X1276343Y517110D03*
X1286343Y517110D03*
X1322473Y640080D03*
X1312473Y640080D03*
D11*
X1143283Y501330D02*
X1143283Y494350D01*
X1136303Y494350D01*
X1136303Y501330D01*
X1143283Y501330D01*
X1143283Y499150D02*
X1136303Y499150D01*
X1160823Y501330D02*
X1160823Y494350D01*
X1153843Y494350D01*
X1153843Y501330D01*
X1160823Y501330D01*
X1160823Y499150D02*
X1153843Y499150D01*
D12*
X1142913Y685750D03*
X1147913Y685750D03*
X1152913Y685750D03*
X1157913Y685750D03*
X1162913Y685750D03*
X1167913Y685750D03*
X1172913Y685750D03*
X1177913Y685750D03*
X1182913Y685750D03*
X1187913Y685750D03*
X1192913Y685750D03*
X1197913Y685750D03*
X1222913Y685750D03*
X1227913Y685750D03*
X1232913Y685750D03*
X1237913Y685750D03*
X1242913Y685750D03*
X1247913Y685750D03*
X1252913Y685750D03*
X1257913Y685750D03*
X1262913Y685750D03*
X1267913Y685750D03*
X1272913Y685750D03*
X1277913Y685750D03*
X1282913Y685750D03*
X1287913Y685750D03*
X1292913Y685750D03*
X1297913Y685750D03*
X1302913Y685750D03*
X1307913Y685750D03*
X1312913Y685750D03*
X1317913Y685750D03*
X1322913Y685750D03*
X1327913Y685750D03*
D13*
X1216413Y488500D03*
X1174413Y488500D03*
X1195413Y501500D03*
D10*
X1293423Y605018D03*
X1303423Y605018D03*
X1276343Y536330D03*
X1286343Y536330D03*
X1154833Y523240D03*
X1144833Y523240D03*
X1252503Y652890D03*
X1252503Y642890D03*
D14*
X1264913Y566500D03*
X1264913Y570500D03*
X1264913Y574500D03*
X1264913Y578500D03*
X1264913Y582500D03*
X1264913Y586500D03*
X1264913Y590500D03*
X1264913Y594500D03*
X1264913Y598500D03*
X1264913Y602500D03*
X1264913Y606500D03*
X1264913Y610500D03*
D15*
X1257413Y618000D03*
X1253413Y618000D03*
X1249413Y618000D03*
X1245413Y618000D03*
X1241413Y618000D03*
X1237413Y618000D03*
X1233413Y618000D03*
X1229413Y618000D03*
X1225413Y618000D03*
X1221413Y618000D03*
X1217413Y618000D03*
X1213413Y618000D03*
D14*
X1205913Y610500D03*
X1205913Y606500D03*
X1205913Y602500D03*
X1205913Y598500D03*
X1205913Y594500D03*
X1205913Y590500D03*
X1205913Y586500D03*
X1205913Y582500D03*
X1205913Y578500D03*
X1205913Y574500D03*
X1205913Y570500D03*
X1205913Y566500D03*
D15*
X1213413Y559000D03*
X1217413Y559000D03*
X1221413Y559000D03*
X1225413Y559000D03*
X1229413Y559000D03*
X1233413Y559000D03*
X1237413Y559000D03*
X1241413Y559000D03*
X1245413Y559000D03*
X1249413Y559000D03*
X1253413Y559000D03*
X1257413Y559000D03*
D16*
X1235413Y588500D03*
D17*
X1229293Y514970D03*
X1246293Y514970D03*
X1246293Y528970D03*
X1229293Y528970D03*
D18*
X1319403Y625170D03*
X1294403Y625170D03*
D10*
X1298163Y570240D03*
X1288163Y570240D03*
D19*
X1339273Y648500D03*
X1132183Y485470D03*
D20*
X1335253Y570646D03*
X1335253Y495646D03*
D10*
X1307313Y570404D03*
X1307313Y560404D03*
X1279119Y570150D03*
X1279119Y560150D03*
X1528492Y584268D03*
X1518492Y584268D03*
X1427032Y527250D03*
X1427032Y517250D03*
X1492222Y527150D03*
X1492222Y517150D03*
X1518492Y594516D03*
X1528492Y594516D03*
X1520802Y536520D03*
X1520802Y526520D03*
X1416562Y527250D03*
X1416562Y517250D03*
X1417672Y619770D03*
X1417672Y629770D03*
X1468082Y642900D03*
X1468082Y652900D03*
X1517222Y640080D03*
X1527222Y640080D03*
X1511412Y527170D03*
X1501412Y527170D03*
X1482922Y517170D03*
X1482922Y527170D03*
X1442772Y527170D03*
X1442772Y517170D03*
X1501412Y517110D03*
X1511412Y517110D03*
X1547542Y640080D03*
X1537542Y640080D03*
D11*
X1368352Y501330D02*
X1368352Y494350D01*
X1361372Y494350D01*
X1361372Y501330D01*
X1368352Y501330D01*
X1368352Y499150D02*
X1361372Y499150D01*
X1385892Y501330D02*
X1385892Y494350D01*
X1378912Y494350D01*
X1378912Y501330D01*
X1385892Y501330D01*
X1385892Y499150D02*
X1378912Y499150D01*
D12*
X1367982Y685750D03*
X1372982Y685750D03*
X1377982Y685750D03*
X1382982Y685750D03*
X1387982Y685750D03*
X1392982Y685750D03*
X1397982Y685750D03*
X1402982Y685750D03*
X1407982Y685750D03*
X1412982Y685750D03*
X1417982Y685750D03*
X1422982Y685750D03*
X1447982Y685750D03*
X1452982Y685750D03*
X1457982Y685750D03*
X1462982Y685750D03*
X1467982Y685750D03*
X1472982Y685750D03*
X1477982Y685750D03*
X1482982Y685750D03*
X1487982Y685750D03*
X1492982Y685750D03*
X1497982Y685750D03*
X1502982Y685750D03*
X1507982Y685750D03*
X1512982Y685750D03*
X1517982Y685750D03*
X1522982Y685750D03*
X1527982Y685750D03*
X1532982Y685750D03*
X1537982Y685750D03*
X1542982Y685750D03*
X1547982Y685750D03*
X1552982Y685750D03*
D13*
X1441482Y488500D03*
X1399482Y488500D03*
X1420482Y501500D03*
D10*
X1518492Y605018D03*
X1528492Y605018D03*
X1501412Y536330D03*
X1511412Y536330D03*
X1379902Y523240D03*
X1369902Y523240D03*
X1477572Y652890D03*
X1477572Y642890D03*
D14*
X1489982Y566500D03*
X1489982Y570500D03*
X1489982Y574500D03*
X1489982Y578500D03*
X1489982Y582500D03*
X1489982Y586500D03*
X1489982Y590500D03*
X1489982Y594500D03*
X1489982Y598500D03*
X1489982Y602500D03*
X1489982Y606500D03*
X1489982Y610500D03*
D15*
X1482482Y618000D03*
X1478482Y618000D03*
X1474482Y618000D03*
X1470482Y618000D03*
X1466482Y618000D03*
X1462482Y618000D03*
X1458482Y618000D03*
X1454482Y618000D03*
X1450482Y618000D03*
X1446482Y618000D03*
X1442482Y618000D03*
X1438482Y618000D03*
D14*
X1430982Y610500D03*
X1430982Y606500D03*
X1430982Y602500D03*
X1430982Y598500D03*
X1430982Y594500D03*
X1430982Y590500D03*
X1430982Y586500D03*
X1430982Y582500D03*
X1430982Y578500D03*
X1430982Y574500D03*
X1430982Y570500D03*
X1430982Y566500D03*
D15*
X1438482Y559000D03*
X1442482Y559000D03*
X1446482Y559000D03*
X1450482Y559000D03*
X1454482Y559000D03*
X1458482Y559000D03*
X1462482Y559000D03*
X1466482Y559000D03*
X1470482Y559000D03*
X1474482Y559000D03*
X1478482Y559000D03*
X1482482Y559000D03*
D16*
X1460482Y588500D03*
D17*
X1454362Y514970D03*
X1471362Y514970D03*
X1471362Y528970D03*
X1454362Y528970D03*
D18*
X1544472Y625170D03*
X1519472Y625170D03*
D10*
X1523232Y570240D03*
X1513232Y570240D03*
D19*
X1564342Y648500D03*
X1357252Y485470D03*
D20*
X1560322Y570646D03*
X1560322Y495646D03*
D10*
X1532382Y570404D03*
X1532382Y560404D03*
X1504188Y570150D03*
X1504188Y560150D03*
X1753561Y584268D03*
X1743561Y584268D03*
X1652101Y527250D03*
X1652101Y517250D03*
X1717291Y527150D03*
X1717291Y517150D03*
X1743561Y594516D03*
X1753561Y594516D03*
X1745871Y536520D03*
X1745871Y526520D03*
X1641631Y527250D03*
X1641631Y517250D03*
X1642741Y619770D03*
X1642741Y629770D03*
X1693151Y642900D03*
X1693151Y652900D03*
X1742291Y640080D03*
X1752291Y640080D03*
X1736481Y527170D03*
X1726481Y527170D03*
X1707991Y517170D03*
X1707991Y527170D03*
X1667841Y527170D03*
X1667841Y517170D03*
X1726481Y517110D03*
X1736481Y517110D03*
X1772611Y640080D03*
X1762611Y640080D03*
D11*
X1593421Y501330D02*
X1593421Y494350D01*
X1586441Y494350D01*
X1586441Y501330D01*
X1593421Y501330D01*
X1593421Y499150D02*
X1586441Y499150D01*
X1610961Y501330D02*
X1610961Y494350D01*
X1603981Y494350D01*
X1603981Y501330D01*
X1610961Y501330D01*
X1610961Y499150D02*
X1603981Y499150D01*
D12*
X1593051Y685750D03*
X1598051Y685750D03*
X1603051Y685750D03*
X1608051Y685750D03*
X1613051Y685750D03*
X1618051Y685750D03*
X1623051Y685750D03*
X1628051Y685750D03*
X1633051Y685750D03*
X1638051Y685750D03*
X1643051Y685750D03*
X1648051Y685750D03*
X1673051Y685750D03*
X1678051Y685750D03*
X1683051Y685750D03*
X1688051Y685750D03*
X1693051Y685750D03*
X1698051Y685750D03*
X1703051Y685750D03*
X1708051Y685750D03*
X1713051Y685750D03*
X1718051Y685750D03*
X1723051Y685750D03*
X1728051Y685750D03*
X1733051Y685750D03*
X1738051Y685750D03*
X1743051Y685750D03*
X1748051Y685750D03*
X1753051Y685750D03*
X1758051Y685750D03*
X1763051Y685750D03*
X1768051Y685750D03*
X1773051Y685750D03*
X1778051Y685750D03*
D13*
X1666551Y488500D03*
X1624551Y488500D03*
X1645551Y501500D03*
D10*
X1743561Y605018D03*
X1753561Y605018D03*
X1726481Y536330D03*
X1736481Y536330D03*
X1604971Y523240D03*
X1594971Y523240D03*
X1702641Y652890D03*
X1702641Y642890D03*
D14*
X1715051Y566500D03*
X1715051Y570500D03*
X1715051Y574500D03*
X1715051Y578500D03*
X1715051Y582500D03*
X1715051Y586500D03*
X1715051Y590500D03*
X1715051Y594500D03*
X1715051Y598500D03*
X1715051Y602500D03*
X1715051Y606500D03*
X1715051Y610500D03*
D15*
X1707551Y618000D03*
X1703551Y618000D03*
X1699551Y618000D03*
X1695551Y618000D03*
X1691551Y618000D03*
X1687551Y618000D03*
X1683551Y618000D03*
X1679551Y618000D03*
X1675551Y618000D03*
X1671551Y618000D03*
X1667551Y618000D03*
X1663551Y618000D03*
D14*
X1656051Y610500D03*
X1656051Y606500D03*
X1656051Y602500D03*
X1656051Y598500D03*
X1656051Y594500D03*
X1656051Y590500D03*
X1656051Y586500D03*
X1656051Y582500D03*
X1656051Y578500D03*
X1656051Y574500D03*
X1656051Y570500D03*
X1656051Y566500D03*
D15*
X1663551Y559000D03*
X1667551Y559000D03*
X1671551Y559000D03*
X1675551Y559000D03*
X1679551Y559000D03*
X1683551Y559000D03*
X1687551Y559000D03*
X1691551Y559000D03*
X1695551Y559000D03*
X1699551Y559000D03*
X1703551Y559000D03*
X1707551Y559000D03*
D16*
X1685551Y588500D03*
D17*
X1679431Y514970D03*
X1696431Y514970D03*
X1696431Y528970D03*
X1679431Y528970D03*
D18*
X1769541Y625170D03*
X1744541Y625170D03*
D10*
X1748301Y570240D03*
X1738301Y570240D03*
D19*
X1789411Y648500D03*
X1582321Y485470D03*
D20*
X1785391Y570646D03*
X1785391Y495646D03*
D10*
X1757451Y570404D03*
X1757451Y560404D03*
X1729257Y570150D03*
X1729257Y560150D03*
D21*
X-26238Y635000D03*
X1821815Y635000D03*
D22*
X-35293Y68580D02*
X-35290Y68802D01*
X-35282Y69024D01*
X-35268Y69246D01*
X-35249Y69468D01*
X-35225Y69688D01*
X-35195Y69909D01*
X-35160Y70128D01*
X-35119Y70347D01*
X-35073Y70564D01*
X-35022Y70780D01*
X-34965Y70995D01*
X-34903Y71209D01*
X-34836Y71420D01*
X-34764Y71631D01*
X-34686Y71839D01*
X-34604Y72045D01*
X-34516Y72249D01*
X-34424Y72452D01*
X-34326Y72651D01*
X-34224Y72848D01*
X-34117Y73043D01*
X-34005Y73235D01*
X-33888Y73424D01*
X-33767Y73611D01*
X-33641Y73794D01*
X-33511Y73974D01*
X-33376Y74151D01*
X-33238Y74324D01*
X-33095Y74494D01*
X-32947Y74661D01*
X-32796Y74824D01*
X-32641Y74983D01*
X-32482Y75138D01*
X-32319Y75289D01*
X-32152Y75437D01*
X-31982Y75580D01*
X-31809Y75718D01*
X-31632Y75853D01*
X-31452Y75983D01*
X-31269Y76109D01*
X-31082Y76230D01*
X-30893Y76347D01*
X-30701Y76459D01*
X-30506Y76566D01*
X-30309Y76668D01*
X-30110Y76766D01*
X-29907Y76858D01*
X-29703Y76946D01*
X-29497Y77028D01*
X-29289Y77106D01*
X-29078Y77178D01*
X-28867Y77245D01*
X-28653Y77307D01*
X-28438Y77364D01*
X-28222Y77415D01*
X-28005Y77461D01*
X-27786Y77502D01*
X-27567Y77537D01*
X-27346Y77567D01*
X-27126Y77591D01*
X-26904Y77610D01*
X-26682Y77624D01*
X-26460Y77632D01*
X-26238Y77635D01*
X-26016Y77632D01*
X-25794Y77624D01*
X-25572Y77610D01*
X-25350Y77591D01*
X-25130Y77567D01*
X-24909Y77537D01*
X-24690Y77502D01*
X-24471Y77461D01*
X-24254Y77415D01*
X-24038Y77364D01*
X-23823Y77307D01*
X-23609Y77245D01*
X-23398Y77178D01*
X-23187Y77106D01*
X-22979Y77028D01*
X-22773Y76946D01*
X-22569Y76858D01*
X-22366Y76766D01*
X-22167Y76668D01*
X-21970Y76566D01*
X-21775Y76459D01*
X-21583Y76347D01*
X-21394Y76230D01*
X-21207Y76109D01*
X-21024Y75983D01*
X-20844Y75853D01*
X-20667Y75718D01*
X-20494Y75580D01*
X-20324Y75437D01*
X-20157Y75289D01*
X-19994Y75138D01*
X-19835Y74983D01*
X-19680Y74824D01*
X-19529Y74661D01*
X-19381Y74494D01*
X-19238Y74324D01*
X-19100Y74151D01*
X-18965Y73974D01*
X-18835Y73794D01*
X-18709Y73611D01*
X-18588Y73424D01*
X-18471Y73235D01*
X-18359Y73043D01*
X-18252Y72848D01*
X-18150Y72651D01*
X-18052Y72452D01*
X-17960Y72249D01*
X-17872Y72045D01*
X-17790Y71839D01*
X-17712Y71631D01*
X-17640Y71420D01*
X-17573Y71209D01*
X-17511Y70995D01*
X-17454Y70780D01*
X-17403Y70564D01*
X-17357Y70347D01*
X-17316Y70128D01*
X-17281Y69909D01*
X-17251Y69688D01*
X-17227Y69468D01*
X-17208Y69246D01*
X-17194Y69024D01*
X-17186Y68802D01*
X-17183Y68580D01*
X-17186Y68358D01*
X-17194Y68136D01*
X-17208Y67914D01*
X-17227Y67692D01*
X-17251Y67472D01*
X-17281Y67251D01*
X-17316Y67032D01*
X-17357Y66813D01*
X-17403Y66596D01*
X-17454Y66380D01*
X-17511Y66165D01*
X-17573Y65951D01*
X-17640Y65740D01*
X-17712Y65529D01*
X-17790Y65321D01*
X-17872Y65115D01*
X-17960Y64911D01*
X-18052Y64708D01*
X-18150Y64509D01*
X-18252Y64312D01*
X-18359Y64117D01*
X-18471Y63925D01*
X-18588Y63736D01*
X-18709Y63549D01*
X-18835Y63366D01*
X-18965Y63186D01*
X-19100Y63009D01*
X-19238Y62836D01*
X-19381Y62666D01*
X-19529Y62499D01*
X-19680Y62336D01*
X-19835Y62177D01*
X-19994Y62022D01*
X-20157Y61871D01*
X-20324Y61723D01*
X-20494Y61580D01*
X-20667Y61442D01*
X-20844Y61307D01*
X-21024Y61177D01*
X-21207Y61051D01*
X-21394Y60930D01*
X-21583Y60813D01*
X-21775Y60701D01*
X-21970Y60594D01*
X-22167Y60492D01*
X-22366Y60394D01*
X-22569Y60302D01*
X-22773Y60214D01*
X-22979Y60132D01*
X-23187Y60054D01*
X-23398Y59982D01*
X-23609Y59915D01*
X-23823Y59853D01*
X-24038Y59796D01*
X-24254Y59745D01*
X-24471Y59699D01*
X-24690Y59658D01*
X-24909Y59623D01*
X-25130Y59593D01*
X-25350Y59569D01*
X-25572Y59550D01*
X-25794Y59536D01*
X-26016Y59528D01*
X-26238Y59525D01*
X-26460Y59528D01*
X-26682Y59536D01*
X-26904Y59550D01*
X-27126Y59569D01*
X-27346Y59593D01*
X-27567Y59623D01*
X-27786Y59658D01*
X-28005Y59699D01*
X-28222Y59745D01*
X-28438Y59796D01*
X-28653Y59853D01*
X-28867Y59915D01*
X-29078Y59982D01*
X-29289Y60054D01*
X-29497Y60132D01*
X-29703Y60214D01*
X-29907Y60302D01*
X-30110Y60394D01*
X-30309Y60492D01*
X-30506Y60594D01*
X-30701Y60701D01*
X-30893Y60813D01*
X-31082Y60930D01*
X-31269Y61051D01*
X-31452Y61177D01*
X-31632Y61307D01*
X-31809Y61442D01*
X-31982Y61580D01*
X-32152Y61723D01*
X-32319Y61871D01*
X-32482Y62022D01*
X-32641Y62177D01*
X-32796Y62336D01*
X-32947Y62499D01*
X-33095Y62666D01*
X-33238Y62836D01*
X-33376Y63009D01*
X-33511Y63186D01*
X-33641Y63366D01*
X-33767Y63549D01*
X-33888Y63736D01*
X-34005Y63925D01*
X-34117Y64117D01*
X-34224Y64312D01*
X-34326Y64509D01*
X-34424Y64708D01*
X-34516Y64911D01*
X-34604Y65115D01*
X-34686Y65321D01*
X-34764Y65529D01*
X-34836Y65740D01*
X-34903Y65951D01*
X-34965Y66165D01*
X-35022Y66380D01*
X-35073Y66596D01*
X-35119Y66813D01*
X-35160Y67032D01*
X-35195Y67251D01*
X-35225Y67472D01*
X-35249Y67692D01*
X-35268Y67914D01*
X-35282Y68136D01*
X-35290Y68358D01*
X-35293Y68580D01*
D23*
X-26238Y68580D03*
M02*
