G04 EAGLE Gerber RS-274X export*
G75*
%MOMM*%
%FSLAX34Y34*%
%LPD*%
%INSolderpaste Top*%
%IPPOS*%
%AMOC8*
5,1,8,0,0,1.08239X$1,22.5*%
G01*
%ADD10R,0.600000X0.600000*%
%ADD11C,0.300000*%
%ADD12R,1.520281X1.520281*%
%ADD13R,0.800000X0.230000*%
%ADD14R,0.230000X0.800000*%
%ADD15R,1.200000X1.100000*%
%ADD16R,1.000000X1.800000*%
%ADD17R,1.500000X1.000000*%


D10*
X41990Y114232D03*
X51990Y114232D03*
X143450Y171250D03*
X143450Y181250D03*
X78260Y171350D03*
X78260Y181350D03*
X51990Y103984D03*
X41990Y103984D03*
X49680Y161980D03*
X49680Y171980D03*
X153920Y171250D03*
X153920Y181250D03*
X152810Y78730D03*
X152810Y68730D03*
X102400Y55600D03*
X102400Y45600D03*
X53260Y58420D03*
X43260Y58420D03*
X59070Y171330D03*
X69070Y171330D03*
X87560Y181330D03*
X87560Y171330D03*
X127710Y171330D03*
X127710Y181330D03*
X69070Y181390D03*
X59070Y181390D03*
X22940Y58420D03*
X32940Y58420D03*
D11*
X202120Y197160D02*
X202120Y204160D01*
X209120Y204160D01*
X209120Y197160D01*
X202120Y197160D01*
X202120Y200010D02*
X209120Y200010D01*
X209120Y202860D02*
X202120Y202860D01*
X184580Y204160D02*
X184580Y197160D01*
X184580Y204160D02*
X191580Y204160D01*
X191580Y197160D01*
X184580Y197160D01*
X184580Y200010D02*
X191580Y200010D01*
X191580Y202860D02*
X184580Y202860D01*
D10*
X51990Y93482D03*
X41990Y93482D03*
X69070Y162170D03*
X59070Y162170D03*
X190580Y175260D03*
X200580Y175260D03*
X92910Y45610D03*
X92910Y55610D03*
D12*
X120750Y120750D03*
X99250Y120750D03*
X99250Y99250D03*
X120750Y99250D03*
D13*
X80500Y132000D03*
X80500Y128000D03*
X80500Y124000D03*
X80500Y120000D03*
X80500Y116000D03*
X80500Y112000D03*
X80500Y108000D03*
X80500Y104000D03*
X80500Y100000D03*
X80500Y96000D03*
X80500Y92000D03*
X80500Y88000D03*
D14*
X88000Y80500D03*
X92000Y80500D03*
X96000Y80500D03*
X100000Y80500D03*
X104000Y80500D03*
X108000Y80500D03*
X112000Y80500D03*
X116000Y80500D03*
X120000Y80500D03*
X124000Y80500D03*
X128000Y80500D03*
X132000Y80500D03*
D13*
X139500Y88000D03*
X139500Y92000D03*
X139500Y96000D03*
X139500Y100000D03*
X139500Y104000D03*
X139500Y108000D03*
X139500Y112000D03*
X139500Y116000D03*
X139500Y120000D03*
X139500Y124000D03*
X139500Y128000D03*
X139500Y132000D03*
D14*
X132000Y139500D03*
X128000Y139500D03*
X124000Y139500D03*
X120000Y139500D03*
X116000Y139500D03*
X112000Y139500D03*
X108000Y139500D03*
X104000Y139500D03*
X100000Y139500D03*
X96000Y139500D03*
X92000Y139500D03*
X88000Y139500D03*
D15*
X116120Y183530D03*
X99120Y183530D03*
X99120Y169530D03*
X116120Y169530D03*
D16*
X26010Y73330D03*
X51010Y73330D03*
D10*
X47250Y128260D03*
X57250Y128260D03*
D17*
X10160Y127854D03*
X10160Y202854D03*
D10*
X38100Y128096D03*
X38100Y138096D03*
X66294Y128350D03*
X66294Y138350D03*
X267059Y114232D03*
X277059Y114232D03*
X368519Y171250D03*
X368519Y181250D03*
X303329Y171350D03*
X303329Y181350D03*
X277059Y103984D03*
X267059Y103984D03*
X274749Y161980D03*
X274749Y171980D03*
X378989Y171250D03*
X378989Y181250D03*
X377879Y78730D03*
X377879Y68730D03*
X327469Y55600D03*
X327469Y45600D03*
X278329Y58420D03*
X268329Y58420D03*
X284139Y171330D03*
X294139Y171330D03*
X312629Y181330D03*
X312629Y171330D03*
X352779Y171330D03*
X352779Y181330D03*
X294139Y181390D03*
X284139Y181390D03*
X248009Y58420D03*
X258009Y58420D03*
D11*
X427189Y197160D02*
X427189Y204160D01*
X434189Y204160D01*
X434189Y197160D01*
X427189Y197160D01*
X427189Y200010D02*
X434189Y200010D01*
X434189Y202860D02*
X427189Y202860D01*
X409649Y204160D02*
X409649Y197160D01*
X409649Y204160D02*
X416649Y204160D01*
X416649Y197160D01*
X409649Y197160D01*
X409649Y200010D02*
X416649Y200010D01*
X416649Y202860D02*
X409649Y202860D01*
D10*
X277059Y93482D03*
X267059Y93482D03*
X294139Y162170D03*
X284139Y162170D03*
X415649Y175260D03*
X425649Y175260D03*
X317979Y45610D03*
X317979Y55610D03*
D12*
X345819Y120750D03*
X324319Y120750D03*
X324319Y99250D03*
X345819Y99250D03*
D13*
X305569Y132000D03*
X305569Y128000D03*
X305569Y124000D03*
X305569Y120000D03*
X305569Y116000D03*
X305569Y112000D03*
X305569Y108000D03*
X305569Y104000D03*
X305569Y100000D03*
X305569Y96000D03*
X305569Y92000D03*
X305569Y88000D03*
D14*
X313069Y80500D03*
X317069Y80500D03*
X321069Y80500D03*
X325069Y80500D03*
X329069Y80500D03*
X333069Y80500D03*
X337069Y80500D03*
X341069Y80500D03*
X345069Y80500D03*
X349069Y80500D03*
X353069Y80500D03*
X357069Y80500D03*
D13*
X364569Y88000D03*
X364569Y92000D03*
X364569Y96000D03*
X364569Y100000D03*
X364569Y104000D03*
X364569Y108000D03*
X364569Y112000D03*
X364569Y116000D03*
X364569Y120000D03*
X364569Y124000D03*
X364569Y128000D03*
X364569Y132000D03*
D14*
X357069Y139500D03*
X353069Y139500D03*
X349069Y139500D03*
X345069Y139500D03*
X341069Y139500D03*
X337069Y139500D03*
X333069Y139500D03*
X329069Y139500D03*
X325069Y139500D03*
X321069Y139500D03*
X317069Y139500D03*
X313069Y139500D03*
D15*
X341189Y183530D03*
X324189Y183530D03*
X324189Y169530D03*
X341189Y169530D03*
D16*
X251079Y73330D03*
X276079Y73330D03*
D10*
X272319Y128260D03*
X282319Y128260D03*
D17*
X235229Y127854D03*
X235229Y202854D03*
D10*
X263169Y128096D03*
X263169Y138096D03*
X291363Y128350D03*
X291363Y138350D03*
X492154Y114232D03*
X502154Y114232D03*
X593614Y171250D03*
X593614Y181250D03*
X528424Y171350D03*
X528424Y181350D03*
X502154Y103984D03*
X492154Y103984D03*
X499844Y161980D03*
X499844Y171980D03*
X604084Y171250D03*
X604084Y181250D03*
X602974Y78730D03*
X602974Y68730D03*
X552564Y55600D03*
X552564Y45600D03*
X503424Y58420D03*
X493424Y58420D03*
X509234Y171330D03*
X519234Y171330D03*
X537724Y181330D03*
X537724Y171330D03*
X577874Y171330D03*
X577874Y181330D03*
X519234Y181390D03*
X509234Y181390D03*
X473104Y58420D03*
X483104Y58420D03*
D11*
X652284Y197160D02*
X652284Y204160D01*
X659284Y204160D01*
X659284Y197160D01*
X652284Y197160D01*
X652284Y200010D02*
X659284Y200010D01*
X659284Y202860D02*
X652284Y202860D01*
X634744Y204160D02*
X634744Y197160D01*
X634744Y204160D02*
X641744Y204160D01*
X641744Y197160D01*
X634744Y197160D01*
X634744Y200010D02*
X641744Y200010D01*
X641744Y202860D02*
X634744Y202860D01*
D10*
X502154Y93482D03*
X492154Y93482D03*
X519234Y162170D03*
X509234Y162170D03*
X640744Y175260D03*
X650744Y175260D03*
X543074Y45610D03*
X543074Y55610D03*
D12*
X570914Y120750D03*
X549414Y120750D03*
X549414Y99250D03*
X570914Y99250D03*
D13*
X530664Y132000D03*
X530664Y128000D03*
X530664Y124000D03*
X530664Y120000D03*
X530664Y116000D03*
X530664Y112000D03*
X530664Y108000D03*
X530664Y104000D03*
X530664Y100000D03*
X530664Y96000D03*
X530664Y92000D03*
X530664Y88000D03*
D14*
X538164Y80500D03*
X542164Y80500D03*
X546164Y80500D03*
X550164Y80500D03*
X554164Y80500D03*
X558164Y80500D03*
X562164Y80500D03*
X566164Y80500D03*
X570164Y80500D03*
X574164Y80500D03*
X578164Y80500D03*
X582164Y80500D03*
D13*
X589664Y88000D03*
X589664Y92000D03*
X589664Y96000D03*
X589664Y100000D03*
X589664Y104000D03*
X589664Y108000D03*
X589664Y112000D03*
X589664Y116000D03*
X589664Y120000D03*
X589664Y124000D03*
X589664Y128000D03*
X589664Y132000D03*
D14*
X582164Y139500D03*
X578164Y139500D03*
X574164Y139500D03*
X570164Y139500D03*
X566164Y139500D03*
X562164Y139500D03*
X558164Y139500D03*
X554164Y139500D03*
X550164Y139500D03*
X546164Y139500D03*
X542164Y139500D03*
X538164Y139500D03*
D15*
X566284Y183530D03*
X549284Y183530D03*
X549284Y169530D03*
X566284Y169530D03*
D16*
X476174Y73330D03*
X501174Y73330D03*
D10*
X497414Y128260D03*
X507414Y128260D03*
D17*
X460324Y127854D03*
X460324Y202854D03*
D10*
X488264Y128096D03*
X488264Y138096D03*
X516458Y128350D03*
X516458Y138350D03*
X717224Y114232D03*
X727224Y114232D03*
X818684Y171250D03*
X818684Y181250D03*
X753494Y171350D03*
X753494Y181350D03*
X727224Y103984D03*
X717224Y103984D03*
X724914Y161980D03*
X724914Y171980D03*
X829154Y171250D03*
X829154Y181250D03*
X828044Y78730D03*
X828044Y68730D03*
X777634Y55600D03*
X777634Y45600D03*
X728494Y58420D03*
X718494Y58420D03*
X734304Y171330D03*
X744304Y171330D03*
X762794Y181330D03*
X762794Y171330D03*
X802944Y171330D03*
X802944Y181330D03*
X744304Y181390D03*
X734304Y181390D03*
X698174Y58420D03*
X708174Y58420D03*
D11*
X877354Y197160D02*
X877354Y204160D01*
X884354Y204160D01*
X884354Y197160D01*
X877354Y197160D01*
X877354Y200010D02*
X884354Y200010D01*
X884354Y202860D02*
X877354Y202860D01*
X859814Y204160D02*
X859814Y197160D01*
X859814Y204160D02*
X866814Y204160D01*
X866814Y197160D01*
X859814Y197160D01*
X859814Y200010D02*
X866814Y200010D01*
X866814Y202860D02*
X859814Y202860D01*
D10*
X727224Y93482D03*
X717224Y93482D03*
X744304Y162170D03*
X734304Y162170D03*
X865814Y175260D03*
X875814Y175260D03*
X768144Y45610D03*
X768144Y55610D03*
D12*
X795984Y120750D03*
X774484Y120750D03*
X774484Y99250D03*
X795984Y99250D03*
D13*
X755734Y132000D03*
X755734Y128000D03*
X755734Y124000D03*
X755734Y120000D03*
X755734Y116000D03*
X755734Y112000D03*
X755734Y108000D03*
X755734Y104000D03*
X755734Y100000D03*
X755734Y96000D03*
X755734Y92000D03*
X755734Y88000D03*
D14*
X763234Y80500D03*
X767234Y80500D03*
X771234Y80500D03*
X775234Y80500D03*
X779234Y80500D03*
X783234Y80500D03*
X787234Y80500D03*
X791234Y80500D03*
X795234Y80500D03*
X799234Y80500D03*
X803234Y80500D03*
X807234Y80500D03*
D13*
X814734Y88000D03*
X814734Y92000D03*
X814734Y96000D03*
X814734Y100000D03*
X814734Y104000D03*
X814734Y108000D03*
X814734Y112000D03*
X814734Y116000D03*
X814734Y120000D03*
X814734Y124000D03*
X814734Y128000D03*
X814734Y132000D03*
D14*
X807234Y139500D03*
X803234Y139500D03*
X799234Y139500D03*
X795234Y139500D03*
X791234Y139500D03*
X787234Y139500D03*
X783234Y139500D03*
X779234Y139500D03*
X775234Y139500D03*
X771234Y139500D03*
X767234Y139500D03*
X763234Y139500D03*
D15*
X791354Y183530D03*
X774354Y183530D03*
X774354Y169530D03*
X791354Y169530D03*
D16*
X701244Y73330D03*
X726244Y73330D03*
D10*
X722484Y128260D03*
X732484Y128260D03*
D17*
X685394Y127854D03*
X685394Y202854D03*
D10*
X713334Y128096D03*
X713334Y138096D03*
X741528Y128350D03*
X741528Y138350D03*
X942318Y114232D03*
X952318Y114232D03*
X1043778Y171250D03*
X1043778Y181250D03*
X978588Y171350D03*
X978588Y181350D03*
X952318Y103984D03*
X942318Y103984D03*
X950008Y161980D03*
X950008Y171980D03*
X1054248Y171250D03*
X1054248Y181250D03*
X1053138Y78730D03*
X1053138Y68730D03*
X1002728Y55600D03*
X1002728Y45600D03*
X953588Y58420D03*
X943588Y58420D03*
X959398Y171330D03*
X969398Y171330D03*
X987888Y181330D03*
X987888Y171330D03*
X1028038Y171330D03*
X1028038Y181330D03*
X969398Y181390D03*
X959398Y181390D03*
X923268Y58420D03*
X933268Y58420D03*
D11*
X1102448Y197160D02*
X1102448Y204160D01*
X1109448Y204160D01*
X1109448Y197160D01*
X1102448Y197160D01*
X1102448Y200010D02*
X1109448Y200010D01*
X1109448Y202860D02*
X1102448Y202860D01*
X1084908Y204160D02*
X1084908Y197160D01*
X1084908Y204160D02*
X1091908Y204160D01*
X1091908Y197160D01*
X1084908Y197160D01*
X1084908Y200010D02*
X1091908Y200010D01*
X1091908Y202860D02*
X1084908Y202860D01*
D10*
X952318Y93482D03*
X942318Y93482D03*
X969398Y162170D03*
X959398Y162170D03*
X1090908Y175260D03*
X1100908Y175260D03*
X993238Y45610D03*
X993238Y55610D03*
D12*
X1021078Y120750D03*
X999578Y120750D03*
X999578Y99250D03*
X1021078Y99250D03*
D13*
X980828Y132000D03*
X980828Y128000D03*
X980828Y124000D03*
X980828Y120000D03*
X980828Y116000D03*
X980828Y112000D03*
X980828Y108000D03*
X980828Y104000D03*
X980828Y100000D03*
X980828Y96000D03*
X980828Y92000D03*
X980828Y88000D03*
D14*
X988328Y80500D03*
X992328Y80500D03*
X996328Y80500D03*
X1000328Y80500D03*
X1004328Y80500D03*
X1008328Y80500D03*
X1012328Y80500D03*
X1016328Y80500D03*
X1020328Y80500D03*
X1024328Y80500D03*
X1028328Y80500D03*
X1032328Y80500D03*
D13*
X1039828Y88000D03*
X1039828Y92000D03*
X1039828Y96000D03*
X1039828Y100000D03*
X1039828Y104000D03*
X1039828Y108000D03*
X1039828Y112000D03*
X1039828Y116000D03*
X1039828Y120000D03*
X1039828Y124000D03*
X1039828Y128000D03*
X1039828Y132000D03*
D14*
X1032328Y139500D03*
X1028328Y139500D03*
X1024328Y139500D03*
X1020328Y139500D03*
X1016328Y139500D03*
X1012328Y139500D03*
X1008328Y139500D03*
X1004328Y139500D03*
X1000328Y139500D03*
X996328Y139500D03*
X992328Y139500D03*
X988328Y139500D03*
D15*
X1016448Y183530D03*
X999448Y183530D03*
X999448Y169530D03*
X1016448Y169530D03*
D16*
X926338Y73330D03*
X951338Y73330D03*
D10*
X947578Y128260D03*
X957578Y128260D03*
D17*
X910488Y127854D03*
X910488Y202854D03*
D10*
X938428Y128096D03*
X938428Y138096D03*
X966622Y128350D03*
X966622Y138350D03*
X1167388Y114232D03*
X1177388Y114232D03*
X1268848Y171250D03*
X1268848Y181250D03*
X1203658Y171350D03*
X1203658Y181350D03*
X1177388Y103984D03*
X1167388Y103984D03*
X1175078Y161980D03*
X1175078Y171980D03*
X1279318Y171250D03*
X1279318Y181250D03*
X1278208Y78730D03*
X1278208Y68730D03*
X1227798Y55600D03*
X1227798Y45600D03*
X1178658Y58420D03*
X1168658Y58420D03*
X1184468Y171330D03*
X1194468Y171330D03*
X1212958Y181330D03*
X1212958Y171330D03*
X1253108Y171330D03*
X1253108Y181330D03*
X1194468Y181390D03*
X1184468Y181390D03*
X1148338Y58420D03*
X1158338Y58420D03*
D11*
X1327518Y197160D02*
X1327518Y204160D01*
X1334518Y204160D01*
X1334518Y197160D01*
X1327518Y197160D01*
X1327518Y200010D02*
X1334518Y200010D01*
X1334518Y202860D02*
X1327518Y202860D01*
X1309978Y204160D02*
X1309978Y197160D01*
X1309978Y204160D02*
X1316978Y204160D01*
X1316978Y197160D01*
X1309978Y197160D01*
X1309978Y200010D02*
X1316978Y200010D01*
X1316978Y202860D02*
X1309978Y202860D01*
D10*
X1177388Y93482D03*
X1167388Y93482D03*
X1194468Y162170D03*
X1184468Y162170D03*
X1315978Y175260D03*
X1325978Y175260D03*
X1218308Y45610D03*
X1218308Y55610D03*
D12*
X1246148Y120750D03*
X1224648Y120750D03*
X1224648Y99250D03*
X1246148Y99250D03*
D13*
X1205898Y132000D03*
X1205898Y128000D03*
X1205898Y124000D03*
X1205898Y120000D03*
X1205898Y116000D03*
X1205898Y112000D03*
X1205898Y108000D03*
X1205898Y104000D03*
X1205898Y100000D03*
X1205898Y96000D03*
X1205898Y92000D03*
X1205898Y88000D03*
D14*
X1213398Y80500D03*
X1217398Y80500D03*
X1221398Y80500D03*
X1225398Y80500D03*
X1229398Y80500D03*
X1233398Y80500D03*
X1237398Y80500D03*
X1241398Y80500D03*
X1245398Y80500D03*
X1249398Y80500D03*
X1253398Y80500D03*
X1257398Y80500D03*
D13*
X1264898Y88000D03*
X1264898Y92000D03*
X1264898Y96000D03*
X1264898Y100000D03*
X1264898Y104000D03*
X1264898Y108000D03*
X1264898Y112000D03*
X1264898Y116000D03*
X1264898Y120000D03*
X1264898Y124000D03*
X1264898Y128000D03*
X1264898Y132000D03*
D14*
X1257398Y139500D03*
X1253398Y139500D03*
X1249398Y139500D03*
X1245398Y139500D03*
X1241398Y139500D03*
X1237398Y139500D03*
X1233398Y139500D03*
X1229398Y139500D03*
X1225398Y139500D03*
X1221398Y139500D03*
X1217398Y139500D03*
X1213398Y139500D03*
D15*
X1241518Y183530D03*
X1224518Y183530D03*
X1224518Y169530D03*
X1241518Y169530D03*
D16*
X1151408Y73330D03*
X1176408Y73330D03*
D10*
X1172648Y128260D03*
X1182648Y128260D03*
D17*
X1135558Y127854D03*
X1135558Y202854D03*
D10*
X1163498Y128096D03*
X1163498Y138096D03*
X1191692Y128350D03*
X1191692Y138350D03*
X1392483Y114232D03*
X1402483Y114232D03*
X1493943Y171250D03*
X1493943Y181250D03*
X1428753Y171350D03*
X1428753Y181350D03*
X1402483Y103984D03*
X1392483Y103984D03*
X1400173Y161980D03*
X1400173Y171980D03*
X1504413Y171250D03*
X1504413Y181250D03*
X1503303Y78730D03*
X1503303Y68730D03*
X1452893Y55600D03*
X1452893Y45600D03*
X1403753Y58420D03*
X1393753Y58420D03*
X1409563Y171330D03*
X1419563Y171330D03*
X1438053Y181330D03*
X1438053Y171330D03*
X1478203Y171330D03*
X1478203Y181330D03*
X1419563Y181390D03*
X1409563Y181390D03*
X1373433Y58420D03*
X1383433Y58420D03*
D11*
X1552613Y197160D02*
X1552613Y204160D01*
X1559613Y204160D01*
X1559613Y197160D01*
X1552613Y197160D01*
X1552613Y200010D02*
X1559613Y200010D01*
X1559613Y202860D02*
X1552613Y202860D01*
X1535073Y204160D02*
X1535073Y197160D01*
X1535073Y204160D02*
X1542073Y204160D01*
X1542073Y197160D01*
X1535073Y197160D01*
X1535073Y200010D02*
X1542073Y200010D01*
X1542073Y202860D02*
X1535073Y202860D01*
D10*
X1402483Y93482D03*
X1392483Y93482D03*
X1419563Y162170D03*
X1409563Y162170D03*
X1541073Y175260D03*
X1551073Y175260D03*
X1443403Y45610D03*
X1443403Y55610D03*
D12*
X1471243Y120750D03*
X1449743Y120750D03*
X1449743Y99250D03*
X1471243Y99250D03*
D13*
X1430993Y132000D03*
X1430993Y128000D03*
X1430993Y124000D03*
X1430993Y120000D03*
X1430993Y116000D03*
X1430993Y112000D03*
X1430993Y108000D03*
X1430993Y104000D03*
X1430993Y100000D03*
X1430993Y96000D03*
X1430993Y92000D03*
X1430993Y88000D03*
D14*
X1438493Y80500D03*
X1442493Y80500D03*
X1446493Y80500D03*
X1450493Y80500D03*
X1454493Y80500D03*
X1458493Y80500D03*
X1462493Y80500D03*
X1466493Y80500D03*
X1470493Y80500D03*
X1474493Y80500D03*
X1478493Y80500D03*
X1482493Y80500D03*
D13*
X1489993Y88000D03*
X1489993Y92000D03*
X1489993Y96000D03*
X1489993Y100000D03*
X1489993Y104000D03*
X1489993Y108000D03*
X1489993Y112000D03*
X1489993Y116000D03*
X1489993Y120000D03*
X1489993Y124000D03*
X1489993Y128000D03*
X1489993Y132000D03*
D14*
X1482493Y139500D03*
X1478493Y139500D03*
X1474493Y139500D03*
X1470493Y139500D03*
X1466493Y139500D03*
X1462493Y139500D03*
X1458493Y139500D03*
X1454493Y139500D03*
X1450493Y139500D03*
X1446493Y139500D03*
X1442493Y139500D03*
X1438493Y139500D03*
D15*
X1466613Y183530D03*
X1449613Y183530D03*
X1449613Y169530D03*
X1466613Y169530D03*
D16*
X1376503Y73330D03*
X1401503Y73330D03*
D10*
X1397743Y128260D03*
X1407743Y128260D03*
D17*
X1360653Y127854D03*
X1360653Y202854D03*
D10*
X1388593Y128096D03*
X1388593Y138096D03*
X1416787Y128350D03*
X1416787Y138350D03*
X1617552Y114232D03*
X1627552Y114232D03*
X1719012Y171250D03*
X1719012Y181250D03*
X1653822Y171350D03*
X1653822Y181350D03*
X1627552Y103984D03*
X1617552Y103984D03*
X1625242Y161980D03*
X1625242Y171980D03*
X1729482Y171250D03*
X1729482Y181250D03*
X1728372Y78730D03*
X1728372Y68730D03*
X1677962Y55600D03*
X1677962Y45600D03*
X1628822Y58420D03*
X1618822Y58420D03*
X1634632Y171330D03*
X1644632Y171330D03*
X1663122Y181330D03*
X1663122Y171330D03*
X1703272Y171330D03*
X1703272Y181330D03*
X1644632Y181390D03*
X1634632Y181390D03*
X1598502Y58420D03*
X1608502Y58420D03*
D11*
X1777682Y197160D02*
X1777682Y204160D01*
X1784682Y204160D01*
X1784682Y197160D01*
X1777682Y197160D01*
X1777682Y200010D02*
X1784682Y200010D01*
X1784682Y202860D02*
X1777682Y202860D01*
X1760142Y204160D02*
X1760142Y197160D01*
X1760142Y204160D02*
X1767142Y204160D01*
X1767142Y197160D01*
X1760142Y197160D01*
X1760142Y200010D02*
X1767142Y200010D01*
X1767142Y202860D02*
X1760142Y202860D01*
D10*
X1627552Y93482D03*
X1617552Y93482D03*
X1644632Y162170D03*
X1634632Y162170D03*
X1766142Y175260D03*
X1776142Y175260D03*
X1668472Y45610D03*
X1668472Y55610D03*
D12*
X1696312Y120750D03*
X1674812Y120750D03*
X1674812Y99250D03*
X1696312Y99250D03*
D13*
X1656062Y132000D03*
X1656062Y128000D03*
X1656062Y124000D03*
X1656062Y120000D03*
X1656062Y116000D03*
X1656062Y112000D03*
X1656062Y108000D03*
X1656062Y104000D03*
X1656062Y100000D03*
X1656062Y96000D03*
X1656062Y92000D03*
X1656062Y88000D03*
D14*
X1663562Y80500D03*
X1667562Y80500D03*
X1671562Y80500D03*
X1675562Y80500D03*
X1679562Y80500D03*
X1683562Y80500D03*
X1687562Y80500D03*
X1691562Y80500D03*
X1695562Y80500D03*
X1699562Y80500D03*
X1703562Y80500D03*
X1707562Y80500D03*
D13*
X1715062Y88000D03*
X1715062Y92000D03*
X1715062Y96000D03*
X1715062Y100000D03*
X1715062Y104000D03*
X1715062Y108000D03*
X1715062Y112000D03*
X1715062Y116000D03*
X1715062Y120000D03*
X1715062Y124000D03*
X1715062Y128000D03*
X1715062Y132000D03*
D14*
X1707562Y139500D03*
X1703562Y139500D03*
X1699562Y139500D03*
X1695562Y139500D03*
X1691562Y139500D03*
X1687562Y139500D03*
X1683562Y139500D03*
X1679562Y139500D03*
X1675562Y139500D03*
X1671562Y139500D03*
X1667562Y139500D03*
X1663562Y139500D03*
D15*
X1691682Y183530D03*
X1674682Y183530D03*
X1674682Y169530D03*
X1691682Y169530D03*
D16*
X1601572Y73330D03*
X1626572Y73330D03*
D10*
X1622812Y128260D03*
X1632812Y128260D03*
D17*
X1585722Y127854D03*
X1585722Y202854D03*
D10*
X1613662Y128096D03*
X1613662Y138096D03*
X1641856Y128350D03*
X1641856Y138350D03*
X177999Y584268D03*
X167999Y584268D03*
X76539Y527250D03*
X76539Y517250D03*
X141729Y527150D03*
X141729Y517150D03*
X167999Y594516D03*
X177999Y594516D03*
X170309Y536520D03*
X170309Y526520D03*
X66069Y527250D03*
X66069Y517250D03*
X67179Y619770D03*
X67179Y629770D03*
X117589Y642900D03*
X117589Y652900D03*
X166729Y640080D03*
X176729Y640080D03*
X160919Y527170D03*
X150919Y527170D03*
X132429Y517170D03*
X132429Y527170D03*
X92279Y527170D03*
X92279Y517170D03*
X150919Y517110D03*
X160919Y517110D03*
X197049Y640080D03*
X187049Y640080D03*
D11*
X17869Y501340D02*
X17869Y494340D01*
X10869Y494340D01*
X10869Y501340D01*
X17869Y501340D01*
X17869Y497190D02*
X10869Y497190D01*
X10869Y500040D02*
X17869Y500040D01*
X35409Y501340D02*
X35409Y494340D01*
X28409Y494340D01*
X28409Y501340D01*
X35409Y501340D01*
X35409Y497190D02*
X28409Y497190D01*
X28409Y500040D02*
X35409Y500040D01*
D10*
X167999Y605018D03*
X177999Y605018D03*
X150919Y536330D03*
X160919Y536330D03*
X29409Y523240D03*
X19409Y523240D03*
X127079Y652890D03*
X127079Y642890D03*
D12*
X99239Y577750D03*
X120739Y577750D03*
X120739Y599250D03*
X99239Y599250D03*
D13*
X139489Y566500D03*
X139489Y570500D03*
X139489Y574500D03*
X139489Y578500D03*
X139489Y582500D03*
X139489Y586500D03*
X139489Y590500D03*
X139489Y594500D03*
X139489Y598500D03*
X139489Y602500D03*
X139489Y606500D03*
X139489Y610500D03*
D14*
X131989Y618000D03*
X127989Y618000D03*
X123989Y618000D03*
X119989Y618000D03*
X115989Y618000D03*
X111989Y618000D03*
X107989Y618000D03*
X103989Y618000D03*
X99989Y618000D03*
X95989Y618000D03*
X91989Y618000D03*
X87989Y618000D03*
D13*
X80489Y610500D03*
X80489Y606500D03*
X80489Y602500D03*
X80489Y598500D03*
X80489Y594500D03*
X80489Y590500D03*
X80489Y586500D03*
X80489Y582500D03*
X80489Y578500D03*
X80489Y574500D03*
X80489Y570500D03*
X80489Y566500D03*
D14*
X87989Y559000D03*
X91989Y559000D03*
X95989Y559000D03*
X99989Y559000D03*
X103989Y559000D03*
X107989Y559000D03*
X111989Y559000D03*
X115989Y559000D03*
X119989Y559000D03*
X123989Y559000D03*
X127989Y559000D03*
X131989Y559000D03*
D15*
X103869Y514970D03*
X120869Y514970D03*
X120869Y528970D03*
X103869Y528970D03*
D16*
X193979Y625170D03*
X168979Y625170D03*
D10*
X172739Y570240D03*
X162739Y570240D03*
D17*
X209829Y570646D03*
X209829Y495646D03*
D10*
X181889Y570404D03*
X181889Y560404D03*
X153695Y570150D03*
X153695Y560150D03*
X403094Y584268D03*
X393094Y584268D03*
X301634Y527250D03*
X301634Y517250D03*
X366824Y527150D03*
X366824Y517150D03*
X393094Y594516D03*
X403094Y594516D03*
X395404Y536520D03*
X395404Y526520D03*
X291164Y527250D03*
X291164Y517250D03*
X292274Y619770D03*
X292274Y629770D03*
X342684Y642900D03*
X342684Y652900D03*
X391824Y640080D03*
X401824Y640080D03*
X386014Y527170D03*
X376014Y527170D03*
X357524Y517170D03*
X357524Y527170D03*
X317374Y527170D03*
X317374Y517170D03*
X376014Y517110D03*
X386014Y517110D03*
X422144Y640080D03*
X412144Y640080D03*
D11*
X242964Y501340D02*
X242964Y494340D01*
X235964Y494340D01*
X235964Y501340D01*
X242964Y501340D01*
X242964Y497190D02*
X235964Y497190D01*
X235964Y500040D02*
X242964Y500040D01*
X260504Y501340D02*
X260504Y494340D01*
X253504Y494340D01*
X253504Y501340D01*
X260504Y501340D01*
X260504Y497190D02*
X253504Y497190D01*
X253504Y500040D02*
X260504Y500040D01*
D10*
X393094Y605018D03*
X403094Y605018D03*
X376014Y536330D03*
X386014Y536330D03*
X254504Y523240D03*
X244504Y523240D03*
X352174Y652890D03*
X352174Y642890D03*
D12*
X324334Y577750D03*
X345834Y577750D03*
X345834Y599250D03*
X324334Y599250D03*
D13*
X364584Y566500D03*
X364584Y570500D03*
X364584Y574500D03*
X364584Y578500D03*
X364584Y582500D03*
X364584Y586500D03*
X364584Y590500D03*
X364584Y594500D03*
X364584Y598500D03*
X364584Y602500D03*
X364584Y606500D03*
X364584Y610500D03*
D14*
X357084Y618000D03*
X353084Y618000D03*
X349084Y618000D03*
X345084Y618000D03*
X341084Y618000D03*
X337084Y618000D03*
X333084Y618000D03*
X329084Y618000D03*
X325084Y618000D03*
X321084Y618000D03*
X317084Y618000D03*
X313084Y618000D03*
D13*
X305584Y610500D03*
X305584Y606500D03*
X305584Y602500D03*
X305584Y598500D03*
X305584Y594500D03*
X305584Y590500D03*
X305584Y586500D03*
X305584Y582500D03*
X305584Y578500D03*
X305584Y574500D03*
X305584Y570500D03*
X305584Y566500D03*
D14*
X313084Y559000D03*
X317084Y559000D03*
X321084Y559000D03*
X325084Y559000D03*
X329084Y559000D03*
X333084Y559000D03*
X337084Y559000D03*
X341084Y559000D03*
X345084Y559000D03*
X349084Y559000D03*
X353084Y559000D03*
X357084Y559000D03*
D15*
X328964Y514970D03*
X345964Y514970D03*
X345964Y528970D03*
X328964Y528970D03*
D16*
X419074Y625170D03*
X394074Y625170D03*
D10*
X397834Y570240D03*
X387834Y570240D03*
D17*
X434924Y570646D03*
X434924Y495646D03*
D10*
X406984Y570404D03*
X406984Y560404D03*
X378790Y570150D03*
X378790Y560150D03*
X628164Y584268D03*
X618164Y584268D03*
X526704Y527250D03*
X526704Y517250D03*
X591894Y527150D03*
X591894Y517150D03*
X618164Y594516D03*
X628164Y594516D03*
X620474Y536520D03*
X620474Y526520D03*
X516234Y527250D03*
X516234Y517250D03*
X517344Y619770D03*
X517344Y629770D03*
X567754Y642900D03*
X567754Y652900D03*
X616894Y640080D03*
X626894Y640080D03*
X611084Y527170D03*
X601084Y527170D03*
X582594Y517170D03*
X582594Y527170D03*
X542444Y527170D03*
X542444Y517170D03*
X601084Y517110D03*
X611084Y517110D03*
X647214Y640080D03*
X637214Y640080D03*
D11*
X468034Y501340D02*
X468034Y494340D01*
X461034Y494340D01*
X461034Y501340D01*
X468034Y501340D01*
X468034Y497190D02*
X461034Y497190D01*
X461034Y500040D02*
X468034Y500040D01*
X485574Y501340D02*
X485574Y494340D01*
X478574Y494340D01*
X478574Y501340D01*
X485574Y501340D01*
X485574Y497190D02*
X478574Y497190D01*
X478574Y500040D02*
X485574Y500040D01*
D10*
X618164Y605018D03*
X628164Y605018D03*
X601084Y536330D03*
X611084Y536330D03*
X479574Y523240D03*
X469574Y523240D03*
X577244Y652890D03*
X577244Y642890D03*
D12*
X549404Y577750D03*
X570904Y577750D03*
X570904Y599250D03*
X549404Y599250D03*
D13*
X589654Y566500D03*
X589654Y570500D03*
X589654Y574500D03*
X589654Y578500D03*
X589654Y582500D03*
X589654Y586500D03*
X589654Y590500D03*
X589654Y594500D03*
X589654Y598500D03*
X589654Y602500D03*
X589654Y606500D03*
X589654Y610500D03*
D14*
X582154Y618000D03*
X578154Y618000D03*
X574154Y618000D03*
X570154Y618000D03*
X566154Y618000D03*
X562154Y618000D03*
X558154Y618000D03*
X554154Y618000D03*
X550154Y618000D03*
X546154Y618000D03*
X542154Y618000D03*
X538154Y618000D03*
D13*
X530654Y610500D03*
X530654Y606500D03*
X530654Y602500D03*
X530654Y598500D03*
X530654Y594500D03*
X530654Y590500D03*
X530654Y586500D03*
X530654Y582500D03*
X530654Y578500D03*
X530654Y574500D03*
X530654Y570500D03*
X530654Y566500D03*
D14*
X538154Y559000D03*
X542154Y559000D03*
X546154Y559000D03*
X550154Y559000D03*
X554154Y559000D03*
X558154Y559000D03*
X562154Y559000D03*
X566154Y559000D03*
X570154Y559000D03*
X574154Y559000D03*
X578154Y559000D03*
X582154Y559000D03*
D15*
X554034Y514970D03*
X571034Y514970D03*
X571034Y528970D03*
X554034Y528970D03*
D16*
X644144Y625170D03*
X619144Y625170D03*
D10*
X622904Y570240D03*
X612904Y570240D03*
D17*
X659994Y570646D03*
X659994Y495646D03*
D10*
X632054Y570404D03*
X632054Y560404D03*
X603860Y570150D03*
X603860Y560150D03*
X853258Y584268D03*
X843258Y584268D03*
X751798Y527250D03*
X751798Y517250D03*
X816988Y527150D03*
X816988Y517150D03*
X843258Y594516D03*
X853258Y594516D03*
X845568Y536520D03*
X845568Y526520D03*
X741328Y527250D03*
X741328Y517250D03*
X742438Y619770D03*
X742438Y629770D03*
X792848Y642900D03*
X792848Y652900D03*
X841988Y640080D03*
X851988Y640080D03*
X836178Y527170D03*
X826178Y527170D03*
X807688Y517170D03*
X807688Y527170D03*
X767538Y527170D03*
X767538Y517170D03*
X826178Y517110D03*
X836178Y517110D03*
X872308Y640080D03*
X862308Y640080D03*
D11*
X693128Y501340D02*
X693128Y494340D01*
X686128Y494340D01*
X686128Y501340D01*
X693128Y501340D01*
X693128Y497190D02*
X686128Y497190D01*
X686128Y500040D02*
X693128Y500040D01*
X710668Y501340D02*
X710668Y494340D01*
X703668Y494340D01*
X703668Y501340D01*
X710668Y501340D01*
X710668Y497190D02*
X703668Y497190D01*
X703668Y500040D02*
X710668Y500040D01*
D10*
X843258Y605018D03*
X853258Y605018D03*
X826178Y536330D03*
X836178Y536330D03*
X704668Y523240D03*
X694668Y523240D03*
X802338Y652890D03*
X802338Y642890D03*
D12*
X774498Y577750D03*
X795998Y577750D03*
X795998Y599250D03*
X774498Y599250D03*
D13*
X814748Y566500D03*
X814748Y570500D03*
X814748Y574500D03*
X814748Y578500D03*
X814748Y582500D03*
X814748Y586500D03*
X814748Y590500D03*
X814748Y594500D03*
X814748Y598500D03*
X814748Y602500D03*
X814748Y606500D03*
X814748Y610500D03*
D14*
X807248Y618000D03*
X803248Y618000D03*
X799248Y618000D03*
X795248Y618000D03*
X791248Y618000D03*
X787248Y618000D03*
X783248Y618000D03*
X779248Y618000D03*
X775248Y618000D03*
X771248Y618000D03*
X767248Y618000D03*
X763248Y618000D03*
D13*
X755748Y610500D03*
X755748Y606500D03*
X755748Y602500D03*
X755748Y598500D03*
X755748Y594500D03*
X755748Y590500D03*
X755748Y586500D03*
X755748Y582500D03*
X755748Y578500D03*
X755748Y574500D03*
X755748Y570500D03*
X755748Y566500D03*
D14*
X763248Y559000D03*
X767248Y559000D03*
X771248Y559000D03*
X775248Y559000D03*
X779248Y559000D03*
X783248Y559000D03*
X787248Y559000D03*
X791248Y559000D03*
X795248Y559000D03*
X799248Y559000D03*
X803248Y559000D03*
X807248Y559000D03*
D15*
X779128Y514970D03*
X796128Y514970D03*
X796128Y528970D03*
X779128Y528970D03*
D16*
X869238Y625170D03*
X844238Y625170D03*
D10*
X847998Y570240D03*
X837998Y570240D03*
D17*
X885088Y570646D03*
X885088Y495646D03*
D10*
X857148Y570404D03*
X857148Y560404D03*
X828954Y570150D03*
X828954Y560150D03*
X1078328Y584268D03*
X1068328Y584268D03*
X976868Y527250D03*
X976868Y517250D03*
X1042058Y527150D03*
X1042058Y517150D03*
X1068328Y594516D03*
X1078328Y594516D03*
X1070638Y536520D03*
X1070638Y526520D03*
X966398Y527250D03*
X966398Y517250D03*
X967508Y619770D03*
X967508Y629770D03*
X1017918Y642900D03*
X1017918Y652900D03*
X1067058Y640080D03*
X1077058Y640080D03*
X1061248Y527170D03*
X1051248Y527170D03*
X1032758Y517170D03*
X1032758Y527170D03*
X992608Y527170D03*
X992608Y517170D03*
X1051248Y517110D03*
X1061248Y517110D03*
X1097378Y640080D03*
X1087378Y640080D03*
D11*
X918198Y501340D02*
X918198Y494340D01*
X911198Y494340D01*
X911198Y501340D01*
X918198Y501340D01*
X918198Y497190D02*
X911198Y497190D01*
X911198Y500040D02*
X918198Y500040D01*
X935738Y501340D02*
X935738Y494340D01*
X928738Y494340D01*
X928738Y501340D01*
X935738Y501340D01*
X935738Y497190D02*
X928738Y497190D01*
X928738Y500040D02*
X935738Y500040D01*
D10*
X1068328Y605018D03*
X1078328Y605018D03*
X1051248Y536330D03*
X1061248Y536330D03*
X929738Y523240D03*
X919738Y523240D03*
X1027408Y652890D03*
X1027408Y642890D03*
D12*
X999568Y577750D03*
X1021068Y577750D03*
X1021068Y599250D03*
X999568Y599250D03*
D13*
X1039818Y566500D03*
X1039818Y570500D03*
X1039818Y574500D03*
X1039818Y578500D03*
X1039818Y582500D03*
X1039818Y586500D03*
X1039818Y590500D03*
X1039818Y594500D03*
X1039818Y598500D03*
X1039818Y602500D03*
X1039818Y606500D03*
X1039818Y610500D03*
D14*
X1032318Y618000D03*
X1028318Y618000D03*
X1024318Y618000D03*
X1020318Y618000D03*
X1016318Y618000D03*
X1012318Y618000D03*
X1008318Y618000D03*
X1004318Y618000D03*
X1000318Y618000D03*
X996318Y618000D03*
X992318Y618000D03*
X988318Y618000D03*
D13*
X980818Y610500D03*
X980818Y606500D03*
X980818Y602500D03*
X980818Y598500D03*
X980818Y594500D03*
X980818Y590500D03*
X980818Y586500D03*
X980818Y582500D03*
X980818Y578500D03*
X980818Y574500D03*
X980818Y570500D03*
X980818Y566500D03*
D14*
X988318Y559000D03*
X992318Y559000D03*
X996318Y559000D03*
X1000318Y559000D03*
X1004318Y559000D03*
X1008318Y559000D03*
X1012318Y559000D03*
X1016318Y559000D03*
X1020318Y559000D03*
X1024318Y559000D03*
X1028318Y559000D03*
X1032318Y559000D03*
D15*
X1004198Y514970D03*
X1021198Y514970D03*
X1021198Y528970D03*
X1004198Y528970D03*
D16*
X1094308Y625170D03*
X1069308Y625170D03*
D10*
X1073068Y570240D03*
X1063068Y570240D03*
D17*
X1110158Y570646D03*
X1110158Y495646D03*
D10*
X1082218Y570404D03*
X1082218Y560404D03*
X1054024Y570150D03*
X1054024Y560150D03*
X1303423Y584268D03*
X1293423Y584268D03*
X1201963Y527250D03*
X1201963Y517250D03*
X1267153Y527150D03*
X1267153Y517150D03*
X1293423Y594516D03*
X1303423Y594516D03*
X1295733Y536520D03*
X1295733Y526520D03*
X1191493Y527250D03*
X1191493Y517250D03*
X1192603Y619770D03*
X1192603Y629770D03*
X1243013Y642900D03*
X1243013Y652900D03*
X1292153Y640080D03*
X1302153Y640080D03*
X1286343Y527170D03*
X1276343Y527170D03*
X1257853Y517170D03*
X1257853Y527170D03*
X1217703Y527170D03*
X1217703Y517170D03*
X1276343Y517110D03*
X1286343Y517110D03*
X1322473Y640080D03*
X1312473Y640080D03*
D11*
X1143293Y501340D02*
X1143293Y494340D01*
X1136293Y494340D01*
X1136293Y501340D01*
X1143293Y501340D01*
X1143293Y497190D02*
X1136293Y497190D01*
X1136293Y500040D02*
X1143293Y500040D01*
X1160833Y501340D02*
X1160833Y494340D01*
X1153833Y494340D01*
X1153833Y501340D01*
X1160833Y501340D01*
X1160833Y497190D02*
X1153833Y497190D01*
X1153833Y500040D02*
X1160833Y500040D01*
D10*
X1293423Y605018D03*
X1303423Y605018D03*
X1276343Y536330D03*
X1286343Y536330D03*
X1154833Y523240D03*
X1144833Y523240D03*
X1252503Y652890D03*
X1252503Y642890D03*
D12*
X1224663Y577750D03*
X1246163Y577750D03*
X1246163Y599250D03*
X1224663Y599250D03*
D13*
X1264913Y566500D03*
X1264913Y570500D03*
X1264913Y574500D03*
X1264913Y578500D03*
X1264913Y582500D03*
X1264913Y586500D03*
X1264913Y590500D03*
X1264913Y594500D03*
X1264913Y598500D03*
X1264913Y602500D03*
X1264913Y606500D03*
X1264913Y610500D03*
D14*
X1257413Y618000D03*
X1253413Y618000D03*
X1249413Y618000D03*
X1245413Y618000D03*
X1241413Y618000D03*
X1237413Y618000D03*
X1233413Y618000D03*
X1229413Y618000D03*
X1225413Y618000D03*
X1221413Y618000D03*
X1217413Y618000D03*
X1213413Y618000D03*
D13*
X1205913Y610500D03*
X1205913Y606500D03*
X1205913Y602500D03*
X1205913Y598500D03*
X1205913Y594500D03*
X1205913Y590500D03*
X1205913Y586500D03*
X1205913Y582500D03*
X1205913Y578500D03*
X1205913Y574500D03*
X1205913Y570500D03*
X1205913Y566500D03*
D14*
X1213413Y559000D03*
X1217413Y559000D03*
X1221413Y559000D03*
X1225413Y559000D03*
X1229413Y559000D03*
X1233413Y559000D03*
X1237413Y559000D03*
X1241413Y559000D03*
X1245413Y559000D03*
X1249413Y559000D03*
X1253413Y559000D03*
X1257413Y559000D03*
D15*
X1229293Y514970D03*
X1246293Y514970D03*
X1246293Y528970D03*
X1229293Y528970D03*
D16*
X1319403Y625170D03*
X1294403Y625170D03*
D10*
X1298163Y570240D03*
X1288163Y570240D03*
D17*
X1335253Y570646D03*
X1335253Y495646D03*
D10*
X1307313Y570404D03*
X1307313Y560404D03*
X1279119Y570150D03*
X1279119Y560150D03*
X1528492Y584268D03*
X1518492Y584268D03*
X1427032Y527250D03*
X1427032Y517250D03*
X1492222Y527150D03*
X1492222Y517150D03*
X1518492Y594516D03*
X1528492Y594516D03*
X1520802Y536520D03*
X1520802Y526520D03*
X1416562Y527250D03*
X1416562Y517250D03*
X1417672Y619770D03*
X1417672Y629770D03*
X1468082Y642900D03*
X1468082Y652900D03*
X1517222Y640080D03*
X1527222Y640080D03*
X1511412Y527170D03*
X1501412Y527170D03*
X1482922Y517170D03*
X1482922Y527170D03*
X1442772Y527170D03*
X1442772Y517170D03*
X1501412Y517110D03*
X1511412Y517110D03*
X1547542Y640080D03*
X1537542Y640080D03*
D11*
X1368362Y501340D02*
X1368362Y494340D01*
X1361362Y494340D01*
X1361362Y501340D01*
X1368362Y501340D01*
X1368362Y497190D02*
X1361362Y497190D01*
X1361362Y500040D02*
X1368362Y500040D01*
X1385902Y501340D02*
X1385902Y494340D01*
X1378902Y494340D01*
X1378902Y501340D01*
X1385902Y501340D01*
X1385902Y497190D02*
X1378902Y497190D01*
X1378902Y500040D02*
X1385902Y500040D01*
D10*
X1518492Y605018D03*
X1528492Y605018D03*
X1501412Y536330D03*
X1511412Y536330D03*
X1379902Y523240D03*
X1369902Y523240D03*
X1477572Y652890D03*
X1477572Y642890D03*
D12*
X1449732Y577750D03*
X1471232Y577750D03*
X1471232Y599250D03*
X1449732Y599250D03*
D13*
X1489982Y566500D03*
X1489982Y570500D03*
X1489982Y574500D03*
X1489982Y578500D03*
X1489982Y582500D03*
X1489982Y586500D03*
X1489982Y590500D03*
X1489982Y594500D03*
X1489982Y598500D03*
X1489982Y602500D03*
X1489982Y606500D03*
X1489982Y610500D03*
D14*
X1482482Y618000D03*
X1478482Y618000D03*
X1474482Y618000D03*
X1470482Y618000D03*
X1466482Y618000D03*
X1462482Y618000D03*
X1458482Y618000D03*
X1454482Y618000D03*
X1450482Y618000D03*
X1446482Y618000D03*
X1442482Y618000D03*
X1438482Y618000D03*
D13*
X1430982Y610500D03*
X1430982Y606500D03*
X1430982Y602500D03*
X1430982Y598500D03*
X1430982Y594500D03*
X1430982Y590500D03*
X1430982Y586500D03*
X1430982Y582500D03*
X1430982Y578500D03*
X1430982Y574500D03*
X1430982Y570500D03*
X1430982Y566500D03*
D14*
X1438482Y559000D03*
X1442482Y559000D03*
X1446482Y559000D03*
X1450482Y559000D03*
X1454482Y559000D03*
X1458482Y559000D03*
X1462482Y559000D03*
X1466482Y559000D03*
X1470482Y559000D03*
X1474482Y559000D03*
X1478482Y559000D03*
X1482482Y559000D03*
D15*
X1454362Y514970D03*
X1471362Y514970D03*
X1471362Y528970D03*
X1454362Y528970D03*
D16*
X1544472Y625170D03*
X1519472Y625170D03*
D10*
X1523232Y570240D03*
X1513232Y570240D03*
D17*
X1560322Y570646D03*
X1560322Y495646D03*
D10*
X1532382Y570404D03*
X1532382Y560404D03*
X1504188Y570150D03*
X1504188Y560150D03*
X1753561Y584268D03*
X1743561Y584268D03*
X1652101Y527250D03*
X1652101Y517250D03*
X1717291Y527150D03*
X1717291Y517150D03*
X1743561Y594516D03*
X1753561Y594516D03*
X1745871Y536520D03*
X1745871Y526520D03*
X1641631Y527250D03*
X1641631Y517250D03*
X1642741Y619770D03*
X1642741Y629770D03*
X1693151Y642900D03*
X1693151Y652900D03*
X1742291Y640080D03*
X1752291Y640080D03*
X1736481Y527170D03*
X1726481Y527170D03*
X1707991Y517170D03*
X1707991Y527170D03*
X1667841Y527170D03*
X1667841Y517170D03*
X1726481Y517110D03*
X1736481Y517110D03*
X1772611Y640080D03*
X1762611Y640080D03*
D11*
X1593431Y501340D02*
X1593431Y494340D01*
X1586431Y494340D01*
X1586431Y501340D01*
X1593431Y501340D01*
X1593431Y497190D02*
X1586431Y497190D01*
X1586431Y500040D02*
X1593431Y500040D01*
X1610971Y501340D02*
X1610971Y494340D01*
X1603971Y494340D01*
X1603971Y501340D01*
X1610971Y501340D01*
X1610971Y497190D02*
X1603971Y497190D01*
X1603971Y500040D02*
X1610971Y500040D01*
D10*
X1743561Y605018D03*
X1753561Y605018D03*
X1726481Y536330D03*
X1736481Y536330D03*
X1604971Y523240D03*
X1594971Y523240D03*
X1702641Y652890D03*
X1702641Y642890D03*
D12*
X1674801Y577750D03*
X1696301Y577750D03*
X1696301Y599250D03*
X1674801Y599250D03*
D13*
X1715051Y566500D03*
X1715051Y570500D03*
X1715051Y574500D03*
X1715051Y578500D03*
X1715051Y582500D03*
X1715051Y586500D03*
X1715051Y590500D03*
X1715051Y594500D03*
X1715051Y598500D03*
X1715051Y602500D03*
X1715051Y606500D03*
X1715051Y610500D03*
D14*
X1707551Y618000D03*
X1703551Y618000D03*
X1699551Y618000D03*
X1695551Y618000D03*
X1691551Y618000D03*
X1687551Y618000D03*
X1683551Y618000D03*
X1679551Y618000D03*
X1675551Y618000D03*
X1671551Y618000D03*
X1667551Y618000D03*
X1663551Y618000D03*
D13*
X1656051Y610500D03*
X1656051Y606500D03*
X1656051Y602500D03*
X1656051Y598500D03*
X1656051Y594500D03*
X1656051Y590500D03*
X1656051Y586500D03*
X1656051Y582500D03*
X1656051Y578500D03*
X1656051Y574500D03*
X1656051Y570500D03*
X1656051Y566500D03*
D14*
X1663551Y559000D03*
X1667551Y559000D03*
X1671551Y559000D03*
X1675551Y559000D03*
X1679551Y559000D03*
X1683551Y559000D03*
X1687551Y559000D03*
X1691551Y559000D03*
X1695551Y559000D03*
X1699551Y559000D03*
X1703551Y559000D03*
X1707551Y559000D03*
D15*
X1679431Y514970D03*
X1696431Y514970D03*
X1696431Y528970D03*
X1679431Y528970D03*
D16*
X1769541Y625170D03*
X1744541Y625170D03*
D10*
X1748301Y570240D03*
X1738301Y570240D03*
D17*
X1785391Y570646D03*
X1785391Y495646D03*
D10*
X1757451Y570404D03*
X1757451Y560404D03*
X1729257Y570150D03*
X1729257Y560150D03*
M02*
