G04 EAGLE Gerber RS-274X export*
G75*
%MOMM*%
%FSLAX34Y34*%
%LPD*%
%INSoldermask Bottom*%
%IPPOS*%
%AMOC8*
5,1,8,0,0,1.08239X$1,22.5*%
G01*
%ADD10R,0.803200X0.803200*%
%ADD11R,0.553200X2.153200*%
%ADD12C,0.657200*%
%ADD13R,0.863200X0.503200*%
%ADD14R,0.503200X1.053200*%
%ADD15R,1.053200X0.503200*%
%ADD16R,2.753200X2.753200*%
%ADD17R,0.703200X1.053200*%
%ADD18C,0.838200*%
%ADD19C,1.203200*%
%ADD20C,1.270000*%
%ADD21C,1.703200*%

G36*
X1700370Y91768D02*
X1700370Y91768D01*
X1700428Y91780D01*
X1700440Y91788D01*
X1700446Y91790D01*
X1700453Y91798D01*
X1700488Y91824D01*
X1706988Y98324D01*
X1707013Y98370D01*
X1707019Y98376D01*
X1707019Y98380D01*
X1707050Y98427D01*
X1707052Y98441D01*
X1707055Y98446D01*
X1707055Y98457D01*
X1707061Y98500D01*
X1707061Y128000D01*
X1707056Y128016D01*
X1707059Y128033D01*
X1707037Y128083D01*
X1707022Y128134D01*
X1707009Y128145D01*
X1707002Y128161D01*
X1706957Y128191D01*
X1706917Y128226D01*
X1706900Y128229D01*
X1706886Y128238D01*
X1706812Y128249D01*
X1664562Y128249D01*
X1664546Y128244D01*
X1664529Y128247D01*
X1664479Y128225D01*
X1664428Y128210D01*
X1664417Y128197D01*
X1664401Y128190D01*
X1664371Y128145D01*
X1664336Y128105D01*
X1664333Y128088D01*
X1664324Y128074D01*
X1664313Y128000D01*
X1664313Y92000D01*
X1664318Y91984D01*
X1664315Y91967D01*
X1664337Y91917D01*
X1664352Y91866D01*
X1664365Y91855D01*
X1664372Y91839D01*
X1664417Y91809D01*
X1664457Y91774D01*
X1664474Y91771D01*
X1664489Y91762D01*
X1664562Y91751D01*
X1700312Y91751D01*
X1700370Y91768D01*
G37*
G36*
X1475300Y91768D02*
X1475300Y91768D01*
X1475359Y91780D01*
X1475371Y91788D01*
X1475377Y91790D01*
X1475384Y91798D01*
X1475419Y91824D01*
X1481919Y98324D01*
X1481944Y98370D01*
X1481949Y98376D01*
X1481950Y98380D01*
X1481981Y98427D01*
X1481983Y98441D01*
X1481986Y98446D01*
X1481985Y98457D01*
X1481992Y98500D01*
X1481992Y128000D01*
X1481987Y128016D01*
X1481990Y128033D01*
X1481968Y128083D01*
X1481953Y128134D01*
X1481940Y128145D01*
X1481933Y128161D01*
X1481888Y128191D01*
X1481847Y128226D01*
X1481830Y128229D01*
X1481816Y128238D01*
X1481743Y128249D01*
X1439493Y128249D01*
X1439476Y128244D01*
X1439459Y128247D01*
X1439410Y128225D01*
X1439358Y128210D01*
X1439347Y128197D01*
X1439331Y128190D01*
X1439302Y128145D01*
X1439266Y128105D01*
X1439264Y128088D01*
X1439254Y128074D01*
X1439243Y128000D01*
X1439243Y92000D01*
X1439248Y91984D01*
X1439246Y91967D01*
X1439267Y91917D01*
X1439283Y91866D01*
X1439295Y91855D01*
X1439302Y91839D01*
X1439347Y91809D01*
X1439388Y91774D01*
X1439405Y91771D01*
X1439419Y91762D01*
X1439493Y91751D01*
X1475243Y91751D01*
X1475300Y91768D01*
G37*
G36*
X1250206Y91768D02*
X1250206Y91768D01*
X1250264Y91780D01*
X1250276Y91788D01*
X1250282Y91790D01*
X1250289Y91798D01*
X1250324Y91824D01*
X1256824Y98324D01*
X1256849Y98370D01*
X1256854Y98376D01*
X1256855Y98380D01*
X1256886Y98427D01*
X1256888Y98441D01*
X1256891Y98446D01*
X1256891Y98457D01*
X1256897Y98500D01*
X1256897Y128000D01*
X1256892Y128016D01*
X1256895Y128033D01*
X1256873Y128083D01*
X1256858Y128134D01*
X1256845Y128145D01*
X1256838Y128161D01*
X1256793Y128191D01*
X1256753Y128226D01*
X1256736Y128229D01*
X1256721Y128238D01*
X1256648Y128249D01*
X1214398Y128249D01*
X1214381Y128244D01*
X1214364Y128247D01*
X1214315Y128225D01*
X1214264Y128210D01*
X1214252Y128197D01*
X1214237Y128190D01*
X1214207Y128145D01*
X1214172Y128105D01*
X1214169Y128088D01*
X1214160Y128074D01*
X1214149Y128000D01*
X1214149Y92000D01*
X1214153Y91984D01*
X1214151Y91967D01*
X1214173Y91917D01*
X1214188Y91866D01*
X1214201Y91855D01*
X1214208Y91839D01*
X1214253Y91809D01*
X1214293Y91774D01*
X1214310Y91771D01*
X1214324Y91762D01*
X1214398Y91751D01*
X1250148Y91751D01*
X1250206Y91768D01*
G37*
G36*
X1025136Y91768D02*
X1025136Y91768D01*
X1025195Y91780D01*
X1025206Y91788D01*
X1025213Y91790D01*
X1025219Y91798D01*
X1025255Y91824D01*
X1031755Y98324D01*
X1031780Y98370D01*
X1031785Y98376D01*
X1031786Y98380D01*
X1031817Y98427D01*
X1031819Y98441D01*
X1031822Y98446D01*
X1031821Y98457D01*
X1031828Y98500D01*
X1031828Y128000D01*
X1031823Y128016D01*
X1031825Y128033D01*
X1031804Y128083D01*
X1031788Y128134D01*
X1031776Y128145D01*
X1031769Y128161D01*
X1031724Y128191D01*
X1031683Y128226D01*
X1031666Y128229D01*
X1031652Y128238D01*
X1031578Y128249D01*
X989328Y128249D01*
X989312Y128244D01*
X989295Y128247D01*
X989246Y128225D01*
X989194Y128210D01*
X989183Y128197D01*
X989167Y128190D01*
X989138Y128145D01*
X989102Y128105D01*
X989100Y128088D01*
X989090Y128074D01*
X989079Y128000D01*
X989079Y92000D01*
X989084Y91984D01*
X989081Y91967D01*
X989103Y91917D01*
X989118Y91866D01*
X989131Y91855D01*
X989138Y91839D01*
X989183Y91809D01*
X989224Y91774D01*
X989241Y91771D01*
X989255Y91762D01*
X989328Y91751D01*
X1025078Y91751D01*
X1025136Y91768D01*
G37*
G36*
X800041Y91768D02*
X800041Y91768D01*
X800100Y91780D01*
X800112Y91788D01*
X800118Y91790D01*
X800125Y91798D01*
X800160Y91824D01*
X806660Y98324D01*
X806685Y98370D01*
X806690Y98376D01*
X806691Y98380D01*
X806722Y98427D01*
X806724Y98441D01*
X806727Y98446D01*
X806726Y98457D01*
X806733Y98500D01*
X806733Y128000D01*
X806728Y128016D01*
X806731Y128033D01*
X806709Y128083D01*
X806694Y128134D01*
X806681Y128145D01*
X806674Y128161D01*
X806629Y128191D01*
X806588Y128226D01*
X806571Y128229D01*
X806557Y128238D01*
X806484Y128249D01*
X764234Y128249D01*
X764217Y128244D01*
X764200Y128247D01*
X764151Y128225D01*
X764099Y128210D01*
X764088Y128197D01*
X764072Y128190D01*
X764043Y128145D01*
X764007Y128105D01*
X764005Y128088D01*
X763995Y128074D01*
X763984Y128000D01*
X763984Y92000D01*
X763989Y91984D01*
X763987Y91967D01*
X764008Y91917D01*
X764024Y91866D01*
X764036Y91855D01*
X764043Y91839D01*
X764088Y91809D01*
X764129Y91774D01*
X764146Y91771D01*
X764160Y91762D01*
X764234Y91751D01*
X799984Y91751D01*
X800041Y91768D01*
G37*
G36*
X574972Y91768D02*
X574972Y91768D01*
X575031Y91780D01*
X575042Y91788D01*
X575048Y91790D01*
X575055Y91798D01*
X575090Y91824D01*
X581590Y98324D01*
X581616Y98370D01*
X581621Y98376D01*
X581621Y98380D01*
X581652Y98427D01*
X581654Y98441D01*
X581658Y98446D01*
X581657Y98457D01*
X581663Y98500D01*
X581663Y128000D01*
X581659Y128016D01*
X581661Y128033D01*
X581639Y128083D01*
X581624Y128134D01*
X581611Y128145D01*
X581604Y128161D01*
X581559Y128191D01*
X581519Y128226D01*
X581502Y128229D01*
X581488Y128238D01*
X581414Y128249D01*
X539164Y128249D01*
X539148Y128244D01*
X539131Y128247D01*
X539082Y128225D01*
X539030Y128210D01*
X539019Y128197D01*
X539003Y128190D01*
X538973Y128145D01*
X538938Y128105D01*
X538935Y128088D01*
X538926Y128074D01*
X538915Y128000D01*
X538915Y92000D01*
X538920Y91984D01*
X538917Y91967D01*
X538939Y91917D01*
X538954Y91866D01*
X538967Y91855D01*
X538974Y91839D01*
X539019Y91809D01*
X539059Y91774D01*
X539076Y91771D01*
X539091Y91762D01*
X539164Y91751D01*
X574914Y91751D01*
X574972Y91768D01*
G37*
G36*
X349877Y91768D02*
X349877Y91768D01*
X349936Y91780D01*
X349947Y91788D01*
X349954Y91790D01*
X349960Y91798D01*
X349996Y91824D01*
X356496Y98324D01*
X356521Y98370D01*
X356526Y98376D01*
X356527Y98380D01*
X356558Y98427D01*
X356560Y98441D01*
X356563Y98446D01*
X356562Y98457D01*
X356569Y98500D01*
X356569Y128000D01*
X356564Y128016D01*
X356566Y128033D01*
X356545Y128083D01*
X356529Y128134D01*
X356517Y128145D01*
X356510Y128161D01*
X356465Y128191D01*
X356424Y128226D01*
X356407Y128229D01*
X356393Y128238D01*
X356319Y128249D01*
X314069Y128249D01*
X314053Y128244D01*
X314036Y128247D01*
X313987Y128225D01*
X313935Y128210D01*
X313924Y128197D01*
X313908Y128190D01*
X313879Y128145D01*
X313843Y128105D01*
X313841Y128088D01*
X313831Y128074D01*
X313820Y128000D01*
X313820Y92000D01*
X313825Y91984D01*
X313822Y91967D01*
X313844Y91917D01*
X313859Y91866D01*
X313872Y91855D01*
X313879Y91839D01*
X313924Y91809D01*
X313965Y91774D01*
X313982Y91771D01*
X313996Y91762D01*
X314069Y91751D01*
X349819Y91751D01*
X349877Y91768D01*
G37*
G36*
X124808Y91768D02*
X124808Y91768D01*
X124866Y91780D01*
X124878Y91788D01*
X124884Y91790D01*
X124891Y91798D01*
X124926Y91824D01*
X131426Y98324D01*
X131451Y98370D01*
X131457Y98376D01*
X131457Y98380D01*
X131488Y98427D01*
X131490Y98441D01*
X131493Y98446D01*
X131493Y98457D01*
X131499Y98500D01*
X131499Y128000D01*
X131494Y128016D01*
X131497Y128033D01*
X131475Y128083D01*
X131460Y128134D01*
X131447Y128145D01*
X131440Y128161D01*
X131395Y128191D01*
X131355Y128226D01*
X131338Y128229D01*
X131324Y128238D01*
X131250Y128249D01*
X89000Y128249D01*
X88984Y128244D01*
X88967Y128247D01*
X88917Y128225D01*
X88866Y128210D01*
X88855Y128197D01*
X88839Y128190D01*
X88809Y128145D01*
X88774Y128105D01*
X88771Y128088D01*
X88762Y128074D01*
X88751Y128000D01*
X88751Y92000D01*
X88756Y91984D01*
X88753Y91967D01*
X88775Y91917D01*
X88790Y91866D01*
X88803Y91855D01*
X88810Y91839D01*
X88855Y91809D01*
X88895Y91774D01*
X88912Y91771D01*
X88927Y91762D01*
X89000Y91751D01*
X124750Y91751D01*
X124808Y91768D01*
G37*
G36*
X806265Y570256D02*
X806265Y570256D01*
X806282Y570253D01*
X806331Y570275D01*
X806383Y570290D01*
X806394Y570303D01*
X806410Y570310D01*
X806439Y570355D01*
X806475Y570395D01*
X806477Y570412D01*
X806487Y570427D01*
X806498Y570500D01*
X806498Y606500D01*
X806493Y606516D01*
X806495Y606533D01*
X806474Y606583D01*
X806458Y606634D01*
X806446Y606645D01*
X806439Y606661D01*
X806394Y606691D01*
X806353Y606726D01*
X806336Y606729D01*
X806322Y606738D01*
X806248Y606749D01*
X770498Y606749D01*
X770441Y606732D01*
X770382Y606720D01*
X770370Y606712D01*
X770364Y606710D01*
X770357Y606702D01*
X770322Y606676D01*
X763822Y600176D01*
X763793Y600124D01*
X763760Y600074D01*
X763758Y600059D01*
X763755Y600054D01*
X763756Y600043D01*
X763749Y600000D01*
X763749Y570500D01*
X763754Y570484D01*
X763751Y570467D01*
X763773Y570417D01*
X763788Y570366D01*
X763801Y570355D01*
X763808Y570339D01*
X763853Y570309D01*
X763894Y570274D01*
X763911Y570271D01*
X763925Y570262D01*
X763998Y570251D01*
X806248Y570251D01*
X806265Y570256D01*
G37*
G36*
X581170Y570256D02*
X581170Y570256D01*
X581187Y570253D01*
X581236Y570275D01*
X581288Y570290D01*
X581299Y570303D01*
X581315Y570310D01*
X581344Y570355D01*
X581380Y570395D01*
X581382Y570412D01*
X581392Y570427D01*
X581403Y570500D01*
X581403Y606500D01*
X581398Y606516D01*
X581401Y606533D01*
X581379Y606583D01*
X581364Y606634D01*
X581351Y606645D01*
X581344Y606661D01*
X581299Y606691D01*
X581258Y606726D01*
X581241Y606729D01*
X581227Y606738D01*
X581154Y606749D01*
X545404Y606749D01*
X545346Y606732D01*
X545287Y606720D01*
X545276Y606712D01*
X545269Y606710D01*
X545263Y606702D01*
X545227Y606676D01*
X538727Y600176D01*
X538698Y600124D01*
X538665Y600074D01*
X538663Y600059D01*
X538660Y600054D01*
X538661Y600043D01*
X538654Y600000D01*
X538654Y570500D01*
X538659Y570484D01*
X538657Y570467D01*
X538678Y570417D01*
X538694Y570366D01*
X538706Y570355D01*
X538713Y570339D01*
X538758Y570309D01*
X538799Y570274D01*
X538816Y570271D01*
X538830Y570262D01*
X538904Y570251D01*
X581154Y570251D01*
X581170Y570256D01*
G37*
G36*
X356101Y570256D02*
X356101Y570256D01*
X356118Y570253D01*
X356167Y570275D01*
X356218Y570290D01*
X356230Y570303D01*
X356245Y570310D01*
X356275Y570355D01*
X356310Y570395D01*
X356313Y570412D01*
X356322Y570427D01*
X356333Y570500D01*
X356333Y606500D01*
X356329Y606516D01*
X356331Y606533D01*
X356309Y606583D01*
X356294Y606634D01*
X356281Y606645D01*
X356274Y606661D01*
X356229Y606691D01*
X356189Y606726D01*
X356172Y606729D01*
X356158Y606738D01*
X356084Y606749D01*
X320334Y606749D01*
X320276Y606732D01*
X320218Y606720D01*
X320206Y606712D01*
X320200Y606710D01*
X320193Y606702D01*
X320158Y606676D01*
X313658Y600176D01*
X313629Y600124D01*
X313596Y600074D01*
X313594Y600059D01*
X313591Y600054D01*
X313591Y600043D01*
X313585Y600000D01*
X313585Y570500D01*
X313590Y570484D01*
X313587Y570467D01*
X313609Y570417D01*
X313624Y570366D01*
X313637Y570355D01*
X313644Y570339D01*
X313689Y570309D01*
X313729Y570274D01*
X313746Y570271D01*
X313761Y570262D01*
X313834Y570251D01*
X356084Y570251D01*
X356101Y570256D01*
G37*
G36*
X131006Y570256D02*
X131006Y570256D01*
X131023Y570253D01*
X131072Y570275D01*
X131124Y570290D01*
X131135Y570303D01*
X131151Y570310D01*
X131180Y570355D01*
X131216Y570395D01*
X131218Y570412D01*
X131228Y570427D01*
X131239Y570500D01*
X131239Y606500D01*
X131234Y606516D01*
X131236Y606533D01*
X131215Y606583D01*
X131199Y606634D01*
X131187Y606645D01*
X131180Y606661D01*
X131135Y606691D01*
X131094Y606726D01*
X131077Y606729D01*
X131063Y606738D01*
X130989Y606749D01*
X95239Y606749D01*
X95182Y606732D01*
X95123Y606720D01*
X95111Y606712D01*
X95105Y606710D01*
X95098Y606702D01*
X95063Y606676D01*
X88563Y600176D01*
X88534Y600124D01*
X88501Y600074D01*
X88499Y600059D01*
X88496Y600054D01*
X88497Y600043D01*
X88490Y600000D01*
X88490Y570500D01*
X88495Y570484D01*
X88492Y570467D01*
X88514Y570417D01*
X88529Y570366D01*
X88542Y570355D01*
X88549Y570339D01*
X88594Y570309D01*
X88635Y570274D01*
X88652Y570271D01*
X88666Y570262D01*
X88739Y570251D01*
X130989Y570251D01*
X131006Y570256D01*
G37*
G36*
X1706568Y570256D02*
X1706568Y570256D01*
X1706585Y570253D01*
X1706634Y570275D01*
X1706686Y570290D01*
X1706697Y570303D01*
X1706713Y570310D01*
X1706742Y570355D01*
X1706778Y570395D01*
X1706780Y570412D01*
X1706790Y570427D01*
X1706801Y570500D01*
X1706801Y606500D01*
X1706796Y606516D01*
X1706798Y606533D01*
X1706777Y606583D01*
X1706761Y606634D01*
X1706749Y606645D01*
X1706742Y606661D01*
X1706697Y606691D01*
X1706656Y606726D01*
X1706639Y606729D01*
X1706625Y606738D01*
X1706551Y606749D01*
X1670801Y606749D01*
X1670744Y606732D01*
X1670685Y606720D01*
X1670673Y606712D01*
X1670667Y606710D01*
X1670660Y606702D01*
X1670625Y606676D01*
X1664125Y600176D01*
X1664096Y600124D01*
X1664063Y600074D01*
X1664061Y600059D01*
X1664058Y600054D01*
X1664059Y600043D01*
X1664052Y600000D01*
X1664052Y570500D01*
X1664057Y570484D01*
X1664054Y570467D01*
X1664076Y570417D01*
X1664091Y570366D01*
X1664104Y570355D01*
X1664111Y570339D01*
X1664156Y570309D01*
X1664197Y570274D01*
X1664214Y570271D01*
X1664228Y570262D01*
X1664301Y570251D01*
X1706551Y570251D01*
X1706568Y570256D01*
G37*
G36*
X1031334Y570256D02*
X1031334Y570256D01*
X1031351Y570253D01*
X1031400Y570275D01*
X1031452Y570290D01*
X1031463Y570303D01*
X1031479Y570310D01*
X1031509Y570355D01*
X1031544Y570395D01*
X1031547Y570412D01*
X1031556Y570427D01*
X1031567Y570500D01*
X1031567Y606500D01*
X1031562Y606516D01*
X1031565Y606533D01*
X1031543Y606583D01*
X1031528Y606634D01*
X1031515Y606645D01*
X1031508Y606661D01*
X1031463Y606691D01*
X1031423Y606726D01*
X1031406Y606729D01*
X1031391Y606738D01*
X1031318Y606749D01*
X995568Y606749D01*
X995510Y606732D01*
X995451Y606720D01*
X995440Y606712D01*
X995434Y606710D01*
X995427Y606702D01*
X995392Y606676D01*
X988892Y600176D01*
X988863Y600124D01*
X988830Y600074D01*
X988828Y600059D01*
X988824Y600054D01*
X988825Y600043D01*
X988819Y600000D01*
X988819Y570500D01*
X988823Y570484D01*
X988821Y570467D01*
X988843Y570417D01*
X988858Y570366D01*
X988871Y570355D01*
X988878Y570339D01*
X988923Y570309D01*
X988963Y570274D01*
X988980Y570271D01*
X988994Y570262D01*
X989068Y570251D01*
X1031318Y570251D01*
X1031334Y570256D01*
G37*
G36*
X1481498Y570256D02*
X1481498Y570256D01*
X1481515Y570253D01*
X1481565Y570275D01*
X1481616Y570290D01*
X1481627Y570303D01*
X1481643Y570310D01*
X1481673Y570355D01*
X1481708Y570395D01*
X1481711Y570412D01*
X1481720Y570427D01*
X1481731Y570500D01*
X1481731Y606500D01*
X1481726Y606516D01*
X1481729Y606533D01*
X1481707Y606583D01*
X1481692Y606634D01*
X1481679Y606645D01*
X1481672Y606661D01*
X1481627Y606691D01*
X1481587Y606726D01*
X1481570Y606729D01*
X1481556Y606738D01*
X1481482Y606749D01*
X1445732Y606749D01*
X1445674Y606732D01*
X1445616Y606720D01*
X1445604Y606712D01*
X1445598Y606710D01*
X1445591Y606702D01*
X1445556Y606676D01*
X1439056Y600176D01*
X1439027Y600124D01*
X1438994Y600074D01*
X1438992Y600059D01*
X1438989Y600054D01*
X1438989Y600043D01*
X1438983Y600000D01*
X1438983Y570500D01*
X1438988Y570484D01*
X1438985Y570467D01*
X1439007Y570417D01*
X1439022Y570366D01*
X1439035Y570355D01*
X1439042Y570339D01*
X1439087Y570309D01*
X1439127Y570274D01*
X1439144Y570271D01*
X1439159Y570262D01*
X1439232Y570251D01*
X1481482Y570251D01*
X1481498Y570256D01*
G37*
G36*
X1256429Y570256D02*
X1256429Y570256D01*
X1256446Y570253D01*
X1256495Y570275D01*
X1256547Y570290D01*
X1256558Y570303D01*
X1256574Y570310D01*
X1256603Y570355D01*
X1256639Y570395D01*
X1256641Y570412D01*
X1256651Y570427D01*
X1256662Y570500D01*
X1256662Y606500D01*
X1256657Y606516D01*
X1256660Y606533D01*
X1256638Y606583D01*
X1256623Y606634D01*
X1256610Y606645D01*
X1256603Y606661D01*
X1256558Y606691D01*
X1256517Y606726D01*
X1256500Y606729D01*
X1256486Y606738D01*
X1256413Y606749D01*
X1220663Y606749D01*
X1220605Y606732D01*
X1220546Y606720D01*
X1220535Y606712D01*
X1220528Y606710D01*
X1220522Y606702D01*
X1220486Y606676D01*
X1213986Y600176D01*
X1213957Y600124D01*
X1213924Y600074D01*
X1213922Y600059D01*
X1213919Y600054D01*
X1213920Y600043D01*
X1213913Y600000D01*
X1213913Y570500D01*
X1213918Y570484D01*
X1213916Y570467D01*
X1213937Y570417D01*
X1213953Y570366D01*
X1213965Y570355D01*
X1213972Y570339D01*
X1214017Y570309D01*
X1214058Y570274D01*
X1214075Y570271D01*
X1214089Y570262D01*
X1214163Y570251D01*
X1256413Y570251D01*
X1256429Y570256D01*
G37*
G36*
X829165Y192531D02*
X829165Y192531D01*
X829174Y192535D01*
X829200Y192536D01*
X833034Y193370D01*
X833043Y193375D01*
X833068Y193380D01*
X836745Y194752D01*
X836752Y194757D01*
X836777Y194766D01*
X840221Y196647D01*
X840227Y196654D01*
X840251Y196666D01*
X843392Y199017D01*
X843397Y199025D01*
X843419Y199041D01*
X846193Y201815D01*
X846198Y201824D01*
X846216Y201842D01*
X848568Y204983D01*
X848571Y204992D01*
X848587Y205013D01*
X850467Y208457D01*
X850469Y208466D01*
X850482Y208489D01*
X851853Y212165D01*
X851854Y212175D01*
X851863Y212199D01*
X852697Y216033D01*
X852697Y216043D01*
X852702Y216069D01*
X852982Y219982D01*
X852977Y220008D01*
X852981Y220033D01*
X852962Y220075D01*
X852953Y220119D01*
X852934Y220137D01*
X852924Y220161D01*
X852886Y220186D01*
X852854Y220218D01*
X852829Y220224D01*
X852807Y220238D01*
X852734Y220249D01*
X842734Y220249D01*
X842727Y220247D01*
X842720Y220249D01*
X842660Y220228D01*
X842599Y220210D01*
X842595Y220205D01*
X842588Y220202D01*
X842549Y220152D01*
X842507Y220105D01*
X842506Y220098D01*
X842502Y220092D01*
X842485Y220020D01*
X842271Y217302D01*
X841639Y214669D01*
X840603Y212169D01*
X839189Y209861D01*
X837431Y207802D01*
X835373Y206044D01*
X833065Y204630D01*
X830564Y203594D01*
X827932Y202962D01*
X825234Y202750D01*
X822535Y202962D01*
X819903Y203594D01*
X817402Y204630D01*
X815094Y206044D01*
X813036Y207802D01*
X812982Y207865D01*
X812557Y208364D01*
X812556Y208364D01*
X812344Y208613D01*
X812131Y208862D01*
X811918Y209112D01*
X811492Y209610D01*
X811279Y209859D01*
X811278Y209861D01*
X809864Y212169D01*
X808828Y214669D01*
X808196Y217302D01*
X807982Y220020D01*
X807980Y220026D01*
X807981Y220033D01*
X807955Y220091D01*
X807932Y220150D01*
X807927Y220155D01*
X807924Y220161D01*
X807871Y220196D01*
X807820Y220234D01*
X807813Y220234D01*
X807807Y220238D01*
X807734Y220249D01*
X797734Y220249D01*
X797709Y220242D01*
X797683Y220244D01*
X797643Y220223D01*
X797599Y220210D01*
X797582Y220190D01*
X797559Y220178D01*
X797537Y220139D01*
X797507Y220105D01*
X797504Y220079D01*
X797491Y220056D01*
X797485Y219982D01*
X797765Y216069D01*
X797768Y216059D01*
X797770Y216033D01*
X798604Y212199D01*
X798609Y212191D01*
X798614Y212165D01*
X799985Y208489D01*
X799991Y208481D01*
X800000Y208457D01*
X801880Y205013D01*
X801887Y205006D01*
X801900Y204983D01*
X804251Y201842D01*
X804259Y201836D01*
X804274Y201815D01*
X807049Y199041D01*
X807057Y199036D01*
X807076Y199017D01*
X810217Y196666D01*
X810226Y196663D01*
X810247Y196647D01*
X813690Y194766D01*
X813700Y194764D01*
X813723Y194752D01*
X817399Y193380D01*
X817409Y193380D01*
X817433Y193370D01*
X821267Y192536D01*
X821277Y192537D01*
X821302Y192531D01*
X825216Y192251D01*
X825225Y192253D01*
X825251Y192251D01*
X829165Y192531D01*
G37*
G36*
X153931Y192531D02*
X153931Y192531D01*
X153941Y192535D01*
X153967Y192536D01*
X157801Y193370D01*
X157809Y193375D01*
X157835Y193380D01*
X161511Y194752D01*
X161519Y194757D01*
X161543Y194766D01*
X164987Y196647D01*
X164994Y196654D01*
X165017Y196666D01*
X168158Y199017D01*
X168164Y199025D01*
X168185Y199041D01*
X170959Y201815D01*
X170964Y201824D01*
X170983Y201842D01*
X173334Y204983D01*
X173337Y204992D01*
X173353Y205013D01*
X175234Y208457D01*
X175236Y208466D01*
X175248Y208489D01*
X176620Y212165D01*
X176620Y212175D01*
X176630Y212199D01*
X177464Y216033D01*
X177463Y216043D01*
X177469Y216069D01*
X177749Y219982D01*
X177743Y220008D01*
X177747Y220033D01*
X177729Y220075D01*
X177719Y220119D01*
X177701Y220137D01*
X177690Y220161D01*
X177652Y220186D01*
X177621Y220218D01*
X177595Y220224D01*
X177574Y220238D01*
X177500Y220249D01*
X167500Y220249D01*
X167493Y220247D01*
X167486Y220249D01*
X167427Y220228D01*
X167366Y220210D01*
X167361Y220205D01*
X167354Y220202D01*
X167316Y220152D01*
X167274Y220105D01*
X167273Y220098D01*
X167268Y220092D01*
X167252Y220020D01*
X167038Y217302D01*
X166406Y214669D01*
X165370Y212169D01*
X163956Y209861D01*
X162198Y207802D01*
X160139Y206044D01*
X157831Y204630D01*
X155331Y203594D01*
X152698Y202962D01*
X150000Y202750D01*
X147302Y202962D01*
X144669Y203594D01*
X142169Y204630D01*
X139861Y206044D01*
X137802Y207802D01*
X137749Y207865D01*
X137323Y208364D01*
X137110Y208613D01*
X136897Y208862D01*
X136684Y209112D01*
X136259Y209610D01*
X136258Y209610D01*
X136046Y209859D01*
X136044Y209861D01*
X134630Y212169D01*
X133594Y214669D01*
X132962Y217302D01*
X132748Y220020D01*
X132746Y220026D01*
X132747Y220033D01*
X132721Y220091D01*
X132699Y220150D01*
X132693Y220155D01*
X132690Y220161D01*
X132637Y220196D01*
X132587Y220234D01*
X132580Y220234D01*
X132574Y220238D01*
X132500Y220249D01*
X122500Y220249D01*
X122475Y220242D01*
X122449Y220244D01*
X122409Y220223D01*
X122366Y220210D01*
X122349Y220190D01*
X122326Y220178D01*
X122304Y220139D01*
X122274Y220105D01*
X122270Y220079D01*
X122257Y220056D01*
X122251Y219982D01*
X122531Y216069D01*
X122535Y216059D01*
X122536Y216033D01*
X123370Y212199D01*
X123375Y212191D01*
X123380Y212165D01*
X124752Y208489D01*
X124757Y208481D01*
X124766Y208457D01*
X126647Y205013D01*
X126654Y205006D01*
X126666Y204983D01*
X129017Y201842D01*
X129025Y201836D01*
X129041Y201815D01*
X131815Y199041D01*
X131824Y199036D01*
X131842Y199017D01*
X134983Y196666D01*
X134992Y196663D01*
X135013Y196647D01*
X138457Y194766D01*
X138466Y194764D01*
X138489Y194752D01*
X142165Y193380D01*
X142175Y193380D01*
X142199Y193370D01*
X146033Y192536D01*
X146043Y192537D01*
X146069Y192531D01*
X149982Y192251D01*
X149992Y192253D01*
X150018Y192251D01*
X153931Y192531D01*
G37*
G36*
X1729493Y192531D02*
X1729493Y192531D01*
X1729503Y192535D01*
X1729529Y192536D01*
X1733363Y193370D01*
X1733371Y193375D01*
X1733397Y193380D01*
X1737073Y194752D01*
X1737081Y194757D01*
X1737105Y194766D01*
X1740549Y196647D01*
X1740556Y196654D01*
X1740579Y196666D01*
X1743720Y199017D01*
X1743726Y199025D01*
X1743747Y199041D01*
X1746521Y201815D01*
X1746526Y201824D01*
X1746545Y201842D01*
X1748896Y204983D01*
X1748899Y204992D01*
X1748915Y205013D01*
X1750796Y208457D01*
X1750798Y208466D01*
X1750810Y208489D01*
X1752182Y212165D01*
X1752182Y212175D01*
X1752192Y212199D01*
X1753026Y216033D01*
X1753025Y216043D01*
X1753031Y216069D01*
X1753311Y219982D01*
X1753305Y220008D01*
X1753309Y220033D01*
X1753291Y220075D01*
X1753281Y220119D01*
X1753263Y220137D01*
X1753252Y220161D01*
X1753214Y220186D01*
X1753183Y220218D01*
X1753157Y220224D01*
X1753136Y220238D01*
X1753062Y220249D01*
X1743062Y220249D01*
X1743055Y220247D01*
X1743048Y220249D01*
X1742989Y220228D01*
X1742928Y220210D01*
X1742923Y220205D01*
X1742916Y220202D01*
X1742878Y220152D01*
X1742836Y220105D01*
X1742835Y220098D01*
X1742830Y220092D01*
X1742814Y220020D01*
X1742600Y217302D01*
X1741968Y214669D01*
X1740932Y212169D01*
X1739518Y209861D01*
X1737760Y207802D01*
X1735701Y206044D01*
X1733393Y204630D01*
X1730893Y203594D01*
X1728260Y202962D01*
X1725562Y202750D01*
X1722864Y202962D01*
X1720231Y203594D01*
X1717731Y204630D01*
X1715423Y206044D01*
X1713364Y207802D01*
X1713311Y207865D01*
X1712885Y208364D01*
X1712672Y208613D01*
X1712459Y208862D01*
X1712246Y209112D01*
X1711821Y209610D01*
X1711820Y209610D01*
X1711608Y209859D01*
X1711606Y209861D01*
X1710192Y212169D01*
X1709156Y214669D01*
X1708524Y217302D01*
X1708310Y220020D01*
X1708308Y220026D01*
X1708309Y220033D01*
X1708283Y220091D01*
X1708261Y220150D01*
X1708255Y220155D01*
X1708252Y220161D01*
X1708199Y220196D01*
X1708149Y220234D01*
X1708142Y220234D01*
X1708136Y220238D01*
X1708062Y220249D01*
X1698062Y220249D01*
X1698037Y220242D01*
X1698011Y220244D01*
X1697971Y220223D01*
X1697928Y220210D01*
X1697911Y220190D01*
X1697888Y220178D01*
X1697866Y220139D01*
X1697836Y220105D01*
X1697832Y220079D01*
X1697819Y220056D01*
X1697813Y219982D01*
X1698093Y216069D01*
X1698097Y216059D01*
X1698098Y216033D01*
X1698932Y212199D01*
X1698937Y212191D01*
X1698942Y212165D01*
X1700314Y208489D01*
X1700319Y208481D01*
X1700328Y208457D01*
X1702209Y205013D01*
X1702216Y205006D01*
X1702228Y204983D01*
X1704579Y201842D01*
X1704587Y201836D01*
X1704603Y201815D01*
X1707377Y199041D01*
X1707386Y199036D01*
X1707404Y199017D01*
X1710545Y196666D01*
X1710554Y196663D01*
X1710575Y196647D01*
X1714019Y194766D01*
X1714028Y194764D01*
X1714051Y194752D01*
X1717727Y193380D01*
X1717737Y193380D01*
X1717761Y193370D01*
X1721595Y192536D01*
X1721605Y192537D01*
X1721631Y192531D01*
X1725544Y192251D01*
X1725554Y192253D01*
X1725580Y192251D01*
X1729493Y192531D01*
G37*
G36*
X1504424Y192531D02*
X1504424Y192531D01*
X1504433Y192535D01*
X1504459Y192536D01*
X1508293Y193370D01*
X1508302Y193375D01*
X1508327Y193380D01*
X1512004Y194752D01*
X1512011Y194757D01*
X1512036Y194766D01*
X1515480Y196647D01*
X1515486Y196654D01*
X1515510Y196666D01*
X1518651Y199017D01*
X1518656Y199025D01*
X1518678Y199041D01*
X1521452Y201815D01*
X1521457Y201824D01*
X1521475Y201842D01*
X1523827Y204983D01*
X1523830Y204992D01*
X1523846Y205013D01*
X1525726Y208457D01*
X1525728Y208466D01*
X1525741Y208489D01*
X1527112Y212165D01*
X1527113Y212175D01*
X1527122Y212199D01*
X1527956Y216033D01*
X1527956Y216043D01*
X1527961Y216069D01*
X1528241Y219982D01*
X1528236Y220008D01*
X1528240Y220033D01*
X1528221Y220075D01*
X1528212Y220119D01*
X1528193Y220137D01*
X1528183Y220161D01*
X1528145Y220186D01*
X1528113Y220218D01*
X1528088Y220224D01*
X1528066Y220238D01*
X1527993Y220249D01*
X1517993Y220249D01*
X1517986Y220247D01*
X1517979Y220249D01*
X1517919Y220228D01*
X1517858Y220210D01*
X1517854Y220205D01*
X1517847Y220202D01*
X1517808Y220152D01*
X1517766Y220105D01*
X1517765Y220098D01*
X1517761Y220092D01*
X1517744Y220020D01*
X1517530Y217302D01*
X1516898Y214669D01*
X1515862Y212169D01*
X1514448Y209861D01*
X1512690Y207802D01*
X1510632Y206044D01*
X1508324Y204630D01*
X1505823Y203594D01*
X1503191Y202962D01*
X1500493Y202750D01*
X1497794Y202962D01*
X1495162Y203594D01*
X1492661Y204630D01*
X1490353Y206044D01*
X1488295Y207802D01*
X1488241Y207865D01*
X1487816Y208364D01*
X1487815Y208364D01*
X1487603Y208613D01*
X1487390Y208862D01*
X1487177Y209112D01*
X1486751Y209610D01*
X1486538Y209859D01*
X1486537Y209861D01*
X1485123Y212169D01*
X1484087Y214669D01*
X1483455Y217302D01*
X1483241Y220020D01*
X1483239Y220026D01*
X1483240Y220033D01*
X1483214Y220091D01*
X1483191Y220150D01*
X1483186Y220155D01*
X1483183Y220161D01*
X1483130Y220196D01*
X1483079Y220234D01*
X1483072Y220234D01*
X1483066Y220238D01*
X1482993Y220249D01*
X1472993Y220249D01*
X1472968Y220242D01*
X1472942Y220244D01*
X1472902Y220223D01*
X1472858Y220210D01*
X1472841Y220190D01*
X1472818Y220178D01*
X1472796Y220139D01*
X1472766Y220105D01*
X1472763Y220079D01*
X1472750Y220056D01*
X1472744Y219982D01*
X1473024Y216069D01*
X1473027Y216059D01*
X1473029Y216033D01*
X1473863Y212199D01*
X1473868Y212191D01*
X1473873Y212165D01*
X1475244Y208489D01*
X1475250Y208481D01*
X1475259Y208457D01*
X1477139Y205013D01*
X1477146Y205006D01*
X1477159Y204983D01*
X1479510Y201842D01*
X1479518Y201836D01*
X1479533Y201815D01*
X1482308Y199041D01*
X1482316Y199036D01*
X1482335Y199017D01*
X1485476Y196666D01*
X1485485Y196663D01*
X1485506Y196647D01*
X1488949Y194766D01*
X1488959Y194764D01*
X1488982Y194752D01*
X1492658Y193380D01*
X1492668Y193380D01*
X1492692Y193370D01*
X1496526Y192536D01*
X1496536Y192537D01*
X1496561Y192531D01*
X1500475Y192251D01*
X1500484Y192253D01*
X1500510Y192251D01*
X1504424Y192531D01*
G37*
G36*
X379001Y192531D02*
X379001Y192531D01*
X379010Y192535D01*
X379036Y192536D01*
X382870Y193370D01*
X382879Y193375D01*
X382904Y193380D01*
X386580Y194752D01*
X386588Y194757D01*
X386613Y194766D01*
X390056Y196647D01*
X390063Y196654D01*
X390086Y196666D01*
X393227Y199017D01*
X393233Y199025D01*
X393254Y199041D01*
X396029Y201815D01*
X396033Y201824D01*
X396052Y201842D01*
X398403Y204983D01*
X398407Y204992D01*
X398423Y205013D01*
X400303Y208457D01*
X400305Y208466D01*
X400318Y208489D01*
X401689Y212165D01*
X401690Y212175D01*
X401699Y212199D01*
X402533Y216033D01*
X402532Y216043D01*
X402538Y216069D01*
X402818Y219982D01*
X402813Y220008D01*
X402816Y220033D01*
X402798Y220075D01*
X402789Y220119D01*
X402770Y220137D01*
X402760Y220161D01*
X402722Y220186D01*
X402690Y220218D01*
X402665Y220224D01*
X402643Y220238D01*
X402569Y220249D01*
X392569Y220249D01*
X392562Y220247D01*
X392555Y220249D01*
X392496Y220228D01*
X392435Y220210D01*
X392430Y220205D01*
X392424Y220202D01*
X392385Y220152D01*
X392343Y220105D01*
X392342Y220098D01*
X392338Y220092D01*
X392321Y220020D01*
X392107Y217302D01*
X391475Y214669D01*
X390439Y212169D01*
X389025Y209861D01*
X387267Y207802D01*
X385209Y206044D01*
X382901Y204630D01*
X380400Y203594D01*
X377768Y202962D01*
X375069Y202750D01*
X372371Y202962D01*
X369739Y203594D01*
X367238Y204630D01*
X364930Y206044D01*
X362872Y207802D01*
X362818Y207865D01*
X362392Y208364D01*
X362179Y208613D01*
X361967Y208862D01*
X361966Y208862D01*
X361754Y209112D01*
X361328Y209610D01*
X361115Y209859D01*
X361114Y209861D01*
X359700Y212169D01*
X358664Y214669D01*
X358032Y217302D01*
X357818Y220020D01*
X357815Y220026D01*
X357816Y220033D01*
X357791Y220091D01*
X357768Y220150D01*
X357763Y220155D01*
X357760Y220161D01*
X357707Y220196D01*
X357656Y220234D01*
X357649Y220234D01*
X357643Y220238D01*
X357569Y220249D01*
X347569Y220249D01*
X347544Y220242D01*
X347518Y220244D01*
X347479Y220223D01*
X347435Y220210D01*
X347418Y220190D01*
X347395Y220178D01*
X347373Y220139D01*
X347343Y220105D01*
X347339Y220079D01*
X347327Y220056D01*
X347321Y219982D01*
X347601Y216069D01*
X347604Y216059D01*
X347606Y216033D01*
X348440Y212199D01*
X348444Y212191D01*
X348450Y212165D01*
X349821Y208489D01*
X349827Y208481D01*
X349836Y208457D01*
X351716Y205013D01*
X351723Y205006D01*
X351735Y204983D01*
X354087Y201842D01*
X354095Y201836D01*
X354110Y201815D01*
X356885Y199041D01*
X356893Y199036D01*
X356911Y199017D01*
X360052Y196666D01*
X360062Y196663D01*
X360082Y196647D01*
X363526Y194766D01*
X363535Y194764D01*
X363558Y194752D01*
X367235Y193380D01*
X367244Y193380D01*
X367269Y193370D01*
X371103Y192536D01*
X371112Y192537D01*
X371138Y192531D01*
X375052Y192251D01*
X375061Y192253D01*
X375087Y192251D01*
X379001Y192531D01*
G37*
G36*
X1054260Y192531D02*
X1054260Y192531D01*
X1054269Y192535D01*
X1054295Y192536D01*
X1058129Y193370D01*
X1058138Y193375D01*
X1058163Y193380D01*
X1061839Y194752D01*
X1061847Y194757D01*
X1061872Y194766D01*
X1065315Y196647D01*
X1065322Y196654D01*
X1065345Y196666D01*
X1068486Y199017D01*
X1068492Y199025D01*
X1068513Y199041D01*
X1071288Y201815D01*
X1071292Y201824D01*
X1071311Y201842D01*
X1073662Y204983D01*
X1073666Y204992D01*
X1073682Y205013D01*
X1075562Y208457D01*
X1075564Y208466D01*
X1075577Y208489D01*
X1076948Y212165D01*
X1076949Y212175D01*
X1076958Y212199D01*
X1077792Y216033D01*
X1077791Y216043D01*
X1077797Y216069D01*
X1078077Y219982D01*
X1078072Y220008D01*
X1078075Y220033D01*
X1078057Y220075D01*
X1078048Y220119D01*
X1078029Y220137D01*
X1078019Y220161D01*
X1077981Y220186D01*
X1077949Y220218D01*
X1077924Y220224D01*
X1077902Y220238D01*
X1077828Y220249D01*
X1067828Y220249D01*
X1067821Y220247D01*
X1067814Y220249D01*
X1067755Y220228D01*
X1067694Y220210D01*
X1067689Y220205D01*
X1067683Y220202D01*
X1067644Y220152D01*
X1067602Y220105D01*
X1067601Y220098D01*
X1067597Y220092D01*
X1067580Y220020D01*
X1067366Y217302D01*
X1066734Y214669D01*
X1065698Y212169D01*
X1064284Y209861D01*
X1062526Y207802D01*
X1060468Y206044D01*
X1058160Y204630D01*
X1055659Y203594D01*
X1053027Y202962D01*
X1050328Y202750D01*
X1047630Y202962D01*
X1044998Y203594D01*
X1042497Y204630D01*
X1040189Y206044D01*
X1038131Y207802D01*
X1038077Y207865D01*
X1037651Y208364D01*
X1037438Y208613D01*
X1037226Y208862D01*
X1037225Y208862D01*
X1037013Y209112D01*
X1036587Y209610D01*
X1036374Y209859D01*
X1036373Y209861D01*
X1034959Y212169D01*
X1033923Y214669D01*
X1033291Y217302D01*
X1033077Y220020D01*
X1033074Y220026D01*
X1033075Y220033D01*
X1033050Y220091D01*
X1033027Y220150D01*
X1033022Y220155D01*
X1033019Y220161D01*
X1032966Y220196D01*
X1032915Y220234D01*
X1032908Y220234D01*
X1032902Y220238D01*
X1032828Y220249D01*
X1022828Y220249D01*
X1022803Y220242D01*
X1022777Y220244D01*
X1022738Y220223D01*
X1022694Y220210D01*
X1022677Y220190D01*
X1022654Y220178D01*
X1022632Y220139D01*
X1022602Y220105D01*
X1022598Y220079D01*
X1022586Y220056D01*
X1022580Y219982D01*
X1022860Y216069D01*
X1022863Y216059D01*
X1022865Y216033D01*
X1023699Y212199D01*
X1023703Y212191D01*
X1023709Y212165D01*
X1025080Y208489D01*
X1025086Y208481D01*
X1025095Y208457D01*
X1026975Y205013D01*
X1026982Y205006D01*
X1026994Y204983D01*
X1029346Y201842D01*
X1029354Y201836D01*
X1029369Y201815D01*
X1032144Y199041D01*
X1032152Y199036D01*
X1032170Y199017D01*
X1035311Y196666D01*
X1035321Y196663D01*
X1035341Y196647D01*
X1038785Y194766D01*
X1038794Y194764D01*
X1038817Y194752D01*
X1042494Y193380D01*
X1042503Y193380D01*
X1042528Y193370D01*
X1046362Y192536D01*
X1046371Y192537D01*
X1046397Y192531D01*
X1050311Y192251D01*
X1050320Y192253D01*
X1050346Y192251D01*
X1054260Y192531D01*
G37*
G36*
X1279329Y192531D02*
X1279329Y192531D01*
X1279338Y192535D01*
X1279364Y192536D01*
X1283198Y193370D01*
X1283207Y193375D01*
X1283233Y193380D01*
X1286909Y194752D01*
X1286917Y194757D01*
X1286941Y194766D01*
X1290385Y196647D01*
X1290392Y196654D01*
X1290415Y196666D01*
X1293556Y199017D01*
X1293562Y199025D01*
X1293583Y199041D01*
X1296357Y201815D01*
X1296362Y201824D01*
X1296380Y201842D01*
X1298732Y204983D01*
X1298735Y204992D01*
X1298751Y205013D01*
X1300631Y208457D01*
X1300634Y208466D01*
X1300646Y208489D01*
X1302017Y212165D01*
X1302018Y212175D01*
X1302027Y212199D01*
X1302861Y216033D01*
X1302861Y216043D01*
X1302867Y216069D01*
X1303146Y219982D01*
X1303141Y220008D01*
X1303145Y220033D01*
X1303126Y220075D01*
X1303117Y220119D01*
X1303099Y220137D01*
X1303088Y220161D01*
X1303050Y220186D01*
X1303018Y220218D01*
X1302993Y220224D01*
X1302971Y220238D01*
X1302898Y220249D01*
X1292898Y220249D01*
X1292891Y220247D01*
X1292884Y220249D01*
X1292825Y220228D01*
X1292764Y220210D01*
X1292759Y220205D01*
X1292752Y220202D01*
X1292713Y220152D01*
X1292672Y220105D01*
X1292671Y220098D01*
X1292666Y220092D01*
X1292649Y220020D01*
X1292435Y217302D01*
X1291804Y214669D01*
X1290768Y212169D01*
X1289353Y209861D01*
X1287595Y207802D01*
X1285537Y206044D01*
X1283229Y204630D01*
X1280728Y203594D01*
X1278096Y202962D01*
X1275398Y202750D01*
X1272699Y202962D01*
X1270067Y203594D01*
X1267566Y204630D01*
X1265259Y206044D01*
X1263200Y207802D01*
X1263147Y207865D01*
X1263146Y207865D01*
X1262721Y208364D01*
X1262508Y208613D01*
X1262295Y208862D01*
X1262082Y209112D01*
X1261656Y209610D01*
X1261443Y209859D01*
X1261442Y209861D01*
X1260028Y212169D01*
X1258992Y214669D01*
X1258360Y217302D01*
X1258146Y220020D01*
X1258144Y220026D01*
X1258145Y220033D01*
X1258119Y220091D01*
X1258097Y220150D01*
X1258091Y220155D01*
X1258088Y220161D01*
X1258035Y220196D01*
X1257985Y220234D01*
X1257977Y220234D01*
X1257971Y220238D01*
X1257898Y220249D01*
X1247898Y220249D01*
X1247873Y220242D01*
X1247847Y220244D01*
X1247807Y220223D01*
X1247764Y220210D01*
X1247746Y220190D01*
X1247724Y220178D01*
X1247701Y220139D01*
X1247672Y220105D01*
X1247668Y220079D01*
X1247655Y220056D01*
X1247649Y219982D01*
X1247929Y216069D01*
X1247932Y216059D01*
X1247934Y216033D01*
X1248768Y212199D01*
X1248773Y212191D01*
X1248778Y212165D01*
X1250149Y208489D01*
X1250155Y208481D01*
X1250164Y208457D01*
X1252045Y205013D01*
X1252051Y205006D01*
X1252064Y204983D01*
X1254415Y201842D01*
X1254423Y201836D01*
X1254438Y201815D01*
X1257213Y199041D01*
X1257221Y199036D01*
X1257240Y199017D01*
X1260381Y196666D01*
X1260390Y196663D01*
X1260411Y196647D01*
X1263854Y194766D01*
X1263864Y194764D01*
X1263887Y194752D01*
X1267563Y193380D01*
X1267573Y193380D01*
X1267597Y193370D01*
X1271431Y192536D01*
X1271441Y192537D01*
X1271466Y192531D01*
X1275380Y192251D01*
X1275390Y192253D01*
X1275416Y192251D01*
X1279329Y192531D01*
G37*
G36*
X604096Y192531D02*
X604096Y192531D01*
X604105Y192535D01*
X604131Y192536D01*
X607965Y193370D01*
X607973Y193375D01*
X607999Y193380D01*
X611675Y194752D01*
X611683Y194757D01*
X611708Y194766D01*
X615151Y196647D01*
X615158Y196654D01*
X615181Y196666D01*
X618322Y199017D01*
X618328Y199025D01*
X618349Y199041D01*
X621124Y201815D01*
X621128Y201824D01*
X621147Y201842D01*
X623498Y204983D01*
X623502Y204992D01*
X623517Y205013D01*
X625398Y208457D01*
X625400Y208466D01*
X625413Y208489D01*
X626784Y212165D01*
X626784Y212175D01*
X626794Y212199D01*
X627628Y216033D01*
X627627Y216043D01*
X627633Y216069D01*
X627913Y219982D01*
X627907Y220008D01*
X627911Y220033D01*
X627893Y220075D01*
X627883Y220119D01*
X627865Y220137D01*
X627854Y220161D01*
X627817Y220186D01*
X627785Y220218D01*
X627759Y220224D01*
X627738Y220238D01*
X627664Y220249D01*
X617664Y220249D01*
X617657Y220247D01*
X617650Y220249D01*
X617591Y220228D01*
X617530Y220210D01*
X617525Y220205D01*
X617518Y220202D01*
X617480Y220152D01*
X617438Y220105D01*
X617437Y220098D01*
X617433Y220092D01*
X617416Y220020D01*
X617202Y217302D01*
X616570Y214669D01*
X615534Y212169D01*
X614120Y209861D01*
X612362Y207802D01*
X610304Y206044D01*
X607996Y204630D01*
X605495Y203594D01*
X602863Y202962D01*
X600164Y202750D01*
X597466Y202962D01*
X594834Y203594D01*
X592333Y204630D01*
X590025Y206044D01*
X587967Y207802D01*
X587913Y207865D01*
X587487Y208364D01*
X587274Y208613D01*
X587061Y208862D01*
X586848Y209112D01*
X586423Y209610D01*
X586210Y209859D01*
X586209Y209861D01*
X584794Y212169D01*
X583759Y214669D01*
X583127Y217302D01*
X582913Y220020D01*
X582910Y220026D01*
X582911Y220033D01*
X582885Y220091D01*
X582863Y220150D01*
X582857Y220155D01*
X582854Y220161D01*
X582802Y220196D01*
X582751Y220234D01*
X582744Y220234D01*
X582738Y220238D01*
X582664Y220249D01*
X572664Y220249D01*
X572639Y220242D01*
X572613Y220244D01*
X572573Y220223D01*
X572530Y220210D01*
X572513Y220190D01*
X572490Y220178D01*
X572468Y220139D01*
X572438Y220105D01*
X572434Y220079D01*
X572421Y220056D01*
X572416Y219982D01*
X572695Y216069D01*
X572699Y216059D01*
X572701Y216033D01*
X573535Y212199D01*
X573539Y212191D01*
X573545Y212165D01*
X574916Y208489D01*
X574922Y208481D01*
X574931Y208457D01*
X576811Y205013D01*
X576818Y205006D01*
X576830Y204983D01*
X579182Y201842D01*
X579189Y201836D01*
X579205Y201815D01*
X581979Y199041D01*
X581988Y199036D01*
X582006Y199017D01*
X585147Y196666D01*
X585156Y196663D01*
X585177Y196647D01*
X588621Y194766D01*
X588630Y194764D01*
X588653Y194752D01*
X592329Y193380D01*
X592339Y193380D01*
X592364Y193370D01*
X596198Y192536D01*
X596207Y192537D01*
X596233Y192531D01*
X600146Y192251D01*
X600156Y192253D01*
X600182Y192251D01*
X604096Y192531D01*
G37*
G36*
X952825Y478253D02*
X952825Y478253D01*
X952832Y478251D01*
X952891Y478272D01*
X952952Y478290D01*
X952957Y478295D01*
X952964Y478298D01*
X953002Y478348D01*
X953044Y478395D01*
X953045Y478402D01*
X953049Y478408D01*
X953066Y478480D01*
X953280Y481198D01*
X953912Y483831D01*
X954948Y486331D01*
X956362Y488639D01*
X958120Y490698D01*
X960179Y492456D01*
X962486Y493870D01*
X964987Y494906D01*
X967619Y495538D01*
X970318Y495750D01*
X973016Y495538D01*
X975648Y494906D01*
X978149Y493870D01*
X980457Y492456D01*
X982515Y490698D01*
X982640Y490552D01*
X982852Y490303D01*
X982853Y490303D01*
X983278Y489804D01*
X983491Y489555D01*
X983704Y489306D01*
X983917Y489057D01*
X984130Y488807D01*
X984273Y488639D01*
X985688Y486331D01*
X986724Y483831D01*
X987355Y481198D01*
X987569Y478480D01*
X987572Y478474D01*
X987571Y478467D01*
X987597Y478409D01*
X987619Y478350D01*
X987625Y478345D01*
X987628Y478339D01*
X987680Y478304D01*
X987731Y478266D01*
X987738Y478266D01*
X987744Y478262D01*
X987818Y478251D01*
X997818Y478251D01*
X997843Y478258D01*
X997869Y478256D01*
X997909Y478277D01*
X997952Y478290D01*
X997969Y478310D01*
X997992Y478322D01*
X998014Y478361D01*
X998044Y478395D01*
X998048Y478421D01*
X998061Y478444D01*
X998066Y478518D01*
X997787Y482431D01*
X997783Y482441D01*
X997781Y482467D01*
X996947Y486301D01*
X996943Y486309D01*
X996937Y486335D01*
X995566Y490011D01*
X995560Y490019D01*
X995551Y490043D01*
X993671Y493487D01*
X993664Y493494D01*
X993652Y493517D01*
X991300Y496658D01*
X991293Y496664D01*
X991277Y496685D01*
X988503Y499459D01*
X988494Y499464D01*
X988476Y499483D01*
X985335Y501834D01*
X985326Y501837D01*
X985305Y501853D01*
X981861Y503734D01*
X981852Y503736D01*
X981829Y503748D01*
X978153Y505120D01*
X978143Y505120D01*
X978118Y505130D01*
X974284Y505964D01*
X974275Y505963D01*
X974249Y505969D01*
X970336Y506249D01*
X970326Y506247D01*
X970300Y506249D01*
X966386Y505969D01*
X966377Y505965D01*
X966351Y505964D01*
X962517Y505130D01*
X962509Y505125D01*
X962483Y505120D01*
X958807Y503748D01*
X958799Y503743D01*
X958774Y503734D01*
X955331Y501853D01*
X955324Y501846D01*
X955301Y501834D01*
X952160Y499483D01*
X952154Y499475D01*
X952133Y499459D01*
X949358Y496685D01*
X949354Y496676D01*
X949335Y496658D01*
X946984Y493517D01*
X946980Y493508D01*
X946965Y493487D01*
X945084Y490043D01*
X945082Y490034D01*
X945069Y490011D01*
X943698Y486335D01*
X943698Y486325D01*
X943688Y486301D01*
X942854Y482467D01*
X942855Y482457D01*
X942849Y482431D01*
X942569Y478518D01*
X942575Y478492D01*
X942571Y478467D01*
X942589Y478425D01*
X942599Y478381D01*
X942617Y478363D01*
X942628Y478339D01*
X942665Y478314D01*
X942697Y478282D01*
X942723Y478276D01*
X942744Y478262D01*
X942818Y478251D01*
X952818Y478251D01*
X952825Y478253D01*
G37*
G36*
X1177920Y478253D02*
X1177920Y478253D01*
X1177927Y478251D01*
X1177986Y478272D01*
X1178047Y478290D01*
X1178052Y478295D01*
X1178058Y478298D01*
X1178097Y478348D01*
X1178139Y478395D01*
X1178140Y478402D01*
X1178144Y478408D01*
X1178161Y478480D01*
X1178375Y481198D01*
X1179007Y483831D01*
X1180043Y486331D01*
X1181457Y488639D01*
X1183215Y490698D01*
X1185273Y492456D01*
X1187581Y493870D01*
X1190082Y494906D01*
X1192714Y495538D01*
X1195413Y495750D01*
X1198111Y495538D01*
X1200743Y494906D01*
X1203244Y493870D01*
X1205552Y492456D01*
X1207610Y490698D01*
X1207734Y490552D01*
X1207947Y490303D01*
X1208373Y489804D01*
X1208586Y489555D01*
X1208799Y489306D01*
X1209012Y489057D01*
X1209225Y488807D01*
X1209368Y488639D01*
X1210782Y486331D01*
X1211818Y483831D01*
X1212450Y481198D01*
X1212664Y478480D01*
X1212667Y478474D01*
X1212666Y478467D01*
X1212691Y478409D01*
X1212714Y478350D01*
X1212720Y478345D01*
X1212722Y478339D01*
X1212775Y478304D01*
X1212826Y478266D01*
X1212833Y478266D01*
X1212839Y478262D01*
X1212913Y478251D01*
X1222913Y478251D01*
X1222938Y478258D01*
X1222964Y478256D01*
X1223003Y478277D01*
X1223047Y478290D01*
X1223064Y478310D01*
X1223087Y478322D01*
X1223109Y478361D01*
X1223139Y478395D01*
X1223143Y478421D01*
X1223155Y478444D01*
X1223161Y478518D01*
X1222881Y482431D01*
X1222878Y482441D01*
X1222876Y482467D01*
X1222042Y486301D01*
X1222038Y486309D01*
X1222032Y486335D01*
X1220661Y490011D01*
X1220655Y490019D01*
X1220646Y490043D01*
X1218766Y493487D01*
X1218759Y493494D01*
X1218747Y493517D01*
X1216395Y496658D01*
X1216388Y496664D01*
X1216372Y496685D01*
X1213598Y499459D01*
X1213589Y499464D01*
X1213571Y499483D01*
X1210430Y501834D01*
X1210421Y501837D01*
X1210400Y501853D01*
X1206956Y503734D01*
X1206947Y503736D01*
X1206924Y503748D01*
X1203247Y505120D01*
X1203238Y505120D01*
X1203213Y505130D01*
X1199379Y505964D01*
X1199370Y505963D01*
X1199344Y505969D01*
X1195430Y506249D01*
X1195421Y506247D01*
X1195395Y506249D01*
X1191481Y505969D01*
X1191472Y505965D01*
X1191446Y505964D01*
X1187612Y505130D01*
X1187603Y505125D01*
X1187578Y505120D01*
X1183902Y503748D01*
X1183894Y503743D01*
X1183869Y503734D01*
X1180426Y501853D01*
X1180419Y501846D01*
X1180396Y501834D01*
X1177255Y499483D01*
X1177249Y499475D01*
X1177228Y499459D01*
X1174453Y496685D01*
X1174449Y496676D01*
X1174430Y496658D01*
X1172079Y493517D01*
X1172075Y493508D01*
X1172059Y493487D01*
X1170179Y490043D01*
X1170177Y490034D01*
X1170164Y490011D01*
X1168793Y486335D01*
X1168792Y486325D01*
X1168783Y486301D01*
X1167949Y482467D01*
X1167950Y482457D01*
X1167944Y482431D01*
X1167664Y478518D01*
X1167669Y478492D01*
X1167666Y478467D01*
X1167684Y478425D01*
X1167694Y478381D01*
X1167712Y478363D01*
X1167722Y478339D01*
X1167760Y478314D01*
X1167792Y478282D01*
X1167817Y478276D01*
X1167839Y478262D01*
X1167913Y478251D01*
X1177913Y478251D01*
X1177920Y478253D01*
G37*
G36*
X52496Y478253D02*
X52496Y478253D01*
X52503Y478251D01*
X52563Y478272D01*
X52624Y478290D01*
X52628Y478295D01*
X52635Y478298D01*
X52674Y478348D01*
X52716Y478395D01*
X52717Y478402D01*
X52721Y478408D01*
X52738Y478480D01*
X52952Y481198D01*
X53584Y483831D01*
X54620Y486331D01*
X56034Y488639D01*
X57792Y490698D01*
X59850Y492456D01*
X62158Y493870D01*
X64659Y494906D01*
X67291Y495538D01*
X69989Y495750D01*
X72688Y495538D01*
X75320Y494906D01*
X77821Y493870D01*
X80129Y492456D01*
X82187Y490698D01*
X82311Y490552D01*
X82524Y490303D01*
X82950Y489804D01*
X83163Y489555D01*
X83376Y489306D01*
X83588Y489057D01*
X83589Y489057D01*
X83801Y488807D01*
X83945Y488639D01*
X85359Y486331D01*
X86395Y483831D01*
X87027Y481198D01*
X87241Y478480D01*
X87244Y478474D01*
X87242Y478467D01*
X87268Y478409D01*
X87291Y478350D01*
X87296Y478345D01*
X87299Y478339D01*
X87352Y478304D01*
X87403Y478266D01*
X87410Y478266D01*
X87416Y478262D01*
X87489Y478251D01*
X97489Y478251D01*
X97514Y478258D01*
X97540Y478256D01*
X97580Y478277D01*
X97624Y478290D01*
X97641Y478310D01*
X97664Y478322D01*
X97686Y478361D01*
X97716Y478395D01*
X97719Y478421D01*
X97732Y478444D01*
X97738Y478518D01*
X97458Y482431D01*
X97455Y482441D01*
X97453Y482467D01*
X96619Y486301D01*
X96614Y486309D01*
X96609Y486335D01*
X95238Y490011D01*
X95232Y490019D01*
X95223Y490043D01*
X93343Y493487D01*
X93336Y493494D01*
X93323Y493517D01*
X90972Y496658D01*
X90964Y496664D01*
X90949Y496685D01*
X88174Y499459D01*
X88166Y499464D01*
X88147Y499483D01*
X85006Y501834D01*
X84997Y501837D01*
X84976Y501853D01*
X81533Y503734D01*
X81523Y503736D01*
X81500Y503748D01*
X77824Y505120D01*
X77815Y505120D01*
X77790Y505130D01*
X73956Y505964D01*
X73946Y505963D01*
X73921Y505969D01*
X70007Y506249D01*
X69998Y506247D01*
X69972Y506249D01*
X66058Y505969D01*
X66049Y505965D01*
X66023Y505964D01*
X62189Y505130D01*
X62180Y505125D01*
X62155Y505120D01*
X58478Y503748D01*
X58471Y503743D01*
X58446Y503734D01*
X55002Y501853D01*
X54996Y501846D01*
X54972Y501834D01*
X51831Y499483D01*
X51826Y499475D01*
X51805Y499459D01*
X49030Y496685D01*
X49025Y496676D01*
X49007Y496658D01*
X46655Y493517D01*
X46652Y493508D01*
X46636Y493487D01*
X44756Y490043D01*
X44754Y490034D01*
X44741Y490011D01*
X43370Y486335D01*
X43369Y486325D01*
X43360Y486301D01*
X42526Y482467D01*
X42526Y482457D01*
X42521Y482431D01*
X42241Y478518D01*
X42246Y478492D01*
X42242Y478467D01*
X42261Y478425D01*
X42270Y478381D01*
X42289Y478363D01*
X42299Y478339D01*
X42337Y478314D01*
X42369Y478282D01*
X42394Y478276D01*
X42416Y478262D01*
X42489Y478251D01*
X52489Y478251D01*
X52496Y478253D01*
G37*
G36*
X1628058Y478253D02*
X1628058Y478253D01*
X1628065Y478251D01*
X1628125Y478272D01*
X1628186Y478290D01*
X1628190Y478295D01*
X1628197Y478298D01*
X1628236Y478348D01*
X1628278Y478395D01*
X1628279Y478402D01*
X1628283Y478408D01*
X1628300Y478480D01*
X1628514Y481198D01*
X1629146Y483831D01*
X1630182Y486331D01*
X1631596Y488639D01*
X1633354Y490698D01*
X1635412Y492456D01*
X1637720Y493870D01*
X1640221Y494906D01*
X1642853Y495538D01*
X1645551Y495750D01*
X1648250Y495538D01*
X1650882Y494906D01*
X1653383Y493870D01*
X1655691Y492456D01*
X1657749Y490698D01*
X1657873Y490552D01*
X1658086Y490303D01*
X1658512Y489804D01*
X1658725Y489555D01*
X1658938Y489306D01*
X1659150Y489057D01*
X1659151Y489057D01*
X1659363Y488807D01*
X1659507Y488639D01*
X1660921Y486331D01*
X1661957Y483831D01*
X1662589Y481198D01*
X1662803Y478480D01*
X1662806Y478474D01*
X1662804Y478467D01*
X1662830Y478409D01*
X1662853Y478350D01*
X1662858Y478345D01*
X1662861Y478339D01*
X1662914Y478304D01*
X1662965Y478266D01*
X1662972Y478266D01*
X1662978Y478262D01*
X1663051Y478251D01*
X1673051Y478251D01*
X1673076Y478258D01*
X1673102Y478256D01*
X1673142Y478277D01*
X1673186Y478290D01*
X1673203Y478310D01*
X1673226Y478322D01*
X1673248Y478361D01*
X1673278Y478395D01*
X1673281Y478421D01*
X1673294Y478444D01*
X1673300Y478518D01*
X1673020Y482431D01*
X1673017Y482441D01*
X1673015Y482467D01*
X1672181Y486301D01*
X1672176Y486309D01*
X1672171Y486335D01*
X1670800Y490011D01*
X1670794Y490019D01*
X1670785Y490043D01*
X1668905Y493487D01*
X1668898Y493494D01*
X1668885Y493517D01*
X1666534Y496658D01*
X1666526Y496664D01*
X1666511Y496685D01*
X1663736Y499459D01*
X1663728Y499464D01*
X1663709Y499483D01*
X1660568Y501834D01*
X1660559Y501837D01*
X1660538Y501853D01*
X1657095Y503734D01*
X1657085Y503736D01*
X1657062Y503748D01*
X1653386Y505120D01*
X1653377Y505120D01*
X1653352Y505130D01*
X1649518Y505964D01*
X1649508Y505963D01*
X1649483Y505969D01*
X1645569Y506249D01*
X1645560Y506247D01*
X1645534Y506249D01*
X1641620Y505969D01*
X1641611Y505965D01*
X1641585Y505964D01*
X1637751Y505130D01*
X1637742Y505125D01*
X1637717Y505120D01*
X1634040Y503748D01*
X1634033Y503743D01*
X1634008Y503734D01*
X1630564Y501853D01*
X1630558Y501846D01*
X1630534Y501834D01*
X1627393Y499483D01*
X1627388Y499475D01*
X1627367Y499459D01*
X1624592Y496685D01*
X1624587Y496676D01*
X1624569Y496658D01*
X1622217Y493517D01*
X1622214Y493508D01*
X1622198Y493487D01*
X1620318Y490043D01*
X1620316Y490034D01*
X1620303Y490011D01*
X1618932Y486335D01*
X1618931Y486325D01*
X1618922Y486301D01*
X1618088Y482467D01*
X1618088Y482457D01*
X1618083Y482431D01*
X1617803Y478518D01*
X1617808Y478492D01*
X1617804Y478467D01*
X1617823Y478425D01*
X1617832Y478381D01*
X1617851Y478363D01*
X1617861Y478339D01*
X1617899Y478314D01*
X1617931Y478282D01*
X1617956Y478276D01*
X1617978Y478262D01*
X1618051Y478251D01*
X1628051Y478251D01*
X1628058Y478253D01*
G37*
G36*
X502661Y478253D02*
X502661Y478253D01*
X502668Y478251D01*
X502727Y478272D01*
X502788Y478290D01*
X502793Y478295D01*
X502799Y478298D01*
X502838Y478348D01*
X502880Y478395D01*
X502881Y478402D01*
X502885Y478408D01*
X502902Y478480D01*
X503116Y481198D01*
X503748Y483831D01*
X504784Y486331D01*
X506198Y488639D01*
X507956Y490698D01*
X510014Y492456D01*
X512322Y493870D01*
X514823Y494906D01*
X517455Y495538D01*
X520154Y495750D01*
X522852Y495538D01*
X525484Y494906D01*
X527985Y493870D01*
X530293Y492456D01*
X532351Y490698D01*
X532475Y490552D01*
X532688Y490303D01*
X533114Y489804D01*
X533327Y489555D01*
X533540Y489306D01*
X533753Y489057D01*
X533966Y488807D01*
X534109Y488639D01*
X535523Y486331D01*
X536559Y483831D01*
X537191Y481198D01*
X537405Y478480D01*
X537408Y478474D01*
X537407Y478467D01*
X537432Y478409D01*
X537455Y478350D01*
X537461Y478345D01*
X537463Y478339D01*
X537516Y478304D01*
X537567Y478266D01*
X537574Y478266D01*
X537580Y478262D01*
X537654Y478251D01*
X547654Y478251D01*
X547679Y478258D01*
X547705Y478256D01*
X547744Y478277D01*
X547788Y478290D01*
X547805Y478310D01*
X547828Y478322D01*
X547850Y478361D01*
X547880Y478395D01*
X547884Y478421D01*
X547896Y478444D01*
X547902Y478518D01*
X547622Y482431D01*
X547619Y482441D01*
X547617Y482467D01*
X546783Y486301D01*
X546779Y486309D01*
X546773Y486335D01*
X545402Y490011D01*
X545396Y490019D01*
X545387Y490043D01*
X543507Y493487D01*
X543500Y493494D01*
X543488Y493517D01*
X541136Y496658D01*
X541129Y496664D01*
X541113Y496685D01*
X538339Y499459D01*
X538330Y499464D01*
X538312Y499483D01*
X535171Y501834D01*
X535162Y501837D01*
X535141Y501853D01*
X531697Y503734D01*
X531688Y503736D01*
X531665Y503748D01*
X527988Y505120D01*
X527979Y505120D01*
X527954Y505130D01*
X524120Y505964D01*
X524111Y505963D01*
X524085Y505969D01*
X520171Y506249D01*
X520162Y506247D01*
X520136Y506249D01*
X516222Y505969D01*
X516213Y505965D01*
X516187Y505964D01*
X512353Y505130D01*
X512344Y505125D01*
X512319Y505120D01*
X508643Y503748D01*
X508635Y503743D01*
X508610Y503734D01*
X505167Y501853D01*
X505160Y501846D01*
X505137Y501834D01*
X501996Y499483D01*
X501990Y499475D01*
X501969Y499459D01*
X499194Y496685D01*
X499190Y496676D01*
X499171Y496658D01*
X496820Y493517D01*
X496816Y493508D01*
X496800Y493487D01*
X494920Y490043D01*
X494918Y490034D01*
X494905Y490011D01*
X493534Y486335D01*
X493533Y486325D01*
X493524Y486301D01*
X492690Y482467D01*
X492691Y482457D01*
X492685Y482431D01*
X492405Y478518D01*
X492410Y478492D01*
X492407Y478467D01*
X492425Y478425D01*
X492435Y478381D01*
X492453Y478363D01*
X492463Y478339D01*
X492501Y478314D01*
X492533Y478282D01*
X492558Y478276D01*
X492580Y478262D01*
X492654Y478251D01*
X502654Y478251D01*
X502661Y478253D01*
G37*
G36*
X1402989Y478253D02*
X1402989Y478253D01*
X1402996Y478251D01*
X1403055Y478272D01*
X1403116Y478290D01*
X1403121Y478295D01*
X1403128Y478298D01*
X1403167Y478348D01*
X1403208Y478395D01*
X1403209Y478402D01*
X1403214Y478408D01*
X1403230Y478480D01*
X1403444Y481198D01*
X1404076Y483831D01*
X1405112Y486331D01*
X1406526Y488639D01*
X1408284Y490698D01*
X1410343Y492456D01*
X1412651Y493870D01*
X1415151Y494906D01*
X1417784Y495538D01*
X1420482Y495750D01*
X1423180Y495538D01*
X1425813Y494906D01*
X1428313Y493870D01*
X1430621Y492456D01*
X1432680Y490698D01*
X1432804Y490552D01*
X1433017Y490303D01*
X1433442Y489804D01*
X1433443Y489804D01*
X1433655Y489555D01*
X1433868Y489306D01*
X1434081Y489057D01*
X1434294Y488807D01*
X1434438Y488639D01*
X1435852Y486331D01*
X1436888Y483831D01*
X1437520Y481198D01*
X1437734Y478480D01*
X1437736Y478474D01*
X1437735Y478467D01*
X1437761Y478409D01*
X1437783Y478350D01*
X1437789Y478345D01*
X1437792Y478339D01*
X1437845Y478304D01*
X1437895Y478266D01*
X1437903Y478266D01*
X1437909Y478262D01*
X1437982Y478251D01*
X1447982Y478251D01*
X1448007Y478258D01*
X1448033Y478256D01*
X1448073Y478277D01*
X1448116Y478290D01*
X1448133Y478310D01*
X1448156Y478322D01*
X1448178Y478361D01*
X1448208Y478395D01*
X1448212Y478421D01*
X1448225Y478444D01*
X1448231Y478518D01*
X1447951Y482431D01*
X1447947Y482441D01*
X1447946Y482467D01*
X1447112Y486301D01*
X1447107Y486309D01*
X1447102Y486335D01*
X1445730Y490011D01*
X1445725Y490019D01*
X1445716Y490043D01*
X1443835Y493487D01*
X1443828Y493494D01*
X1443816Y493517D01*
X1441465Y496658D01*
X1441457Y496664D01*
X1441441Y496685D01*
X1438667Y499459D01*
X1438658Y499464D01*
X1438640Y499483D01*
X1435499Y501834D01*
X1435490Y501837D01*
X1435469Y501853D01*
X1432025Y503734D01*
X1432016Y503736D01*
X1431993Y503748D01*
X1428317Y505120D01*
X1428307Y505120D01*
X1428283Y505130D01*
X1424449Y505964D01*
X1424439Y505963D01*
X1424413Y505969D01*
X1420500Y506249D01*
X1420490Y506247D01*
X1420464Y506249D01*
X1416551Y505969D01*
X1416541Y505965D01*
X1416515Y505964D01*
X1412681Y505130D01*
X1412673Y505125D01*
X1412647Y505120D01*
X1408971Y503748D01*
X1408963Y503743D01*
X1408939Y503734D01*
X1405495Y501853D01*
X1405488Y501846D01*
X1405465Y501834D01*
X1402324Y499483D01*
X1402318Y499475D01*
X1402297Y499459D01*
X1399523Y496685D01*
X1399518Y496676D01*
X1399499Y496658D01*
X1397148Y493517D01*
X1397145Y493508D01*
X1397129Y493487D01*
X1395248Y490043D01*
X1395246Y490034D01*
X1395234Y490011D01*
X1393862Y486335D01*
X1393862Y486325D01*
X1393852Y486301D01*
X1393018Y482467D01*
X1393019Y482457D01*
X1393013Y482431D01*
X1392733Y478518D01*
X1392739Y478492D01*
X1392735Y478467D01*
X1392753Y478425D01*
X1392763Y478381D01*
X1392781Y478363D01*
X1392792Y478339D01*
X1392830Y478314D01*
X1392861Y478282D01*
X1392887Y478276D01*
X1392909Y478262D01*
X1392982Y478251D01*
X1402982Y478251D01*
X1402989Y478253D01*
G37*
G36*
X277591Y478253D02*
X277591Y478253D01*
X277598Y478251D01*
X277657Y478272D01*
X277718Y478290D01*
X277723Y478295D01*
X277730Y478298D01*
X277769Y478348D01*
X277810Y478395D01*
X277811Y478402D01*
X277816Y478408D01*
X277833Y478480D01*
X278047Y481198D01*
X278679Y483831D01*
X279714Y486331D01*
X281129Y488639D01*
X282887Y490698D01*
X284945Y492456D01*
X287253Y493870D01*
X289754Y494906D01*
X292386Y495538D01*
X295084Y495750D01*
X297783Y495538D01*
X300415Y494906D01*
X302916Y493870D01*
X305224Y492456D01*
X307282Y490698D01*
X307406Y490552D01*
X307619Y490303D01*
X308045Y489804D01*
X308258Y489555D01*
X308470Y489306D01*
X308683Y489057D01*
X308896Y488807D01*
X309040Y488639D01*
X310454Y486331D01*
X311490Y483831D01*
X312122Y481198D01*
X312336Y478480D01*
X312338Y478474D01*
X312337Y478467D01*
X312363Y478409D01*
X312385Y478350D01*
X312391Y478345D01*
X312394Y478339D01*
X312447Y478304D01*
X312497Y478266D01*
X312505Y478266D01*
X312511Y478262D01*
X312584Y478251D01*
X322584Y478251D01*
X322609Y478258D01*
X322635Y478256D01*
X322675Y478277D01*
X322718Y478290D01*
X322736Y478310D01*
X322758Y478322D01*
X322781Y478361D01*
X322810Y478395D01*
X322814Y478421D01*
X322827Y478444D01*
X322833Y478518D01*
X322553Y482431D01*
X322550Y482441D01*
X322548Y482467D01*
X321714Y486301D01*
X321709Y486309D01*
X321704Y486335D01*
X320333Y490011D01*
X320327Y490019D01*
X320318Y490043D01*
X318437Y493487D01*
X318431Y493494D01*
X318418Y493517D01*
X316067Y496658D01*
X316059Y496664D01*
X316044Y496685D01*
X313269Y499459D01*
X313261Y499464D01*
X313242Y499483D01*
X310101Y501834D01*
X310092Y501837D01*
X310071Y501853D01*
X306628Y503734D01*
X306618Y503736D01*
X306595Y503748D01*
X302919Y505120D01*
X302909Y505120D01*
X302885Y505130D01*
X299051Y505964D01*
X299041Y505963D01*
X299016Y505969D01*
X295102Y506249D01*
X295093Y506247D01*
X295066Y506249D01*
X291153Y505969D01*
X291144Y505965D01*
X291118Y505964D01*
X287284Y505130D01*
X287275Y505125D01*
X287249Y505120D01*
X283573Y503748D01*
X283565Y503743D01*
X283541Y503734D01*
X280097Y501853D01*
X280090Y501846D01*
X280067Y501834D01*
X276926Y499483D01*
X276920Y499475D01*
X276899Y499459D01*
X274125Y496685D01*
X274120Y496676D01*
X274102Y496658D01*
X271750Y493517D01*
X271747Y493508D01*
X271731Y493487D01*
X269851Y490043D01*
X269849Y490034D01*
X269836Y490011D01*
X268465Y486335D01*
X268464Y486325D01*
X268455Y486301D01*
X267621Y482467D01*
X267621Y482457D01*
X267615Y482431D01*
X267336Y478518D01*
X267341Y478492D01*
X267337Y478467D01*
X267356Y478425D01*
X267365Y478381D01*
X267383Y478363D01*
X267394Y478339D01*
X267432Y478314D01*
X267464Y478282D01*
X267489Y478276D01*
X267511Y478262D01*
X267584Y478251D01*
X277584Y478251D01*
X277591Y478253D01*
G37*
G36*
X727755Y478253D02*
X727755Y478253D01*
X727762Y478251D01*
X727822Y478272D01*
X727883Y478290D01*
X727887Y478295D01*
X727894Y478298D01*
X727933Y478348D01*
X727975Y478395D01*
X727976Y478402D01*
X727980Y478408D01*
X727997Y478480D01*
X728211Y481198D01*
X728843Y483831D01*
X729879Y486331D01*
X731293Y488639D01*
X733051Y490698D01*
X735109Y492456D01*
X737417Y493870D01*
X739918Y494906D01*
X742550Y495538D01*
X745248Y495750D01*
X747947Y495538D01*
X750579Y494906D01*
X753080Y493870D01*
X755388Y492456D01*
X757446Y490698D01*
X757570Y490552D01*
X757783Y490303D01*
X758209Y489804D01*
X758422Y489555D01*
X758635Y489306D01*
X758847Y489057D01*
X758848Y489057D01*
X759060Y488807D01*
X759204Y488639D01*
X760618Y486331D01*
X761654Y483831D01*
X762286Y481198D01*
X762500Y478480D01*
X762503Y478474D01*
X762501Y478467D01*
X762527Y478409D01*
X762550Y478350D01*
X762555Y478345D01*
X762558Y478339D01*
X762611Y478304D01*
X762662Y478266D01*
X762669Y478266D01*
X762675Y478262D01*
X762748Y478251D01*
X772748Y478251D01*
X772773Y478258D01*
X772799Y478256D01*
X772839Y478277D01*
X772883Y478290D01*
X772900Y478310D01*
X772923Y478322D01*
X772945Y478361D01*
X772975Y478395D01*
X772978Y478421D01*
X772991Y478444D01*
X772997Y478518D01*
X772717Y482431D01*
X772714Y482441D01*
X772712Y482467D01*
X771878Y486301D01*
X771873Y486309D01*
X771868Y486335D01*
X770497Y490011D01*
X770491Y490019D01*
X770482Y490043D01*
X768602Y493487D01*
X768595Y493494D01*
X768582Y493517D01*
X766231Y496658D01*
X766223Y496664D01*
X766208Y496685D01*
X763433Y499459D01*
X763425Y499464D01*
X763406Y499483D01*
X760265Y501834D01*
X760256Y501837D01*
X760235Y501853D01*
X756792Y503734D01*
X756782Y503736D01*
X756759Y503748D01*
X753083Y505120D01*
X753074Y505120D01*
X753049Y505130D01*
X749215Y505964D01*
X749205Y505963D01*
X749180Y505969D01*
X745266Y506249D01*
X745257Y506247D01*
X745231Y506249D01*
X741317Y505969D01*
X741308Y505965D01*
X741282Y505964D01*
X737448Y505130D01*
X737439Y505125D01*
X737414Y505120D01*
X733737Y503748D01*
X733730Y503743D01*
X733705Y503734D01*
X730261Y501853D01*
X730255Y501846D01*
X730231Y501834D01*
X727090Y499483D01*
X727085Y499475D01*
X727064Y499459D01*
X724289Y496685D01*
X724284Y496676D01*
X724266Y496658D01*
X721914Y493517D01*
X721911Y493508D01*
X721895Y493487D01*
X720015Y490043D01*
X720013Y490034D01*
X720000Y490011D01*
X718629Y486335D01*
X718628Y486325D01*
X718619Y486301D01*
X717785Y482467D01*
X717785Y482457D01*
X717780Y482431D01*
X717500Y478518D01*
X717505Y478492D01*
X717501Y478467D01*
X717520Y478425D01*
X717529Y478381D01*
X717548Y478363D01*
X717558Y478339D01*
X717596Y478314D01*
X717628Y478282D01*
X717653Y478276D01*
X717675Y478262D01*
X717748Y478251D01*
X727748Y478251D01*
X727755Y478253D01*
G37*
D10*
X59500Y105800D03*
X49500Y105800D03*
X59500Y115000D03*
X49500Y115000D03*
D11*
X200000Y15250D03*
X195000Y15250D03*
X190000Y15250D03*
X185000Y15250D03*
X180000Y15250D03*
X175000Y15250D03*
X170000Y15250D03*
X165000Y15250D03*
X160000Y15250D03*
X155000Y15250D03*
X150000Y15250D03*
X125000Y15250D03*
X120000Y15250D03*
X115000Y15250D03*
X110000Y15250D03*
X105000Y15250D03*
X100000Y15250D03*
X95000Y15250D03*
X90000Y15250D03*
X85000Y15250D03*
X80000Y15250D03*
X75000Y15250D03*
X70000Y15250D03*
X65000Y15250D03*
X60000Y15250D03*
X55000Y15250D03*
X50000Y15250D03*
X45000Y15250D03*
X40000Y15250D03*
X35000Y15250D03*
X30000Y15250D03*
X25000Y15250D03*
X20000Y15250D03*
D12*
X129000Y210000D03*
X171000Y210000D03*
X150000Y197000D03*
D13*
X209350Y103358D03*
X190950Y96858D03*
X190950Y90358D03*
X190950Y103358D03*
X209350Y96858D03*
X209350Y90358D03*
D10*
X195150Y75438D03*
X205150Y75438D03*
X205150Y116840D03*
X195150Y116840D03*
D14*
X177940Y138902D03*
X182940Y138902D03*
X187940Y138902D03*
X192940Y138902D03*
X197940Y138902D03*
X202940Y138902D03*
D15*
X210940Y146902D03*
X210940Y151902D03*
X210940Y156902D03*
X210940Y161902D03*
X210940Y166902D03*
X210940Y171902D03*
X169940Y171902D03*
X169940Y166902D03*
X169940Y161902D03*
X169940Y156902D03*
X169940Y151902D03*
X169940Y146902D03*
D14*
X202940Y179902D03*
X197940Y179902D03*
X192940Y179902D03*
X187940Y179902D03*
X182940Y179902D03*
X177940Y179902D03*
D16*
X190440Y159402D03*
D10*
X148216Y170646D03*
X138216Y170646D03*
X148216Y180086D03*
X138216Y180086D03*
X197280Y201136D03*
X207280Y201136D03*
X207280Y191830D03*
X197280Y191830D03*
X187920Y191830D03*
X177920Y191830D03*
D17*
X129050Y82250D03*
X116350Y82250D03*
X103650Y82250D03*
X90950Y82250D03*
X103650Y137750D03*
X90950Y137750D03*
X116350Y137750D03*
X129050Y137750D03*
D18*
X6040Y50000D03*
X213230Y213030D03*
D10*
X284569Y105800D03*
X274569Y105800D03*
X284569Y115000D03*
X274569Y115000D03*
D11*
X425069Y15250D03*
X420069Y15250D03*
X415069Y15250D03*
X410069Y15250D03*
X405069Y15250D03*
X400069Y15250D03*
X395069Y15250D03*
X390069Y15250D03*
X385069Y15250D03*
X380069Y15250D03*
X375069Y15250D03*
X350069Y15250D03*
X345069Y15250D03*
X340069Y15250D03*
X335069Y15250D03*
X330069Y15250D03*
X325069Y15250D03*
X320069Y15250D03*
X315069Y15250D03*
X310069Y15250D03*
X305069Y15250D03*
X300069Y15250D03*
X295069Y15250D03*
X290069Y15250D03*
X285069Y15250D03*
X280069Y15250D03*
X275069Y15250D03*
X270069Y15250D03*
X265069Y15250D03*
X260069Y15250D03*
X255069Y15250D03*
X250069Y15250D03*
X245069Y15250D03*
D12*
X354069Y210000D03*
X396069Y210000D03*
X375069Y197000D03*
D13*
X434419Y103358D03*
X416019Y96858D03*
X416019Y90358D03*
X416019Y103358D03*
X434419Y96858D03*
X434419Y90358D03*
D10*
X420219Y75438D03*
X430219Y75438D03*
X430219Y116840D03*
X420219Y116840D03*
D14*
X403009Y138902D03*
X408009Y138902D03*
X413009Y138902D03*
X418009Y138902D03*
X423009Y138902D03*
X428009Y138902D03*
D15*
X436009Y146902D03*
X436009Y151902D03*
X436009Y156902D03*
X436009Y161902D03*
X436009Y166902D03*
X436009Y171902D03*
X395009Y171902D03*
X395009Y166902D03*
X395009Y161902D03*
X395009Y156902D03*
X395009Y151902D03*
X395009Y146902D03*
D14*
X428009Y179902D03*
X423009Y179902D03*
X418009Y179902D03*
X413009Y179902D03*
X408009Y179902D03*
X403009Y179902D03*
D16*
X415509Y159402D03*
D10*
X373285Y170646D03*
X363285Y170646D03*
X373285Y180086D03*
X363285Y180086D03*
X422349Y201136D03*
X432349Y201136D03*
X432349Y191830D03*
X422349Y191830D03*
X412989Y191830D03*
X402989Y191830D03*
D17*
X354119Y82250D03*
X341419Y82250D03*
X328719Y82250D03*
X316019Y82250D03*
X328719Y137750D03*
X316019Y137750D03*
X341419Y137750D03*
X354119Y137750D03*
D18*
X231109Y50000D03*
X438299Y213030D03*
D10*
X509664Y105800D03*
X499664Y105800D03*
X509664Y115000D03*
X499664Y115000D03*
D11*
X650164Y15250D03*
X645164Y15250D03*
X640164Y15250D03*
X635164Y15250D03*
X630164Y15250D03*
X625164Y15250D03*
X620164Y15250D03*
X615164Y15250D03*
X610164Y15250D03*
X605164Y15250D03*
X600164Y15250D03*
X575164Y15250D03*
X570164Y15250D03*
X565164Y15250D03*
X560164Y15250D03*
X555164Y15250D03*
X550164Y15250D03*
X545164Y15250D03*
X540164Y15250D03*
X535164Y15250D03*
X530164Y15250D03*
X525164Y15250D03*
X520164Y15250D03*
X515164Y15250D03*
X510164Y15250D03*
X505164Y15250D03*
X500164Y15250D03*
X495164Y15250D03*
X490164Y15250D03*
X485164Y15250D03*
X480164Y15250D03*
X475164Y15250D03*
X470164Y15250D03*
D12*
X579164Y210000D03*
X621164Y210000D03*
X600164Y197000D03*
D13*
X659514Y103358D03*
X641114Y96858D03*
X641114Y90358D03*
X641114Y103358D03*
X659514Y96858D03*
X659514Y90358D03*
D10*
X645314Y75438D03*
X655314Y75438D03*
X655314Y116840D03*
X645314Y116840D03*
D14*
X628104Y138902D03*
X633104Y138902D03*
X638104Y138902D03*
X643104Y138902D03*
X648104Y138902D03*
X653104Y138902D03*
D15*
X661104Y146902D03*
X661104Y151902D03*
X661104Y156902D03*
X661104Y161902D03*
X661104Y166902D03*
X661104Y171902D03*
X620104Y171902D03*
X620104Y166902D03*
X620104Y161902D03*
X620104Y156902D03*
X620104Y151902D03*
X620104Y146902D03*
D14*
X653104Y179902D03*
X648104Y179902D03*
X643104Y179902D03*
X638104Y179902D03*
X633104Y179902D03*
X628104Y179902D03*
D16*
X640604Y159402D03*
D10*
X598380Y170646D03*
X588380Y170646D03*
X598380Y180086D03*
X588380Y180086D03*
X647444Y201136D03*
X657444Y201136D03*
X657444Y191830D03*
X647444Y191830D03*
X638084Y191830D03*
X628084Y191830D03*
D17*
X579214Y82250D03*
X566514Y82250D03*
X553814Y82250D03*
X541114Y82250D03*
X553814Y137750D03*
X541114Y137750D03*
X566514Y137750D03*
X579214Y137750D03*
D18*
X456204Y50000D03*
X663394Y213030D03*
D10*
X734734Y105800D03*
X724734Y105800D03*
X734734Y115000D03*
X724734Y115000D03*
D11*
X875234Y15250D03*
X870234Y15250D03*
X865234Y15250D03*
X860234Y15250D03*
X855234Y15250D03*
X850234Y15250D03*
X845234Y15250D03*
X840234Y15250D03*
X835234Y15250D03*
X830234Y15250D03*
X825234Y15250D03*
X800234Y15250D03*
X795234Y15250D03*
X790234Y15250D03*
X785234Y15250D03*
X780234Y15250D03*
X775234Y15250D03*
X770234Y15250D03*
X765234Y15250D03*
X760234Y15250D03*
X755234Y15250D03*
X750234Y15250D03*
X745234Y15250D03*
X740234Y15250D03*
X735234Y15250D03*
X730234Y15250D03*
X725234Y15250D03*
X720234Y15250D03*
X715234Y15250D03*
X710234Y15250D03*
X705234Y15250D03*
X700234Y15250D03*
X695234Y15250D03*
D12*
X804234Y210000D03*
X846234Y210000D03*
X825234Y197000D03*
D13*
X884584Y103358D03*
X866184Y96858D03*
X866184Y90358D03*
X866184Y103358D03*
X884584Y96858D03*
X884584Y90358D03*
D10*
X870384Y75438D03*
X880384Y75438D03*
X880384Y116840D03*
X870384Y116840D03*
D14*
X853174Y138902D03*
X858174Y138902D03*
X863174Y138902D03*
X868174Y138902D03*
X873174Y138902D03*
X878174Y138902D03*
D15*
X886174Y146902D03*
X886174Y151902D03*
X886174Y156902D03*
X886174Y161902D03*
X886174Y166902D03*
X886174Y171902D03*
X845174Y171902D03*
X845174Y166902D03*
X845174Y161902D03*
X845174Y156902D03*
X845174Y151902D03*
X845174Y146902D03*
D14*
X878174Y179902D03*
X873174Y179902D03*
X868174Y179902D03*
X863174Y179902D03*
X858174Y179902D03*
X853174Y179902D03*
D16*
X865674Y159402D03*
D10*
X823450Y170646D03*
X813450Y170646D03*
X823450Y180086D03*
X813450Y180086D03*
X872514Y201136D03*
X882514Y201136D03*
X882514Y191830D03*
X872514Y191830D03*
X863154Y191830D03*
X853154Y191830D03*
D17*
X804284Y82250D03*
X791584Y82250D03*
X778884Y82250D03*
X766184Y82250D03*
X778884Y137750D03*
X766184Y137750D03*
X791584Y137750D03*
X804284Y137750D03*
D18*
X681274Y50000D03*
X888464Y213030D03*
D10*
X959828Y105800D03*
X949828Y105800D03*
X959828Y115000D03*
X949828Y115000D03*
D11*
X1100328Y15250D03*
X1095328Y15250D03*
X1090328Y15250D03*
X1085328Y15250D03*
X1080328Y15250D03*
X1075328Y15250D03*
X1070328Y15250D03*
X1065328Y15250D03*
X1060328Y15250D03*
X1055328Y15250D03*
X1050328Y15250D03*
X1025328Y15250D03*
X1020328Y15250D03*
X1015328Y15250D03*
X1010328Y15250D03*
X1005328Y15250D03*
X1000328Y15250D03*
X995328Y15250D03*
X990328Y15250D03*
X985328Y15250D03*
X980328Y15250D03*
X975328Y15250D03*
X970328Y15250D03*
X965328Y15250D03*
X960328Y15250D03*
X955328Y15250D03*
X950328Y15250D03*
X945328Y15250D03*
X940328Y15250D03*
X935328Y15250D03*
X930328Y15250D03*
X925328Y15250D03*
X920328Y15250D03*
D12*
X1029328Y210000D03*
X1071328Y210000D03*
X1050328Y197000D03*
D13*
X1109678Y103358D03*
X1091278Y96858D03*
X1091278Y90358D03*
X1091278Y103358D03*
X1109678Y96858D03*
X1109678Y90358D03*
D10*
X1095478Y75438D03*
X1105478Y75438D03*
X1105478Y116840D03*
X1095478Y116840D03*
D14*
X1078268Y138902D03*
X1083268Y138902D03*
X1088268Y138902D03*
X1093268Y138902D03*
X1098268Y138902D03*
X1103268Y138902D03*
D15*
X1111268Y146902D03*
X1111268Y151902D03*
X1111268Y156902D03*
X1111268Y161902D03*
X1111268Y166902D03*
X1111268Y171902D03*
X1070268Y171902D03*
X1070268Y166902D03*
X1070268Y161902D03*
X1070268Y156902D03*
X1070268Y151902D03*
X1070268Y146902D03*
D14*
X1103268Y179902D03*
X1098268Y179902D03*
X1093268Y179902D03*
X1088268Y179902D03*
X1083268Y179902D03*
X1078268Y179902D03*
D16*
X1090768Y159402D03*
D10*
X1048544Y170646D03*
X1038544Y170646D03*
X1048544Y180086D03*
X1038544Y180086D03*
X1097608Y201136D03*
X1107608Y201136D03*
X1107608Y191830D03*
X1097608Y191830D03*
X1088248Y191830D03*
X1078248Y191830D03*
D17*
X1029378Y82250D03*
X1016678Y82250D03*
X1003978Y82250D03*
X991278Y82250D03*
X1003978Y137750D03*
X991278Y137750D03*
X1016678Y137750D03*
X1029378Y137750D03*
D18*
X906368Y50000D03*
X1113558Y213030D03*
D10*
X1184898Y105800D03*
X1174898Y105800D03*
X1184898Y115000D03*
X1174898Y115000D03*
D11*
X1325398Y15250D03*
X1320398Y15250D03*
X1315398Y15250D03*
X1310398Y15250D03*
X1305398Y15250D03*
X1300398Y15250D03*
X1295398Y15250D03*
X1290398Y15250D03*
X1285398Y15250D03*
X1280398Y15250D03*
X1275398Y15250D03*
X1250398Y15250D03*
X1245398Y15250D03*
X1240398Y15250D03*
X1235398Y15250D03*
X1230398Y15250D03*
X1225398Y15250D03*
X1220398Y15250D03*
X1215398Y15250D03*
X1210398Y15250D03*
X1205398Y15250D03*
X1200398Y15250D03*
X1195398Y15250D03*
X1190398Y15250D03*
X1185398Y15250D03*
X1180398Y15250D03*
X1175398Y15250D03*
X1170398Y15250D03*
X1165398Y15250D03*
X1160398Y15250D03*
X1155398Y15250D03*
X1150398Y15250D03*
X1145398Y15250D03*
D12*
X1254398Y210000D03*
X1296398Y210000D03*
X1275398Y197000D03*
D13*
X1334748Y103358D03*
X1316348Y96858D03*
X1316348Y90358D03*
X1316348Y103358D03*
X1334748Y96858D03*
X1334748Y90358D03*
D10*
X1320548Y75438D03*
X1330548Y75438D03*
X1330548Y116840D03*
X1320548Y116840D03*
D14*
X1303338Y138902D03*
X1308338Y138902D03*
X1313338Y138902D03*
X1318338Y138902D03*
X1323338Y138902D03*
X1328338Y138902D03*
D15*
X1336338Y146902D03*
X1336338Y151902D03*
X1336338Y156902D03*
X1336338Y161902D03*
X1336338Y166902D03*
X1336338Y171902D03*
X1295338Y171902D03*
X1295338Y166902D03*
X1295338Y161902D03*
X1295338Y156902D03*
X1295338Y151902D03*
X1295338Y146902D03*
D14*
X1328338Y179902D03*
X1323338Y179902D03*
X1318338Y179902D03*
X1313338Y179902D03*
X1308338Y179902D03*
X1303338Y179902D03*
D16*
X1315838Y159402D03*
D10*
X1273614Y170646D03*
X1263614Y170646D03*
X1273614Y180086D03*
X1263614Y180086D03*
X1322678Y201136D03*
X1332678Y201136D03*
X1332678Y191830D03*
X1322678Y191830D03*
X1313318Y191830D03*
X1303318Y191830D03*
D17*
X1254448Y82250D03*
X1241748Y82250D03*
X1229048Y82250D03*
X1216348Y82250D03*
X1229048Y137750D03*
X1216348Y137750D03*
X1241748Y137750D03*
X1254448Y137750D03*
D18*
X1131438Y50000D03*
X1338628Y213030D03*
D10*
X1409993Y105800D03*
X1399993Y105800D03*
X1409993Y115000D03*
X1399993Y115000D03*
D11*
X1550493Y15250D03*
X1545493Y15250D03*
X1540493Y15250D03*
X1535493Y15250D03*
X1530493Y15250D03*
X1525493Y15250D03*
X1520493Y15250D03*
X1515493Y15250D03*
X1510493Y15250D03*
X1505493Y15250D03*
X1500493Y15250D03*
X1475493Y15250D03*
X1470493Y15250D03*
X1465493Y15250D03*
X1460493Y15250D03*
X1455493Y15250D03*
X1450493Y15250D03*
X1445493Y15250D03*
X1440493Y15250D03*
X1435493Y15250D03*
X1430493Y15250D03*
X1425493Y15250D03*
X1420493Y15250D03*
X1415493Y15250D03*
X1410493Y15250D03*
X1405493Y15250D03*
X1400493Y15250D03*
X1395493Y15250D03*
X1390493Y15250D03*
X1385493Y15250D03*
X1380493Y15250D03*
X1375493Y15250D03*
X1370493Y15250D03*
D12*
X1479493Y210000D03*
X1521493Y210000D03*
X1500493Y197000D03*
D13*
X1559843Y103358D03*
X1541443Y96858D03*
X1541443Y90358D03*
X1541443Y103358D03*
X1559843Y96858D03*
X1559843Y90358D03*
D10*
X1545643Y75438D03*
X1555643Y75438D03*
X1555643Y116840D03*
X1545643Y116840D03*
D14*
X1528433Y138902D03*
X1533433Y138902D03*
X1538433Y138902D03*
X1543433Y138902D03*
X1548433Y138902D03*
X1553433Y138902D03*
D15*
X1561433Y146902D03*
X1561433Y151902D03*
X1561433Y156902D03*
X1561433Y161902D03*
X1561433Y166902D03*
X1561433Y171902D03*
X1520433Y171902D03*
X1520433Y166902D03*
X1520433Y161902D03*
X1520433Y156902D03*
X1520433Y151902D03*
X1520433Y146902D03*
D14*
X1553433Y179902D03*
X1548433Y179902D03*
X1543433Y179902D03*
X1538433Y179902D03*
X1533433Y179902D03*
X1528433Y179902D03*
D16*
X1540933Y159402D03*
D10*
X1498709Y170646D03*
X1488709Y170646D03*
X1498709Y180086D03*
X1488709Y180086D03*
X1547773Y201136D03*
X1557773Y201136D03*
X1557773Y191830D03*
X1547773Y191830D03*
X1538413Y191830D03*
X1528413Y191830D03*
D17*
X1479543Y82250D03*
X1466843Y82250D03*
X1454143Y82250D03*
X1441443Y82250D03*
X1454143Y137750D03*
X1441443Y137750D03*
X1466843Y137750D03*
X1479543Y137750D03*
D18*
X1356533Y50000D03*
X1563723Y213030D03*
D10*
X1635062Y105800D03*
X1625062Y105800D03*
X1635062Y115000D03*
X1625062Y115000D03*
D11*
X1775562Y15250D03*
X1770562Y15250D03*
X1765562Y15250D03*
X1760562Y15250D03*
X1755562Y15250D03*
X1750562Y15250D03*
X1745562Y15250D03*
X1740562Y15250D03*
X1735562Y15250D03*
X1730562Y15250D03*
X1725562Y15250D03*
X1700562Y15250D03*
X1695562Y15250D03*
X1690562Y15250D03*
X1685562Y15250D03*
X1680562Y15250D03*
X1675562Y15250D03*
X1670562Y15250D03*
X1665562Y15250D03*
X1660562Y15250D03*
X1655562Y15250D03*
X1650562Y15250D03*
X1645562Y15250D03*
X1640562Y15250D03*
X1635562Y15250D03*
X1630562Y15250D03*
X1625562Y15250D03*
X1620562Y15250D03*
X1615562Y15250D03*
X1610562Y15250D03*
X1605562Y15250D03*
X1600562Y15250D03*
X1595562Y15250D03*
D12*
X1704562Y210000D03*
X1746562Y210000D03*
X1725562Y197000D03*
D13*
X1784912Y103358D03*
X1766512Y96858D03*
X1766512Y90358D03*
X1766512Y103358D03*
X1784912Y96858D03*
X1784912Y90358D03*
D10*
X1770712Y75438D03*
X1780712Y75438D03*
X1780712Y116840D03*
X1770712Y116840D03*
D14*
X1753502Y138902D03*
X1758502Y138902D03*
X1763502Y138902D03*
X1768502Y138902D03*
X1773502Y138902D03*
X1778502Y138902D03*
D15*
X1786502Y146902D03*
X1786502Y151902D03*
X1786502Y156902D03*
X1786502Y161902D03*
X1786502Y166902D03*
X1786502Y171902D03*
X1745502Y171902D03*
X1745502Y166902D03*
X1745502Y161902D03*
X1745502Y156902D03*
X1745502Y151902D03*
X1745502Y146902D03*
D14*
X1778502Y179902D03*
X1773502Y179902D03*
X1768502Y179902D03*
X1763502Y179902D03*
X1758502Y179902D03*
X1753502Y179902D03*
D16*
X1766002Y159402D03*
D10*
X1723778Y170646D03*
X1713778Y170646D03*
X1723778Y180086D03*
X1713778Y180086D03*
X1772842Y201136D03*
X1782842Y201136D03*
X1782842Y191830D03*
X1772842Y191830D03*
X1763482Y191830D03*
X1753482Y191830D03*
D17*
X1704612Y82250D03*
X1691912Y82250D03*
X1679212Y82250D03*
X1666512Y82250D03*
X1679212Y137750D03*
X1666512Y137750D03*
X1691912Y137750D03*
X1704612Y137750D03*
D18*
X1581602Y50000D03*
X1788792Y213030D03*
D10*
X160489Y592700D03*
X170489Y592700D03*
X160489Y583500D03*
X170489Y583500D03*
D11*
X19989Y683250D03*
X24989Y683250D03*
X29989Y683250D03*
X34989Y683250D03*
X39989Y683250D03*
X44989Y683250D03*
X49989Y683250D03*
X54989Y683250D03*
X59989Y683250D03*
X64989Y683250D03*
X69989Y683250D03*
X94989Y683250D03*
X99989Y683250D03*
X104989Y683250D03*
X109989Y683250D03*
X114989Y683250D03*
X119989Y683250D03*
X124989Y683250D03*
X129989Y683250D03*
X134989Y683250D03*
X139989Y683250D03*
X144989Y683250D03*
X149989Y683250D03*
X154989Y683250D03*
X159989Y683250D03*
X164989Y683250D03*
X169989Y683250D03*
X174989Y683250D03*
X179989Y683250D03*
X184989Y683250D03*
X189989Y683250D03*
X194989Y683250D03*
X199989Y683250D03*
D12*
X90989Y488500D03*
X48989Y488500D03*
X69989Y501500D03*
D13*
X10639Y595142D03*
X29039Y601642D03*
X29039Y608142D03*
X29039Y595142D03*
X10639Y601642D03*
X10639Y608142D03*
D10*
X24839Y623062D03*
X14839Y623062D03*
X14839Y581660D03*
X24839Y581660D03*
D14*
X42049Y559598D03*
X37049Y559598D03*
X32049Y559598D03*
X27049Y559598D03*
X22049Y559598D03*
X17049Y559598D03*
D15*
X9049Y551598D03*
X9049Y546598D03*
X9049Y541598D03*
X9049Y536598D03*
X9049Y531598D03*
X9049Y526598D03*
X50049Y526598D03*
X50049Y531598D03*
X50049Y536598D03*
X50049Y541598D03*
X50049Y546598D03*
X50049Y551598D03*
D14*
X17049Y518598D03*
X22049Y518598D03*
X27049Y518598D03*
X32049Y518598D03*
X37049Y518598D03*
X42049Y518598D03*
D16*
X29549Y539098D03*
D10*
X71773Y527854D03*
X81773Y527854D03*
X71773Y518414D03*
X81773Y518414D03*
X22709Y497364D03*
X12709Y497364D03*
X12709Y506670D03*
X22709Y506670D03*
X32069Y506670D03*
X42069Y506670D03*
D17*
X90939Y616250D03*
X103639Y616250D03*
X116339Y616250D03*
X129039Y616250D03*
X116339Y560750D03*
X129039Y560750D03*
X103639Y560750D03*
X90939Y560750D03*
D18*
X213949Y648500D03*
X6759Y485470D03*
D10*
X385584Y592700D03*
X395584Y592700D03*
X385584Y583500D03*
X395584Y583500D03*
D11*
X245084Y683250D03*
X250084Y683250D03*
X255084Y683250D03*
X260084Y683250D03*
X265084Y683250D03*
X270084Y683250D03*
X275084Y683250D03*
X280084Y683250D03*
X285084Y683250D03*
X290084Y683250D03*
X295084Y683250D03*
X320084Y683250D03*
X325084Y683250D03*
X330084Y683250D03*
X335084Y683250D03*
X340084Y683250D03*
X345084Y683250D03*
X350084Y683250D03*
X355084Y683250D03*
X360084Y683250D03*
X365084Y683250D03*
X370084Y683250D03*
X375084Y683250D03*
X380084Y683250D03*
X385084Y683250D03*
X390084Y683250D03*
X395084Y683250D03*
X400084Y683250D03*
X405084Y683250D03*
X410084Y683250D03*
X415084Y683250D03*
X420084Y683250D03*
X425084Y683250D03*
D12*
X316084Y488500D03*
X274084Y488500D03*
X295084Y501500D03*
D13*
X235734Y595142D03*
X254134Y601642D03*
X254134Y608142D03*
X254134Y595142D03*
X235734Y601642D03*
X235734Y608142D03*
D10*
X249934Y623062D03*
X239934Y623062D03*
X239934Y581660D03*
X249934Y581660D03*
D14*
X267144Y559598D03*
X262144Y559598D03*
X257144Y559598D03*
X252144Y559598D03*
X247144Y559598D03*
X242144Y559598D03*
D15*
X234144Y551598D03*
X234144Y546598D03*
X234144Y541598D03*
X234144Y536598D03*
X234144Y531598D03*
X234144Y526598D03*
X275144Y526598D03*
X275144Y531598D03*
X275144Y536598D03*
X275144Y541598D03*
X275144Y546598D03*
X275144Y551598D03*
D14*
X242144Y518598D03*
X247144Y518598D03*
X252144Y518598D03*
X257144Y518598D03*
X262144Y518598D03*
X267144Y518598D03*
D16*
X254644Y539098D03*
D10*
X296868Y527854D03*
X306868Y527854D03*
X296868Y518414D03*
X306868Y518414D03*
X247804Y497364D03*
X237804Y497364D03*
X237804Y506670D03*
X247804Y506670D03*
X257164Y506670D03*
X267164Y506670D03*
D17*
X316034Y616250D03*
X328734Y616250D03*
X341434Y616250D03*
X354134Y616250D03*
X341434Y560750D03*
X354134Y560750D03*
X328734Y560750D03*
X316034Y560750D03*
D18*
X439044Y648500D03*
X231854Y485470D03*
D10*
X610654Y592700D03*
X620654Y592700D03*
X610654Y583500D03*
X620654Y583500D03*
D11*
X470154Y683250D03*
X475154Y683250D03*
X480154Y683250D03*
X485154Y683250D03*
X490154Y683250D03*
X495154Y683250D03*
X500154Y683250D03*
X505154Y683250D03*
X510154Y683250D03*
X515154Y683250D03*
X520154Y683250D03*
X545154Y683250D03*
X550154Y683250D03*
X555154Y683250D03*
X560154Y683250D03*
X565154Y683250D03*
X570154Y683250D03*
X575154Y683250D03*
X580154Y683250D03*
X585154Y683250D03*
X590154Y683250D03*
X595154Y683250D03*
X600154Y683250D03*
X605154Y683250D03*
X610154Y683250D03*
X615154Y683250D03*
X620154Y683250D03*
X625154Y683250D03*
X630154Y683250D03*
X635154Y683250D03*
X640154Y683250D03*
X645154Y683250D03*
X650154Y683250D03*
D12*
X541154Y488500D03*
X499154Y488500D03*
X520154Y501500D03*
D13*
X460804Y595142D03*
X479204Y601642D03*
X479204Y608142D03*
X479204Y595142D03*
X460804Y601642D03*
X460804Y608142D03*
D10*
X475004Y623062D03*
X465004Y623062D03*
X465004Y581660D03*
X475004Y581660D03*
D14*
X492214Y559598D03*
X487214Y559598D03*
X482214Y559598D03*
X477214Y559598D03*
X472214Y559598D03*
X467214Y559598D03*
D15*
X459214Y551598D03*
X459214Y546598D03*
X459214Y541598D03*
X459214Y536598D03*
X459214Y531598D03*
X459214Y526598D03*
X500214Y526598D03*
X500214Y531598D03*
X500214Y536598D03*
X500214Y541598D03*
X500214Y546598D03*
X500214Y551598D03*
D14*
X467214Y518598D03*
X472214Y518598D03*
X477214Y518598D03*
X482214Y518598D03*
X487214Y518598D03*
X492214Y518598D03*
D16*
X479714Y539098D03*
D10*
X521938Y527854D03*
X531938Y527854D03*
X521938Y518414D03*
X531938Y518414D03*
X472874Y497364D03*
X462874Y497364D03*
X462874Y506670D03*
X472874Y506670D03*
X482234Y506670D03*
X492234Y506670D03*
D17*
X541104Y616250D03*
X553804Y616250D03*
X566504Y616250D03*
X579204Y616250D03*
X566504Y560750D03*
X579204Y560750D03*
X553804Y560750D03*
X541104Y560750D03*
D18*
X664114Y648500D03*
X456924Y485470D03*
D10*
X835748Y592700D03*
X845748Y592700D03*
X835748Y583500D03*
X845748Y583500D03*
D11*
X695248Y683250D03*
X700248Y683250D03*
X705248Y683250D03*
X710248Y683250D03*
X715248Y683250D03*
X720248Y683250D03*
X725248Y683250D03*
X730248Y683250D03*
X735248Y683250D03*
X740248Y683250D03*
X745248Y683250D03*
X770248Y683250D03*
X775248Y683250D03*
X780248Y683250D03*
X785248Y683250D03*
X790248Y683250D03*
X795248Y683250D03*
X800248Y683250D03*
X805248Y683250D03*
X810248Y683250D03*
X815248Y683250D03*
X820248Y683250D03*
X825248Y683250D03*
X830248Y683250D03*
X835248Y683250D03*
X840248Y683250D03*
X845248Y683250D03*
X850248Y683250D03*
X855248Y683250D03*
X860248Y683250D03*
X865248Y683250D03*
X870248Y683250D03*
X875248Y683250D03*
D12*
X766248Y488500D03*
X724248Y488500D03*
X745248Y501500D03*
D13*
X685898Y595142D03*
X704298Y601642D03*
X704298Y608142D03*
X704298Y595142D03*
X685898Y601642D03*
X685898Y608142D03*
D10*
X700098Y623062D03*
X690098Y623062D03*
X690098Y581660D03*
X700098Y581660D03*
D14*
X717308Y559598D03*
X712308Y559598D03*
X707308Y559598D03*
X702308Y559598D03*
X697308Y559598D03*
X692308Y559598D03*
D15*
X684308Y551598D03*
X684308Y546598D03*
X684308Y541598D03*
X684308Y536598D03*
X684308Y531598D03*
X684308Y526598D03*
X725308Y526598D03*
X725308Y531598D03*
X725308Y536598D03*
X725308Y541598D03*
X725308Y546598D03*
X725308Y551598D03*
D14*
X692308Y518598D03*
X697308Y518598D03*
X702308Y518598D03*
X707308Y518598D03*
X712308Y518598D03*
X717308Y518598D03*
D16*
X704808Y539098D03*
D10*
X747032Y527854D03*
X757032Y527854D03*
X747032Y518414D03*
X757032Y518414D03*
X697968Y497364D03*
X687968Y497364D03*
X687968Y506670D03*
X697968Y506670D03*
X707328Y506670D03*
X717328Y506670D03*
D17*
X766198Y616250D03*
X778898Y616250D03*
X791598Y616250D03*
X804298Y616250D03*
X791598Y560750D03*
X804298Y560750D03*
X778898Y560750D03*
X766198Y560750D03*
D18*
X889208Y648500D03*
X682018Y485470D03*
D10*
X1060818Y592700D03*
X1070818Y592700D03*
X1060818Y583500D03*
X1070818Y583500D03*
D11*
X920318Y683250D03*
X925318Y683250D03*
X930318Y683250D03*
X935318Y683250D03*
X940318Y683250D03*
X945318Y683250D03*
X950318Y683250D03*
X955318Y683250D03*
X960318Y683250D03*
X965318Y683250D03*
X970318Y683250D03*
X995318Y683250D03*
X1000318Y683250D03*
X1005318Y683250D03*
X1010318Y683250D03*
X1015318Y683250D03*
X1020318Y683250D03*
X1025318Y683250D03*
X1030318Y683250D03*
X1035318Y683250D03*
X1040318Y683250D03*
X1045318Y683250D03*
X1050318Y683250D03*
X1055318Y683250D03*
X1060318Y683250D03*
X1065318Y683250D03*
X1070318Y683250D03*
X1075318Y683250D03*
X1080318Y683250D03*
X1085318Y683250D03*
X1090318Y683250D03*
X1095318Y683250D03*
X1100318Y683250D03*
D12*
X991318Y488500D03*
X949318Y488500D03*
X970318Y501500D03*
D13*
X910968Y595142D03*
X929368Y601642D03*
X929368Y608142D03*
X929368Y595142D03*
X910968Y601642D03*
X910968Y608142D03*
D10*
X925168Y623062D03*
X915168Y623062D03*
X915168Y581660D03*
X925168Y581660D03*
D14*
X942378Y559598D03*
X937378Y559598D03*
X932378Y559598D03*
X927378Y559598D03*
X922378Y559598D03*
X917378Y559598D03*
D15*
X909378Y551598D03*
X909378Y546598D03*
X909378Y541598D03*
X909378Y536598D03*
X909378Y531598D03*
X909378Y526598D03*
X950378Y526598D03*
X950378Y531598D03*
X950378Y536598D03*
X950378Y541598D03*
X950378Y546598D03*
X950378Y551598D03*
D14*
X917378Y518598D03*
X922378Y518598D03*
X927378Y518598D03*
X932378Y518598D03*
X937378Y518598D03*
X942378Y518598D03*
D16*
X929878Y539098D03*
D10*
X972102Y527854D03*
X982102Y527854D03*
X972102Y518414D03*
X982102Y518414D03*
X923038Y497364D03*
X913038Y497364D03*
X913038Y506670D03*
X923038Y506670D03*
X932398Y506670D03*
X942398Y506670D03*
D17*
X991268Y616250D03*
X1003968Y616250D03*
X1016668Y616250D03*
X1029368Y616250D03*
X1016668Y560750D03*
X1029368Y560750D03*
X1003968Y560750D03*
X991268Y560750D03*
D18*
X1114278Y648500D03*
X907088Y485470D03*
D10*
X1285913Y592700D03*
X1295913Y592700D03*
X1285913Y583500D03*
X1295913Y583500D03*
D11*
X1145413Y683250D03*
X1150413Y683250D03*
X1155413Y683250D03*
X1160413Y683250D03*
X1165413Y683250D03*
X1170413Y683250D03*
X1175413Y683250D03*
X1180413Y683250D03*
X1185413Y683250D03*
X1190413Y683250D03*
X1195413Y683250D03*
X1220413Y683250D03*
X1225413Y683250D03*
X1230413Y683250D03*
X1235413Y683250D03*
X1240413Y683250D03*
X1245413Y683250D03*
X1250413Y683250D03*
X1255413Y683250D03*
X1260413Y683250D03*
X1265413Y683250D03*
X1270413Y683250D03*
X1275413Y683250D03*
X1280413Y683250D03*
X1285413Y683250D03*
X1290413Y683250D03*
X1295413Y683250D03*
X1300413Y683250D03*
X1305413Y683250D03*
X1310413Y683250D03*
X1315413Y683250D03*
X1320413Y683250D03*
X1325413Y683250D03*
D12*
X1216413Y488500D03*
X1174413Y488500D03*
X1195413Y501500D03*
D13*
X1136063Y595142D03*
X1154463Y601642D03*
X1154463Y608142D03*
X1154463Y595142D03*
X1136063Y601642D03*
X1136063Y608142D03*
D10*
X1150263Y623062D03*
X1140263Y623062D03*
X1140263Y581660D03*
X1150263Y581660D03*
D14*
X1167473Y559598D03*
X1162473Y559598D03*
X1157473Y559598D03*
X1152473Y559598D03*
X1147473Y559598D03*
X1142473Y559598D03*
D15*
X1134473Y551598D03*
X1134473Y546598D03*
X1134473Y541598D03*
X1134473Y536598D03*
X1134473Y531598D03*
X1134473Y526598D03*
X1175473Y526598D03*
X1175473Y531598D03*
X1175473Y536598D03*
X1175473Y541598D03*
X1175473Y546598D03*
X1175473Y551598D03*
D14*
X1142473Y518598D03*
X1147473Y518598D03*
X1152473Y518598D03*
X1157473Y518598D03*
X1162473Y518598D03*
X1167473Y518598D03*
D16*
X1154973Y539098D03*
D10*
X1197197Y527854D03*
X1207197Y527854D03*
X1197197Y518414D03*
X1207197Y518414D03*
X1148133Y497364D03*
X1138133Y497364D03*
X1138133Y506670D03*
X1148133Y506670D03*
X1157493Y506670D03*
X1167493Y506670D03*
D17*
X1216363Y616250D03*
X1229063Y616250D03*
X1241763Y616250D03*
X1254463Y616250D03*
X1241763Y560750D03*
X1254463Y560750D03*
X1229063Y560750D03*
X1216363Y560750D03*
D18*
X1339373Y648500D03*
X1132183Y485470D03*
D10*
X1510982Y592700D03*
X1520982Y592700D03*
X1510982Y583500D03*
X1520982Y583500D03*
D11*
X1370482Y683250D03*
X1375482Y683250D03*
X1380482Y683250D03*
X1385482Y683250D03*
X1390482Y683250D03*
X1395482Y683250D03*
X1400482Y683250D03*
X1405482Y683250D03*
X1410482Y683250D03*
X1415482Y683250D03*
X1420482Y683250D03*
X1445482Y683250D03*
X1450482Y683250D03*
X1455482Y683250D03*
X1460482Y683250D03*
X1465482Y683250D03*
X1470482Y683250D03*
X1475482Y683250D03*
X1480482Y683250D03*
X1485482Y683250D03*
X1490482Y683250D03*
X1495482Y683250D03*
X1500482Y683250D03*
X1505482Y683250D03*
X1510482Y683250D03*
X1515482Y683250D03*
X1520482Y683250D03*
X1525482Y683250D03*
X1530482Y683250D03*
X1535482Y683250D03*
X1540482Y683250D03*
X1545482Y683250D03*
X1550482Y683250D03*
D12*
X1441482Y488500D03*
X1399482Y488500D03*
X1420482Y501500D03*
D13*
X1361132Y595142D03*
X1379532Y601642D03*
X1379532Y608142D03*
X1379532Y595142D03*
X1361132Y601642D03*
X1361132Y608142D03*
D10*
X1375332Y623062D03*
X1365332Y623062D03*
X1365332Y581660D03*
X1375332Y581660D03*
D14*
X1392542Y559598D03*
X1387542Y559598D03*
X1382542Y559598D03*
X1377542Y559598D03*
X1372542Y559598D03*
X1367542Y559598D03*
D15*
X1359542Y551598D03*
X1359542Y546598D03*
X1359542Y541598D03*
X1359542Y536598D03*
X1359542Y531598D03*
X1359542Y526598D03*
X1400542Y526598D03*
X1400542Y531598D03*
X1400542Y536598D03*
X1400542Y541598D03*
X1400542Y546598D03*
X1400542Y551598D03*
D14*
X1367542Y518598D03*
X1372542Y518598D03*
X1377542Y518598D03*
X1382542Y518598D03*
X1387542Y518598D03*
X1392542Y518598D03*
D16*
X1380042Y539098D03*
D10*
X1422266Y527854D03*
X1432266Y527854D03*
X1422266Y518414D03*
X1432266Y518414D03*
X1373202Y497364D03*
X1363202Y497364D03*
X1363202Y506670D03*
X1373202Y506670D03*
X1382562Y506670D03*
X1392562Y506670D03*
D17*
X1441432Y616250D03*
X1454132Y616250D03*
X1466832Y616250D03*
X1479532Y616250D03*
X1466832Y560750D03*
X1479532Y560750D03*
X1454132Y560750D03*
X1441432Y560750D03*
D18*
X1564442Y648500D03*
X1357252Y485470D03*
D10*
X1736051Y592700D03*
X1746051Y592700D03*
X1736051Y583500D03*
X1746051Y583500D03*
D11*
X1595551Y683250D03*
X1600551Y683250D03*
X1605551Y683250D03*
X1610551Y683250D03*
X1615551Y683250D03*
X1620551Y683250D03*
X1625551Y683250D03*
X1630551Y683250D03*
X1635551Y683250D03*
X1640551Y683250D03*
X1645551Y683250D03*
X1670551Y683250D03*
X1675551Y683250D03*
X1680551Y683250D03*
X1685551Y683250D03*
X1690551Y683250D03*
X1695551Y683250D03*
X1700551Y683250D03*
X1705551Y683250D03*
X1710551Y683250D03*
X1715551Y683250D03*
X1720551Y683250D03*
X1725551Y683250D03*
X1730551Y683250D03*
X1735551Y683250D03*
X1740551Y683250D03*
X1745551Y683250D03*
X1750551Y683250D03*
X1755551Y683250D03*
X1760551Y683250D03*
X1765551Y683250D03*
X1770551Y683250D03*
X1775551Y683250D03*
D12*
X1666551Y488500D03*
X1624551Y488500D03*
X1645551Y501500D03*
D13*
X1586201Y595142D03*
X1604601Y601642D03*
X1604601Y608142D03*
X1604601Y595142D03*
X1586201Y601642D03*
X1586201Y608142D03*
D10*
X1600401Y623062D03*
X1590401Y623062D03*
X1590401Y581660D03*
X1600401Y581660D03*
D14*
X1617611Y559598D03*
X1612611Y559598D03*
X1607611Y559598D03*
X1602611Y559598D03*
X1597611Y559598D03*
X1592611Y559598D03*
D15*
X1584611Y551598D03*
X1584611Y546598D03*
X1584611Y541598D03*
X1584611Y536598D03*
X1584611Y531598D03*
X1584611Y526598D03*
X1625611Y526598D03*
X1625611Y531598D03*
X1625611Y536598D03*
X1625611Y541598D03*
X1625611Y546598D03*
X1625611Y551598D03*
D14*
X1592611Y518598D03*
X1597611Y518598D03*
X1602611Y518598D03*
X1607611Y518598D03*
X1612611Y518598D03*
X1617611Y518598D03*
D16*
X1605111Y539098D03*
D10*
X1647335Y527854D03*
X1657335Y527854D03*
X1647335Y518414D03*
X1657335Y518414D03*
X1598271Y497364D03*
X1588271Y497364D03*
X1588271Y506670D03*
X1598271Y506670D03*
X1607631Y506670D03*
X1617631Y506670D03*
D17*
X1666501Y616250D03*
X1679201Y616250D03*
X1691901Y616250D03*
X1704601Y616250D03*
X1691901Y560750D03*
X1704601Y560750D03*
X1679201Y560750D03*
X1666501Y560750D03*
D18*
X1789511Y648500D03*
X1582321Y485470D03*
D19*
X-26238Y635000D03*
X1821815Y635000D03*
D20*
X-35293Y68580D02*
X-35290Y68802D01*
X-35282Y69024D01*
X-35268Y69246D01*
X-35249Y69468D01*
X-35225Y69688D01*
X-35195Y69909D01*
X-35160Y70128D01*
X-35119Y70347D01*
X-35073Y70564D01*
X-35022Y70780D01*
X-34965Y70995D01*
X-34903Y71209D01*
X-34836Y71420D01*
X-34764Y71631D01*
X-34686Y71839D01*
X-34604Y72045D01*
X-34516Y72249D01*
X-34424Y72452D01*
X-34326Y72651D01*
X-34224Y72848D01*
X-34117Y73043D01*
X-34005Y73235D01*
X-33888Y73424D01*
X-33767Y73611D01*
X-33641Y73794D01*
X-33511Y73974D01*
X-33376Y74151D01*
X-33238Y74324D01*
X-33095Y74494D01*
X-32947Y74661D01*
X-32796Y74824D01*
X-32641Y74983D01*
X-32482Y75138D01*
X-32319Y75289D01*
X-32152Y75437D01*
X-31982Y75580D01*
X-31809Y75718D01*
X-31632Y75853D01*
X-31452Y75983D01*
X-31269Y76109D01*
X-31082Y76230D01*
X-30893Y76347D01*
X-30701Y76459D01*
X-30506Y76566D01*
X-30309Y76668D01*
X-30110Y76766D01*
X-29907Y76858D01*
X-29703Y76946D01*
X-29497Y77028D01*
X-29289Y77106D01*
X-29078Y77178D01*
X-28867Y77245D01*
X-28653Y77307D01*
X-28438Y77364D01*
X-28222Y77415D01*
X-28005Y77461D01*
X-27786Y77502D01*
X-27567Y77537D01*
X-27346Y77567D01*
X-27126Y77591D01*
X-26904Y77610D01*
X-26682Y77624D01*
X-26460Y77632D01*
X-26238Y77635D01*
X-26016Y77632D01*
X-25794Y77624D01*
X-25572Y77610D01*
X-25350Y77591D01*
X-25130Y77567D01*
X-24909Y77537D01*
X-24690Y77502D01*
X-24471Y77461D01*
X-24254Y77415D01*
X-24038Y77364D01*
X-23823Y77307D01*
X-23609Y77245D01*
X-23398Y77178D01*
X-23187Y77106D01*
X-22979Y77028D01*
X-22773Y76946D01*
X-22569Y76858D01*
X-22366Y76766D01*
X-22167Y76668D01*
X-21970Y76566D01*
X-21775Y76459D01*
X-21583Y76347D01*
X-21394Y76230D01*
X-21207Y76109D01*
X-21024Y75983D01*
X-20844Y75853D01*
X-20667Y75718D01*
X-20494Y75580D01*
X-20324Y75437D01*
X-20157Y75289D01*
X-19994Y75138D01*
X-19835Y74983D01*
X-19680Y74824D01*
X-19529Y74661D01*
X-19381Y74494D01*
X-19238Y74324D01*
X-19100Y74151D01*
X-18965Y73974D01*
X-18835Y73794D01*
X-18709Y73611D01*
X-18588Y73424D01*
X-18471Y73235D01*
X-18359Y73043D01*
X-18252Y72848D01*
X-18150Y72651D01*
X-18052Y72452D01*
X-17960Y72249D01*
X-17872Y72045D01*
X-17790Y71839D01*
X-17712Y71631D01*
X-17640Y71420D01*
X-17573Y71209D01*
X-17511Y70995D01*
X-17454Y70780D01*
X-17403Y70564D01*
X-17357Y70347D01*
X-17316Y70128D01*
X-17281Y69909D01*
X-17251Y69688D01*
X-17227Y69468D01*
X-17208Y69246D01*
X-17194Y69024D01*
X-17186Y68802D01*
X-17183Y68580D01*
X-17186Y68358D01*
X-17194Y68136D01*
X-17208Y67914D01*
X-17227Y67692D01*
X-17251Y67472D01*
X-17281Y67251D01*
X-17316Y67032D01*
X-17357Y66813D01*
X-17403Y66596D01*
X-17454Y66380D01*
X-17511Y66165D01*
X-17573Y65951D01*
X-17640Y65740D01*
X-17712Y65529D01*
X-17790Y65321D01*
X-17872Y65115D01*
X-17960Y64911D01*
X-18052Y64708D01*
X-18150Y64509D01*
X-18252Y64312D01*
X-18359Y64117D01*
X-18471Y63925D01*
X-18588Y63736D01*
X-18709Y63549D01*
X-18835Y63366D01*
X-18965Y63186D01*
X-19100Y63009D01*
X-19238Y62836D01*
X-19381Y62666D01*
X-19529Y62499D01*
X-19680Y62336D01*
X-19835Y62177D01*
X-19994Y62022D01*
X-20157Y61871D01*
X-20324Y61723D01*
X-20494Y61580D01*
X-20667Y61442D01*
X-20844Y61307D01*
X-21024Y61177D01*
X-21207Y61051D01*
X-21394Y60930D01*
X-21583Y60813D01*
X-21775Y60701D01*
X-21970Y60594D01*
X-22167Y60492D01*
X-22366Y60394D01*
X-22569Y60302D01*
X-22773Y60214D01*
X-22979Y60132D01*
X-23187Y60054D01*
X-23398Y59982D01*
X-23609Y59915D01*
X-23823Y59853D01*
X-24038Y59796D01*
X-24254Y59745D01*
X-24471Y59699D01*
X-24690Y59658D01*
X-24909Y59623D01*
X-25130Y59593D01*
X-25350Y59569D01*
X-25572Y59550D01*
X-25794Y59536D01*
X-26016Y59528D01*
X-26238Y59525D01*
X-26460Y59528D01*
X-26682Y59536D01*
X-26904Y59550D01*
X-27126Y59569D01*
X-27346Y59593D01*
X-27567Y59623D01*
X-27786Y59658D01*
X-28005Y59699D01*
X-28222Y59745D01*
X-28438Y59796D01*
X-28653Y59853D01*
X-28867Y59915D01*
X-29078Y59982D01*
X-29289Y60054D01*
X-29497Y60132D01*
X-29703Y60214D01*
X-29907Y60302D01*
X-30110Y60394D01*
X-30309Y60492D01*
X-30506Y60594D01*
X-30701Y60701D01*
X-30893Y60813D01*
X-31082Y60930D01*
X-31269Y61051D01*
X-31452Y61177D01*
X-31632Y61307D01*
X-31809Y61442D01*
X-31982Y61580D01*
X-32152Y61723D01*
X-32319Y61871D01*
X-32482Y62022D01*
X-32641Y62177D01*
X-32796Y62336D01*
X-32947Y62499D01*
X-33095Y62666D01*
X-33238Y62836D01*
X-33376Y63009D01*
X-33511Y63186D01*
X-33641Y63366D01*
X-33767Y63549D01*
X-33888Y63736D01*
X-34005Y63925D01*
X-34117Y64117D01*
X-34224Y64312D01*
X-34326Y64509D01*
X-34424Y64708D01*
X-34516Y64911D01*
X-34604Y65115D01*
X-34686Y65321D01*
X-34764Y65529D01*
X-34836Y65740D01*
X-34903Y65951D01*
X-34965Y66165D01*
X-35022Y66380D01*
X-35073Y66596D01*
X-35119Y66813D01*
X-35160Y67032D01*
X-35195Y67251D01*
X-35225Y67472D01*
X-35249Y67692D01*
X-35268Y67914D01*
X-35282Y68136D01*
X-35290Y68358D01*
X-35293Y68580D01*
D21*
X-26238Y68580D03*
M02*
