M48
;GenerationSoftware,Autodesk,EAGLE,9.6.2*%
;CreationDate,2020-09-21T17:41:36Z*%
FMAT,2
ICI,OFF
METRIC,TZ,000.000
T1C0.200
%
G90
M71
T1
X6997Y12132
X3272Y9022
X8781Y15647
X10819Y14929
X13899Y13916
X8023Y14626
X19984Y2867
X1827Y2963
X16113Y16696
X10976Y5586
X18504Y6940
X6117Y9660
X20860Y4650
X18710Y4182
X9500Y12500
X12500Y12500
X11000Y12500
X9500Y11000
X11000Y11000
X12500Y11000
X12500Y9750
X11000Y9750
X9500Y9750
X19755Y15164
X1088Y6011
X18452Y16473
X3937Y12110
X3810Y14726
X3810Y16504
X3810Y17774
X3810Y19044
X3810Y20314
X3810Y21482
X5080Y21482
X6350Y21482
X7620Y21482
X8890Y21482
X10160Y21482
X11430Y21482
X5055Y20314
X5080Y19044
X4496Y18434
X4496Y19755
X4420Y20974
X5690Y20923
X5715Y19730
X6350Y19069
X7620Y19069
X8789Y19095
X9906Y19501
X11456Y19501
X12700Y19069
X15850Y18891
X6350Y20314
X7595Y20339
X8890Y20339
X10160Y20339
X11430Y20314
X6985Y19704
X8255Y19730
X8255Y20974
X6960Y20949
X9500Y20974
X10744Y21000
X10744Y19882
X9246Y19806
X4267Y15666
X5233Y14980
X4763Y14396
X5207Y13735
X5664Y14421
X6376Y14802
X7138Y14675
X9474Y16021
X11946Y4551
X14423Y6455
X6168Y5884
X762Y9697
X2159Y9697
X1905Y8808
X1596Y7154
X14994Y3090
X14613Y5503
X14105Y4487
X21146Y18161
X17018Y13126
X16510Y11729
X16891Y10586
X16891Y9316
X12041Y2984
X7048Y9595
X6644Y9081
X11366Y3619
X7937Y3746
X3238Y9779
X14784Y10305
X15260Y9840
X14981Y12118
X15440Y11573
X14885Y11207
X15300Y10726
X14478Y7493
X11773Y15621
X9563Y6706
X15294Y4509
X14070Y14903
X16956Y8319
X11459Y15072
X17145Y12128
X15875Y12192
X4890Y3489
X13970Y15530
X18794Y12892
X12361Y15366
X20149Y12795
X18420Y3066
X20316Y20953
X15685Y15061
X15980Y14251
X13017Y6490
X16627Y6921
X20892Y6604
X8596Y4318
X6587Y5144
X16192Y5524
X9454Y3519
X6477Y2984
X7048Y3746
X10100Y3619
X7564Y4382
X9583Y2857
X13405Y5395
X11408Y6667
X10214Y7025
X18034Y3810
X11687Y5616
X12319Y6744
X19401Y21044
X15602Y12795
X4445Y2981
X13446Y14719
X3392Y2984
X16193Y13129
X3873Y3429
X29504Y12132
X25779Y9022
X31288Y15647
X33326Y14929
X36406Y13916
X30530Y14626
X42491Y2867
X24334Y2963
X38620Y16696
X33483Y5586
X41011Y6940
X28624Y9660
X43367Y4650
X41217Y4182
X32007Y12500
X35007Y12500
X33507Y12500
X32007Y11000
X33507Y11000
X35007Y11000
X35007Y9750
X33507Y9750
X32007Y9750
X42262Y15164
X23595Y6011
X40959Y16473
X26444Y12110
X26317Y14726
X26317Y16504
X26317Y17774
X26317Y19044
X26317Y20314
X26317Y21482
X27587Y21482
X28857Y21482
X30127Y21482
X31397Y21482
X32667Y21482
X33937Y21482
X27562Y20314
X27587Y19044
X27003Y18434
X27003Y19755
X26927Y20974
X28197Y20923
X28222Y19730
X28857Y19069
X30127Y19069
X31296Y19095
X32413Y19501
X33963Y19501
X35207Y19069
X38357Y18891
X28857Y20314
X30102Y20339
X31397Y20339
X32667Y20339
X33937Y20314
X29492Y19704
X30762Y19730
X30762Y20974
X29467Y20949
X32007Y20974
X33251Y21000
X33251Y19882
X31753Y19806
X26774Y15666
X27740Y14980
X27270Y14396
X27714Y13735
X28171Y14421
X28883Y14802
X29645Y14675
X31981Y16021
X34453Y4551
X36930Y6455
X28675Y5884
X23269Y9697
X24666Y9697
X24412Y8808
X24103Y7154
X37501Y3090
X37120Y5503
X36612Y4487
X43652Y18161
X39525Y13126
X39017Y11729
X39398Y10586
X39398Y9316
X34548Y2984
X29555Y9595
X29151Y9081
X33873Y3619
X30444Y3746
X25745Y9779
X37290Y10305
X37767Y9840
X37488Y12118
X37947Y11573
X37392Y11207
X37807Y10726
X36985Y7493
X34280Y15621
X32070Y6706
X37801Y4509
X36577Y14903
X39462Y8319
X33966Y15072
X39652Y12128
X38382Y12192
X27396Y3489
X36477Y15530
X41301Y12892
X34868Y15366
X42656Y12795
X40927Y3066
X42823Y20953
X38192Y15061
X38487Y14251
X35524Y6490
X39134Y6921
X43398Y6604
X31103Y4318
X29094Y5144
X38699Y5524
X31961Y3519
X28984Y2984
X29555Y3746
X32607Y3619
X30071Y4382
X32089Y2857
X35912Y5395
X33915Y6667
X32721Y7025
X40541Y3810
X34194Y5616
X34826Y6744
X41907Y21044
X38109Y12795
X26952Y2981
X35953Y14719
X25899Y2984
X38700Y13129
X26380Y3429
X52013Y12132
X48288Y9022
X53797Y15647
X55835Y14929
X58915Y13916
X53039Y14626
X65000Y2867
X46843Y2963
X61129Y16696
X55993Y5586
X63520Y6940
X51133Y9660
X65876Y4650
X63726Y4182
X54516Y12500
X57516Y12500
X56016Y12500
X54516Y11000
X56016Y11000
X57516Y11000
X57516Y9750
X56016Y9750
X54516Y9750
X64771Y15164
X46104Y6011
X63468Y16473
X48954Y12110
X48827Y14726
X48827Y16504
X48827Y17774
X48827Y19044
X48827Y20314
X48827Y21482
X50097Y21482
X51367Y21482
X52637Y21482
X53907Y21482
X55177Y21482
X56447Y21482
X50071Y20314
X50097Y19044
X49512Y18434
X49512Y19755
X49436Y20974
X50706Y20923
X50732Y19730
X51367Y19069
X52637Y19069
X53805Y19095
X54923Y19501
X56472Y19501
X57717Y19069
X60866Y18891
X51367Y20314
X52611Y20339
X53907Y20339
X55177Y20339
X56447Y20314
X52002Y19704
X53272Y19730
X53272Y20974
X51976Y20949
X54516Y20974
X55761Y21000
X55761Y19882
X54262Y19806
X49284Y15666
X50249Y14980
X49779Y14396
X50224Y13735
X50681Y14421
X51392Y14802
X52154Y14675
X54491Y16021
X56963Y4551
X59439Y6455
X51184Y5884
X45779Y9697
X47176Y9697
X46922Y8808
X46612Y7154
X60011Y3090
X59630Y5503
X59122Y4487
X66162Y18161
X62035Y13126
X61527Y11729
X61908Y10586
X61908Y9316
X57058Y2984
X52065Y9595
X51660Y9081
X56383Y3619
X52954Y3746
X48255Y9779
X59800Y10305
X60277Y9840
X59997Y12118
X60457Y11573
X59901Y11207
X60316Y10726
X59494Y7493
X56789Y15621
X54580Y6706
X60311Y4509
X59086Y14903
X61972Y8319
X56476Y15072
X62161Y12128
X60891Y12192
X49906Y3489
X58986Y15530
X63811Y12892
X57378Y15366
X65165Y12795
X63436Y3066
X65332Y20953
X60702Y15061
X60996Y14251
X58034Y6490
X61643Y6921
X65908Y6604
X53613Y4318
X51604Y5144
X61209Y5524
X54471Y3519
X51493Y2984
X52065Y3746
X55116Y3619
X52580Y4382
X54599Y2857
X58422Y5395
X56424Y6667
X55230Y7025
X63050Y3810
X56704Y5616
X57335Y6744
X64417Y21044
X60619Y12795
X49461Y2981
X58463Y14719
X48409Y2984
X61210Y13129
X48890Y3429
X74520Y12132
X70795Y9022
X76304Y15647
X78342Y14929
X81422Y13916
X75546Y14626
X87507Y2867
X69350Y2963
X83636Y16696
X78500Y5586
X86027Y6940
X73640Y9660
X88383Y4650
X86233Y4182
X77023Y12500
X80023Y12500
X78523Y12500
X77023Y11000
X78523Y11000
X80023Y11000
X80023Y9750
X78523Y9750
X77023Y9750
X87278Y15164
X68611Y6011
X85975Y16473
X71461Y12110
X71334Y14726
X71334Y16504
X71334Y17774
X71334Y19044
X71334Y20314
X71334Y21482
X72604Y21482
X73874Y21482
X75144Y21482
X76414Y21482
X77684Y21482
X78954Y21482
X72578Y20314
X72604Y19044
X72019Y18434
X72019Y19755
X71943Y20974
X73213Y20923
X73239Y19730
X73874Y19069
X75144Y19069
X76312Y19095
X77430Y19501
X78979Y19501
X80224Y19069
X83373Y18891
X73874Y20314
X75118Y20339
X76414Y20339
X77684Y20339
X78954Y20314
X74509Y19704
X75779Y19730
X75779Y20974
X74483Y20949
X77023Y20974
X78268Y21000
X78268Y19882
X76769Y19806
X71791Y15666
X72756Y14980
X72286Y14396
X72731Y13735
X73188Y14421
X73899Y14802
X74661Y14675
X76998Y16021
X79470Y4551
X81946Y6455
X73691Y5884
X68286Y9697
X69683Y9697
X69429Y8808
X69119Y7154
X82518Y3090
X82137Y5503
X81629Y4487
X88669Y18161
X84542Y13126
X84034Y11729
X84415Y10586
X84415Y9316
X79565Y2984
X74572Y9595
X74167Y9081
X78890Y3619
X75461Y3746
X70762Y9779
X82307Y10305
X82784Y9840
X82504Y12118
X82964Y11573
X82408Y11207
X82823Y10726
X82001Y7493
X79296Y15621
X77086Y6706
X82818Y4509
X81593Y14903
X84479Y8319
X78983Y15072
X84668Y12128
X83398Y12192
X72413Y3489
X81493Y15530
X86318Y12892
X79885Y15366
X87672Y12795
X85943Y3066
X87839Y20953
X83209Y15061
X83503Y14251
X80541Y6490
X84150Y6921
X88415Y6604
X76120Y4318
X74111Y5144
X83716Y5524
X76978Y3519
X74000Y2984
X74572Y3746
X77623Y3619
X75087Y4382
X77106Y2857
X80929Y5395
X78931Y6667
X77737Y7025
X85557Y3810
X79211Y5616
X79842Y6744
X86924Y21044
X83126Y12795
X71968Y2981
X80970Y14719
X70916Y2984
X83717Y13129
X71397Y3429
X97030Y12132
X93305Y9022
X98814Y15647
X100852Y14929
X103932Y13916
X98056Y14626
X110017Y2867
X91860Y2963
X106146Y16696
X101009Y5586
X108537Y6940
X96150Y9660
X110893Y4650
X108743Y4182
X99533Y12500
X102533Y12500
X101033Y12500
X99533Y11000
X101033Y11000
X102533Y11000
X102533Y9750
X101033Y9750
X99533Y9750
X109787Y15164
X91121Y6011
X108484Y16473
X93970Y12110
X93843Y14726
X93843Y16504
X93843Y17774
X93843Y19044
X93843Y20314
X93843Y21482
X95113Y21482
X96383Y21482
X97653Y21482
X98923Y21482
X100193Y21482
X101463Y21482
X95088Y20314
X95113Y19044
X94529Y18434
X94529Y19755
X94453Y20974
X95723Y20923
X95748Y19730
X96383Y19069
X97653Y19069
X98821Y19095
X99939Y19501
X101488Y19501
X102733Y19069
X105883Y18891
X96383Y20314
X97628Y20339
X98923Y20339
X100193Y20339
X101463Y20314
X97018Y19704
X98288Y19730
X98288Y20974
X96993Y20949
X99533Y20974
X100777Y21000
X100777Y19882
X99279Y19806
X94300Y15666
X95265Y14980
X94796Y14396
X95240Y13735
X95697Y14421
X96408Y14802
X97170Y14675
X99507Y16021
X101979Y4551
X104456Y6455
X96201Y5884
X90795Y9697
X92192Y9697
X91938Y8808
X91629Y7154
X105027Y3090
X104646Y5503
X104138Y4487
X111178Y18161
X107051Y13126
X106543Y11729
X106924Y10586
X106924Y9316
X102074Y2984
X97081Y9595
X96677Y9081
X101399Y3619
X97970Y3746
X93271Y9779
X104816Y10305
X105293Y9840
X105014Y12118
X105473Y11573
X104918Y11207
X105333Y10726
X104511Y7493
X101806Y15621
X99596Y6706
X105327Y4509
X104103Y14903
X106988Y8319
X101492Y15072
X107178Y12128
X105908Y12192
X94922Y3489
X104002Y15530
X108827Y12892
X102394Y15366
X110181Y12795
X108453Y3066
X110349Y20953
X105718Y15061
X106013Y14251
X103050Y6490
X106660Y6921
X110924Y6604
X98629Y4318
X96620Y5144
X106225Y5524
X99487Y3519
X96510Y2984
X97081Y3746
X100133Y3619
X97596Y4382
X99615Y2857
X103438Y5395
X101441Y6667
X100247Y7025
X108067Y3810
X101720Y5616
X102352Y6744
X109433Y21044
X105635Y12795
X94478Y2981
X103479Y14719
X93425Y2984
X106226Y13129
X93906Y3429
X119537Y12132
X115812Y9022
X121321Y15647
X123359Y14929
X126439Y13916
X120563Y14626
X132524Y2867
X114367Y2963
X128653Y16696
X123516Y5586
X131044Y6940
X118657Y9660
X133400Y4650
X131250Y4182
X122040Y12500
X125040Y12500
X123540Y12500
X122040Y11000
X123540Y11000
X125040Y11000
X125040Y9750
X123540Y9750
X122040Y9750
X132294Y15164
X113628Y6011
X130991Y16473
X116477Y12110
X116350Y14726
X116350Y16504
X116350Y17774
X116350Y19044
X116350Y20314
X116350Y21482
X117620Y21482
X118890Y21482
X120160Y21482
X121430Y21482
X122700Y21482
X123970Y21482
X117595Y20314
X117620Y19044
X117036Y18434
X117036Y19755
X116960Y20974
X118230Y20923
X118255Y19730
X118890Y19069
X120160Y19069
X121328Y19095
X122446Y19501
X123995Y19501
X125240Y19069
X128390Y18891
X118890Y20314
X120135Y20339
X121430Y20339
X122700Y20339
X123970Y20314
X119525Y19704
X120795Y19730
X120795Y20974
X119500Y20949
X122040Y20974
X123284Y21000
X123284Y19882
X121786Y19806
X116807Y15666
X117772Y14980
X117302Y14396
X117747Y13735
X118204Y14421
X118915Y14802
X119677Y14675
X122014Y16021
X124486Y4551
X126963Y6455
X118708Y5884
X113302Y9697
X114699Y9697
X114445Y8808
X114136Y7154
X127534Y3090
X127153Y5503
X126645Y4487
X133685Y18161
X129558Y13126
X129050Y11729
X129431Y10586
X129431Y9316
X124581Y2984
X119588Y9595
X119183Y9081
X123906Y3619
X120477Y3746
X115778Y9779
X127323Y10305
X127800Y9840
X127521Y12118
X127980Y11573
X127425Y11207
X127840Y10726
X127018Y7493
X124313Y15621
X122103Y6706
X127834Y4509
X126610Y14903
X129495Y8319
X123999Y15072
X129685Y12128
X128415Y12192
X117429Y3489
X126509Y15530
X131334Y12892
X124901Y15366
X132688Y12795
X130960Y3066
X132856Y20953
X128225Y15061
X128520Y14251
X125557Y6490
X129167Y6921
X133431Y6604
X121136Y4318
X119127Y5144
X128732Y5524
X121994Y3519
X119017Y2984
X119588Y3746
X122640Y3619
X120103Y4382
X122122Y2857
X125945Y5395
X123948Y6667
X122754Y7025
X130574Y3810
X124227Y5616
X124859Y6744
X131940Y21044
X128142Y12795
X116985Y2981
X125986Y14719
X115932Y2984
X128733Y13129
X116413Y3429
X142046Y12132
X138321Y9022
X143830Y15647
X145868Y14929
X148948Y13916
X143072Y14626
X155033Y2867
X136876Y2963
X151162Y16696
X146025Y5586
X153553Y6940
X141166Y9660
X155909Y4650
X153759Y4182
X144549Y12500
X147549Y12500
X146049Y12500
X144549Y11000
X146049Y11000
X147549Y11000
X147549Y9750
X146049Y9750
X144549Y9750
X154804Y15164
X136137Y6011
X153501Y16473
X138986Y12110
X138859Y14726
X138859Y16504
X138859Y17774
X138859Y19044
X138859Y20314
X138859Y21482
X140129Y21482
X141399Y21482
X142669Y21482
X143939Y21482
X145209Y21482
X146479Y21482
X140104Y20314
X140129Y19044
X139545Y18434
X139545Y19755
X139469Y20974
X140739Y20923
X140764Y19730
X141399Y19069
X142669Y19069
X143838Y19095
X144955Y19501
X146505Y19501
X147749Y19069
X150899Y18891
X141399Y20314
X142644Y20339
X143939Y20339
X145209Y20339
X146479Y20314
X142034Y19704
X143304Y19730
X143304Y20974
X142009Y20949
X144549Y20974
X145794Y21000
X145794Y19882
X144295Y19806
X139317Y15666
X140282Y14980
X139812Y14396
X140256Y13735
X140714Y14421
X141425Y14802
X142187Y14675
X144524Y16021
X146996Y4551
X149472Y6455
X141217Y5884
X135811Y9697
X137208Y9697
X136954Y8808
X136645Y7154
X150044Y3090
X149663Y5503
X149155Y4487
X156195Y18161
X152067Y13126
X151559Y11729
X151940Y10586
X151940Y9316
X147090Y2984
X142098Y9595
X141693Y9081
X146416Y3619
X142987Y3746
X138288Y9779
X149833Y10305
X150310Y9840
X150030Y12118
X150490Y11573
X149934Y11207
X150349Y10726
X149527Y7493
X146822Y15621
X144612Y6706
X150344Y4509
X149119Y14903
X152005Y8319
X146508Y15072
X152194Y12128
X150924Y12192
X139939Y3489
X149019Y15530
X153844Y12892
X147411Y15366
X155198Y12795
X153469Y3066
X155365Y20953
X150734Y15061
X151029Y14251
X148067Y6490
X151676Y6921
X155941Y6604
X143646Y4318
X141637Y5144
X151242Y5524
X144504Y3519
X141526Y2984
X142098Y3746
X145149Y3619
X142613Y4382
X144632Y2857
X148455Y5395
X146457Y6667
X145263Y7025
X153083Y3810
X146736Y5616
X147368Y6744
X154450Y21044
X150652Y12795
X139494Y2981
X148496Y14719
X138442Y2984
X151243Y13129
X138923Y3429
X164553Y12132
X160828Y9022
X166337Y15647
X168375Y14929
X171455Y13916
X165579Y14626
X177540Y2867
X159383Y2963
X173669Y16696
X168532Y5586
X176060Y6940
X163673Y9660
X178416Y4650
X176266Y4182
X167056Y12500
X170056Y12500
X168556Y12500
X167056Y11000
X168556Y11000
X170056Y11000
X170056Y9750
X168556Y9750
X167056Y9750
X177311Y15164
X158644Y6011
X176008Y16473
X161493Y12110
X161366Y14726
X161366Y16504
X161366Y17774
X161366Y19044
X161366Y20314
X161366Y21482
X162636Y21482
X163906Y21482
X165176Y21482
X166446Y21482
X167716Y21482
X168986Y21482
X162611Y20314
X162636Y19044
X162052Y18434
X162052Y19755
X161976Y20974
X163246Y20923
X163271Y19730
X163906Y19069
X165176Y19069
X166345Y19095
X167462Y19501
X169012Y19501
X170256Y19069
X173406Y18891
X163906Y20314
X165151Y20339
X166446Y20339
X167716Y20339
X168986Y20314
X164541Y19704
X165811Y19730
X165811Y20974
X164516Y20949
X167056Y20974
X168301Y21000
X168301Y19882
X166802Y19806
X161824Y15666
X162789Y14980
X162319Y14396
X162763Y13735
X163221Y14421
X163932Y14802
X164694Y14675
X167031Y16021
X169503Y4551
X171979Y6455
X163724Y5884
X158318Y9697
X159715Y9697
X159461Y8808
X159152Y7154
X172551Y3090
X172170Y5503
X171662Y4487
X178702Y18161
X174574Y13126
X174066Y11729
X174447Y10586
X174447Y9316
X169597Y2984
X164605Y9595
X164200Y9081
X168923Y3619
X165494Y3746
X160795Y9779
X172340Y10305
X172817Y9840
X172537Y12118
X172997Y11573
X172441Y11207
X172856Y10726
X172034Y7493
X169329Y15621
X167119Y6706
X172851Y4509
X171626Y14903
X174512Y8319
X169015Y15072
X174701Y12128
X173431Y12192
X162446Y3489
X171526Y15530
X176351Y12892
X169918Y15366
X177705Y12795
X175976Y3066
X177872Y20953
X173241Y15061
X173536Y14251
X170574Y6490
X174183Y6921
X178448Y6604
X166153Y4318
X164144Y5144
X173749Y5524
X167011Y3519
X164033Y2984
X164605Y3746
X167656Y3619
X165120Y4382
X167139Y2857
X170962Y5395
X168964Y6667
X167770Y7025
X175590Y3810
X169243Y5616
X169875Y6744
X176957Y21044
X173159Y12795
X162001Y2981
X171003Y14719
X160949Y2984
X173750Y13129
X161430Y3429
X15002Y57718
X18727Y60828
X13218Y54203
X11180Y54921
X8100Y55934
X13976Y55224
X2015Y66983
X20172Y66887
X5886Y53154
X11023Y64264
X3495Y62910
X15882Y60190
X1139Y65200
X3289Y65668
X12499Y57350
X9499Y57350
X10999Y57350
X12499Y58850
X10999Y58850
X9499Y58850
X9499Y60100
X10999Y60100
X12499Y60100
X2244Y54686
X20911Y63839
X3547Y53377
X18062Y57740
X18189Y55124
X18189Y53346
X18189Y52076
X18189Y50806
X18189Y49536
X18189Y48368
X16919Y48368
X15649Y48368
X14379Y48368
X13109Y48368
X11839Y48368
X10569Y48368
X16944Y49536
X16919Y50806
X17503Y51416
X17503Y50095
X17579Y48876
X16309Y48927
X16284Y50120
X15649Y50781
X14379Y50781
X13210Y50755
X12093Y50349
X10543Y50349
X9299Y50781
X6149Y50959
X15649Y49536
X14404Y49511
X13109Y49511
X11839Y49511
X10569Y49536
X15014Y50146
X13744Y50120
X13744Y48876
X15039Y48901
X12499Y48876
X11255Y48850
X11255Y49968
X12753Y50044
X17732Y54184
X16766Y54870
X17236Y55454
X16792Y56115
X16335Y55429
X15623Y55048
X14861Y55175
X12525Y53829
X10052Y65299
X7576Y63394
X15831Y63966
X21237Y60153
X19840Y60153
X20094Y61042
X20403Y62696
X7004Y66760
X7385Y64347
X7893Y65363
X853Y51689
X4981Y56724
X5489Y58121
X5108Y59264
X5108Y60534
X9958Y66866
X14950Y60255
X15355Y60769
X10632Y66231
X14061Y66104
X18760Y60071
X7215Y59545
X6739Y60010
X7018Y57732
X6559Y58277
X7114Y58643
X6699Y59124
X7521Y62357
X10226Y54229
X12436Y63144
X6705Y65341
X7929Y54947
X5043Y61531
X10540Y54778
X4854Y57721
X6124Y57658
X17109Y66361
X8029Y54320
X3205Y56958
X9638Y54484
X1850Y57055
X3579Y66784
X1683Y48897
X6314Y54789
X6019Y55599
X8981Y63360
X5372Y62928
X1107Y63246
X13403Y65532
X15412Y64706
X5806Y64325
X12544Y66331
X15522Y66866
X14950Y66104
X11899Y66231
X14435Y65468
X12416Y66993
X8594Y64455
X10591Y63182
X11785Y62825
X3965Y66040
X10312Y64234
X9680Y63106
X2598Y48806
X6397Y57055
X17554Y66869
X8553Y55131
X18606Y66866
X5806Y56721
X18125Y66421
X37511Y57718
X41236Y60828
X35728Y54203
X33689Y54921
X30609Y55934
X36485Y55224
X24525Y66983
X42681Y66887
X28395Y53154
X33532Y64264
X26004Y62910
X38391Y60190
X23648Y65200
X25798Y65668
X35008Y57350
X32008Y57350
X33508Y57350
X35008Y58850
X33508Y58850
X32008Y58850
X32008Y60100
X33508Y60100
X35008Y60100
X24754Y54686
X43420Y63839
X26057Y53377
X40571Y57740
X40698Y55124
X40698Y53346
X40698Y52076
X40698Y50806
X40698Y49536
X40698Y48368
X39428Y48368
X38158Y48368
X36888Y48368
X35618Y48368
X34348Y48368
X33078Y48368
X39454Y49536
X39428Y50806
X40012Y51416
X40012Y50095
X40089Y48876
X38819Y48927
X38793Y50120
X38158Y50781
X36888Y50781
X35720Y50755
X34602Y50349
X33053Y50349
X31808Y50781
X28659Y50959
X38158Y49536
X36914Y49511
X35618Y49511
X34348Y49511
X33078Y49536
X37523Y50146
X36253Y50120
X36253Y48876
X37549Y48901
X35009Y48876
X33764Y48850
X33764Y49968
X35263Y50044
X40241Y54184
X39276Y54870
X39746Y55454
X39301Y56115
X38844Y55429
X38133Y55048
X37371Y55175
X35034Y53829
X32562Y65299
X30085Y63394
X38340Y63966
X43746Y60153
X42349Y60153
X42603Y61042
X42912Y62696
X29514Y66760
X29895Y64347
X30403Y65363
X23363Y51689
X27490Y56724
X27998Y58121
X27617Y59264
X27617Y60534
X32467Y66866
X37460Y60255
X37865Y60769
X33142Y66231
X36571Y66104
X41270Y60071
X29725Y59545
X29248Y60010
X29528Y57732
X29068Y58277
X29623Y58643
X29208Y59124
X30030Y62357
X32736Y54229
X34945Y63144
X29214Y65341
X30438Y54947
X27553Y61531
X33049Y54778
X27363Y57721
X28633Y57658
X39619Y66361
X30539Y54320
X25714Y56958
X32147Y54484
X24360Y57055
X26088Y66784
X24192Y48897
X28823Y54789
X28528Y55599
X31491Y63360
X27881Y62928
X23617Y63246
X35912Y65532
X37921Y64706
X28316Y64325
X35054Y66331
X38031Y66866
X37460Y66104
X34408Y66231
X36945Y65468
X34926Y66993
X31103Y64455
X33101Y63182
X34294Y62825
X26474Y66040
X32821Y64234
X32189Y63106
X25108Y48806
X28906Y57055
X40063Y66869
X31062Y55131
X41116Y66866
X28315Y56721
X40635Y66421
X60018Y57718
X63743Y60828
X58235Y54203
X56196Y54921
X53116Y55934
X58992Y55224
X47032Y66983
X65188Y66887
X50902Y53154
X56039Y64264
X48511Y62910
X60898Y60190
X46155Y65200
X48305Y65668
X57515Y57350
X54515Y57350
X56015Y57350
X57515Y58850
X56015Y58850
X54515Y58850
X54515Y60100
X56015Y60100
X57515Y60100
X47261Y54686
X65927Y63839
X48564Y53377
X63078Y57740
X63205Y55124
X63205Y53346
X63205Y52076
X63205Y50806
X63205Y49536
X63205Y48368
X61935Y48368
X60665Y48368
X59395Y48368
X58125Y48368
X56855Y48368
X55585Y48368
X61961Y49536
X61935Y50806
X62519Y51416
X62519Y50095
X62596Y48876
X61326Y48927
X61300Y50120
X60665Y50781
X59395Y50781
X58227Y50755
X57109Y50349
X55560Y50349
X54315Y50781
X51166Y50959
X60665Y49536
X59421Y49511
X58125Y49511
X56855Y49511
X55585Y49536
X60030Y50146
X58760Y50120
X58760Y48876
X60056Y48901
X57516Y48876
X56271Y48850
X56271Y49968
X57770Y50044
X62748Y54184
X61783Y54870
X62253Y55454
X61808Y56115
X61351Y55429
X60640Y55048
X59878Y55175
X57541Y53829
X55069Y65299
X52592Y63394
X60847Y63966
X66253Y60153
X64856Y60153
X65110Y61042
X65419Y62696
X52021Y66760
X52402Y64347
X52910Y65363
X45870Y51689
X49997Y56724
X50505Y58121
X50124Y59264
X50124Y60534
X54974Y66866
X59967Y60255
X60372Y60769
X55649Y66231
X59078Y66104
X63777Y60071
X52232Y59545
X51755Y60010
X52035Y57732
X51575Y58277
X52130Y58643
X51715Y59124
X52537Y62357
X55242Y54229
X57452Y63144
X51721Y65341
X52945Y54947
X50060Y61531
X55556Y54778
X49870Y57721
X51140Y57658
X62126Y66361
X53046Y54320
X48221Y56958
X54654Y54484
X46867Y57055
X48595Y66784
X46699Y48897
X51330Y54789
X51035Y55599
X53998Y63360
X50388Y62928
X46124Y63246
X58419Y65532
X60428Y64706
X50823Y64325
X57561Y66331
X60538Y66866
X59967Y66104
X56915Y66231
X59452Y65468
X57433Y66993
X53610Y64455
X55608Y63182
X56801Y62825
X48981Y66040
X55328Y64234
X54696Y63106
X47615Y48806
X51413Y57055
X62570Y66869
X53569Y55131
X63623Y66866
X50822Y56721
X63142Y66421
X82528Y57718
X86253Y60828
X80744Y54203
X78706Y54921
X75626Y55934
X81502Y55224
X69541Y66983
X87698Y66887
X73412Y53154
X78549Y64264
X71021Y62910
X83408Y60190
X68665Y65200
X70815Y65668
X80025Y57350
X77025Y57350
X78525Y57350
X80025Y58850
X78525Y58850
X77025Y58850
X77025Y60100
X78525Y60100
X80025Y60100
X69770Y54686
X88437Y63839
X71073Y53377
X85588Y57740
X85715Y55124
X85715Y53346
X85715Y52076
X85715Y50806
X85715Y49536
X85715Y48368
X84445Y48368
X83175Y48368
X81905Y48368
X80635Y48368
X79365Y48368
X78095Y48368
X84470Y49536
X84445Y50806
X85029Y51416
X85029Y50095
X85105Y48876
X83835Y48927
X83810Y50120
X83175Y50781
X81905Y50781
X80736Y50755
X79619Y50349
X78069Y50349
X76825Y50781
X73675Y50959
X83175Y49536
X81930Y49511
X80635Y49511
X79365Y49511
X78095Y49536
X82540Y50146
X81270Y50120
X81270Y48876
X82565Y48901
X80025Y48876
X78780Y48850
X78780Y49968
X80279Y50044
X85257Y54184
X84292Y54870
X84762Y55454
X84318Y56115
X83860Y55429
X83149Y55048
X82387Y55175
X80050Y53829
X77578Y65299
X75102Y63394
X83357Y63966
X88763Y60153
X87366Y60153
X87620Y61042
X87929Y62696
X74530Y66760
X74911Y64347
X75419Y65363
X68379Y51689
X72507Y56724
X73015Y58121
X72634Y59264
X72634Y60534
X77484Y66866
X82476Y60255
X82881Y60769
X78158Y66231
X81587Y66104
X86286Y60071
X74741Y59545
X74264Y60010
X74544Y57732
X74084Y58277
X74640Y58643
X74225Y59124
X75047Y62357
X77752Y54229
X79962Y63144
X74230Y65341
X75455Y54947
X72569Y61531
X78066Y54778
X72380Y57721
X73650Y57658
X84635Y66361
X75555Y54320
X70730Y56958
X77164Y54484
X69376Y57055
X71105Y66784
X69209Y48897
X73840Y54789
X73545Y55599
X76507Y63360
X72898Y62928
X68633Y63246
X80929Y65532
X82938Y64706
X73332Y64325
X80070Y66331
X83048Y66866
X82476Y66104
X79425Y66231
X81961Y65468
X79942Y66993
X76120Y64455
X78117Y63182
X79311Y62825
X71491Y66040
X77838Y64234
X77206Y63106
X70124Y48806
X73923Y57055
X85080Y66869
X76078Y55131
X86132Y66866
X73332Y56721
X85651Y66421
X105035Y57718
X108760Y60828
X103251Y54203
X101213Y54921
X98133Y55934
X104009Y55224
X92048Y66983
X110205Y66887
X95919Y53154
X101056Y64264
X93528Y62910
X105915Y60190
X91172Y65200
X93322Y65668
X102532Y57350
X99532Y57350
X101032Y57350
X102532Y58850
X101032Y58850
X99532Y58850
X99532Y60100
X101032Y60100
X102532Y60100
X92277Y54686
X110944Y63839
X93580Y53377
X108095Y57740
X108222Y55124
X108222Y53346
X108222Y52076
X108222Y50806
X108222Y49536
X108222Y48368
X106952Y48368
X105682Y48368
X104412Y48368
X103142Y48368
X101872Y48368
X100602Y48368
X106977Y49536
X106952Y50806
X107536Y51416
X107536Y50095
X107612Y48876
X106342Y48927
X106317Y50120
X105682Y50781
X104412Y50781
X103243Y50755
X102126Y50349
X100576Y50349
X99332Y50781
X96182Y50959
X105682Y49536
X104437Y49511
X103142Y49511
X101872Y49511
X100602Y49536
X105047Y50146
X103777Y50120
X103777Y48876
X105072Y48901
X102532Y48876
X101287Y48850
X101287Y49968
X102786Y50044
X107764Y54184
X106799Y54870
X107269Y55454
X106825Y56115
X106367Y55429
X105656Y55048
X104894Y55175
X102557Y53829
X100085Y65299
X97609Y63394
X105864Y63966
X111270Y60153
X109873Y60153
X110127Y61042
X110436Y62696
X97037Y66760
X97418Y64347
X97926Y65363
X90886Y51689
X95014Y56724
X95522Y58121
X95141Y59264
X95141Y60534
X99991Y66866
X104983Y60255
X105388Y60769
X100665Y66231
X104094Y66104
X108793Y60071
X97248Y59545
X96771Y60010
X97051Y57732
X96591Y58277
X97147Y58643
X96732Y59124
X97554Y62357
X100259Y54229
X102469Y63144
X96737Y65341
X97962Y54947
X95076Y61531
X100573Y54778
X94887Y57721
X96157Y57658
X107142Y66361
X98062Y54320
X93237Y56958
X99670Y54484
X91883Y57055
X93612Y66784
X91716Y48897
X96347Y54789
X96052Y55599
X99014Y63360
X95405Y62928
X91140Y63246
X103435Y65532
X105444Y64706
X95839Y64325
X102577Y66331
X105555Y66866
X104983Y66104
X101932Y66231
X104468Y65468
X102449Y66993
X98626Y64455
X100624Y63182
X101818Y62825
X93998Y66040
X100345Y64234
X99713Y63106
X92631Y48806
X96429Y57055
X107587Y66869
X98585Y55131
X108639Y66866
X95838Y56721
X108158Y66421
X127544Y57718
X131269Y60828
X125760Y54203
X123722Y54921
X120642Y55934
X126518Y55224
X114557Y66983
X132714Y66887
X118428Y53154
X123565Y64264
X116037Y62910
X128424Y60190
X113681Y65200
X115831Y65668
X125041Y57350
X122041Y57350
X123541Y57350
X125041Y58850
X123541Y58850
X122041Y58850
X122041Y60100
X123541Y60100
X125041Y60100
X114787Y54686
X133453Y63839
X116090Y53377
X130604Y57740
X130731Y55124
X130731Y53346
X130731Y52076
X130731Y50806
X130731Y49536
X130731Y48368
X129461Y48368
X128191Y48368
X126921Y48368
X125651Y48368
X124381Y48368
X123111Y48368
X129486Y49536
X129461Y50806
X130045Y51416
X130045Y50095
X130121Y48876
X128851Y48927
X128826Y50120
X128191Y50781
X126921Y50781
X125753Y50755
X124635Y50349
X123086Y50349
X121841Y50781
X118691Y50959
X128191Y49536
X126946Y49511
X125651Y49511
X124381Y49511
X123111Y49536
X127556Y50146
X126286Y50120
X126286Y48876
X127581Y48901
X125041Y48876
X123797Y48850
X123797Y49968
X125295Y50044
X130274Y54184
X129309Y54870
X129779Y55454
X129334Y56115
X128877Y55429
X128166Y55048
X127404Y55175
X125067Y53829
X122595Y65299
X120118Y63394
X128373Y63966
X133779Y60153
X132382Y60153
X132636Y61042
X132945Y62696
X119547Y66760
X119928Y64347
X120436Y65363
X113396Y51689
X117523Y56724
X118031Y58121
X117650Y59264
X117650Y60534
X122500Y66866
X127493Y60255
X127898Y60769
X123175Y66231
X126604Y66104
X131303Y60071
X119758Y59545
X119281Y60010
X119560Y57732
X119101Y58277
X119656Y58643
X119241Y59124
X120063Y62357
X122768Y54229
X124978Y63144
X119247Y65341
X120471Y54947
X117586Y61531
X123082Y54778
X117396Y57721
X118666Y57658
X129652Y66361
X120572Y54320
X115747Y56958
X122180Y54484
X114393Y57055
X116121Y66784
X114225Y48897
X118856Y54789
X118561Y55599
X121524Y63360
X117914Y62928
X113650Y63246
X125945Y65532
X127954Y64706
X118349Y64325
X125087Y66331
X128064Y66866
X127493Y66104
X124441Y66231
X126978Y65468
X124959Y66993
X121136Y64455
X123133Y63182
X124327Y62825
X116507Y66040
X122854Y64234
X122222Y63106
X115141Y48806
X118939Y57055
X130096Y66869
X121095Y55131
X131149Y66866
X118348Y56721
X130668Y66421
X150051Y57718
X153776Y60828
X148267Y54203
X146229Y54921
X143149Y55934
X149025Y55224
X137064Y66983
X155221Y66887
X140935Y53154
X146072Y64264
X138544Y62910
X150931Y60190
X136188Y65200
X138338Y65668
X147548Y57350
X144548Y57350
X146048Y57350
X147548Y58850
X146048Y58850
X144548Y58850
X144548Y60100
X146048Y60100
X147548Y60100
X137294Y54686
X155960Y63839
X138597Y53377
X153111Y57740
X153238Y55124
X153238Y53346
X153238Y52076
X153238Y50806
X153238Y49536
X153238Y48368
X151968Y48368
X150698Y48368
X149428Y48368
X148158Y48368
X146888Y48368
X145618Y48368
X151993Y49536
X151968Y50806
X152552Y51416
X152552Y50095
X152628Y48876
X151358Y48927
X151333Y50120
X150698Y50781
X149428Y50781
X148260Y50755
X147142Y50349
X145593Y50349
X144348Y50781
X141198Y50959
X150698Y49536
X149453Y49511
X148158Y49511
X146888Y49511
X145618Y49536
X150063Y50146
X148793Y50120
X148793Y48876
X150088Y48901
X147548Y48876
X146304Y48850
X146304Y49968
X147802Y50044
X152781Y54184
X151816Y54870
X152286Y55454
X151841Y56115
X151384Y55429
X150673Y55048
X149911Y55175
X147574Y53829
X145102Y65299
X142625Y63394
X150880Y63966
X156286Y60153
X154889Y60153
X155143Y61042
X155452Y62696
X142054Y66760
X142435Y64347
X142943Y65363
X135903Y51689
X140030Y56724
X140538Y58121
X140157Y59264
X140157Y60534
X145007Y66866
X150000Y60255
X150405Y60769
X145682Y66231
X149111Y66104
X153810Y60071
X142265Y59545
X141788Y60010
X142067Y57732
X141608Y58277
X142163Y58643
X141748Y59124
X142570Y62357
X145275Y54229
X147485Y63144
X141754Y65341
X142978Y54947
X140093Y61531
X145589Y54778
X139903Y57721
X141173Y57658
X152159Y66361
X143079Y54320
X138254Y56958
X144687Y54484
X136900Y57055
X138628Y66784
X136732Y48897
X141363Y54789
X141068Y55599
X144031Y63360
X140421Y62928
X136157Y63246
X148452Y65532
X150461Y64706
X140856Y64325
X147594Y66331
X150571Y66866
X150000Y66104
X146948Y66231
X149485Y65468
X147466Y66993
X143643Y64455
X145640Y63182
X146834Y62825
X139014Y66040
X145361Y64234
X144729Y63106
X137648Y48806
X141446Y57055
X152603Y66869
X143602Y55131
X153656Y66866
X140855Y56721
X153175Y66421
X172558Y57718
X176283Y60828
X170774Y54203
X168736Y54921
X165656Y55934
X171532Y55224
X159571Y66983
X177728Y66887
X163442Y53154
X168579Y64264
X161051Y62910
X173438Y60190
X158695Y65200
X160845Y65668
X170055Y57350
X167055Y57350
X168555Y57350
X170055Y58850
X168555Y58850
X167055Y58850
X167055Y60100
X168555Y60100
X170055Y60100
X159801Y54686
X178467Y63839
X161104Y53377
X175618Y57740
X175745Y55124
X175745Y53346
X175745Y52076
X175745Y50806
X175745Y49536
X175745Y48368
X174475Y48368
X173205Y48368
X171935Y48368
X170665Y48368
X169395Y48368
X168125Y48368
X174500Y49536
X174475Y50806
X175059Y51416
X175059Y50095
X175135Y48876
X173865Y48927
X173840Y50120
X173205Y50781
X171935Y50781
X170767Y50755
X169649Y50349
X168100Y50349
X166855Y50781
X163705Y50959
X173205Y49536
X171960Y49511
X170665Y49511
X169395Y49511
X168125Y49536
X172570Y50146
X171300Y50120
X171300Y48876
X172595Y48901
X170055Y48876
X168811Y48850
X168811Y49968
X170309Y50044
X175288Y54184
X174323Y54870
X174792Y55454
X174348Y56115
X173891Y55429
X173180Y55048
X172418Y55175
X170081Y53829
X167609Y65299
X165132Y63394
X173387Y63966
X178793Y60153
X177396Y60153
X177650Y61042
X177959Y62696
X164561Y66760
X164942Y64347
X165450Y65363
X158410Y51689
X162537Y56724
X163045Y58121
X162664Y59264
X162664Y60534
X167514Y66866
X172507Y60255
X172911Y60769
X168189Y66231
X171618Y66104
X176317Y60071
X164772Y59545
X164295Y60010
X164574Y57732
X164115Y58277
X164670Y58643
X164255Y59124
X165077Y62357
X167782Y54229
X169992Y63144
X164261Y65341
X165485Y54947
X162600Y61531
X168096Y54778
X162410Y57721
X163680Y57658
X174666Y66361
X165586Y54320
X160761Y56958
X167194Y54484
X159407Y57055
X161135Y66784
X159239Y48897
X163870Y54789
X163575Y55599
X166538Y63360
X162928Y62928
X158664Y63246
X170959Y65532
X172968Y64706
X163363Y64325
X170101Y66331
X173078Y66866
X172507Y66104
X169455Y66231
X171992Y65468
X169973Y66993
X166150Y64455
X168147Y63182
X169341Y62825
X161521Y66040
X167868Y64234
X167236Y63106
X160155Y48806
X163953Y57055
X175110Y66869
X166109Y55131
X176163Y66866
X163362Y56721
X175682Y66421
X12900Y21000
X17100Y21000
X15000Y19700
X35407Y21000
X39607Y21000
X37507Y19700
X57916Y21000
X62116Y21000
X60016Y19700
X80423Y21000
X84623Y21000
X82523Y19700
X102933Y21000
X107133Y21000
X105033Y19700
X125440Y21000
X129640Y21000
X127540Y19700
X147949Y21000
X152149Y21000
X150049Y19700
X170456Y21000
X174656Y21000
X172556Y19700
X9099Y48850
X4899Y48850
X6999Y50150
X31608Y48850
X27408Y48850
X29508Y50150
X54115Y48850
X49915Y48850
X52015Y50150
X76625Y48850
X72425Y48850
X74525Y50150
X99132Y48850
X94932Y48850
X97032Y50150
X121641Y48850
X117441Y48850
X119541Y50150
X144148Y48850
X139948Y48850
X142048Y50150
X166655Y48850
X162455Y48850
X164555Y50150
M30